<svg width="479" height="817" viewBox="0 0 479 817" fill="none" xmlns="http://www.w3.org/2000/svg">
<path fill-rule="evenodd" clip-rule="evenodd" d="M88.443 0.171469L-134.473 143.06L-134.494 424.788L65.3235 544.019L131.252 504.119L242.165 436.993L241.602 297.133C233.178 294.804 226.977 287.1 226.94 277.931C226.896 266.883 235.815 257.892 246.863 257.847C257.911 257.802 266.903 266.722 266.947 277.77C266.984 286.942 260.842 294.697 252.433 297.091L252.97 430.453L317.909 391.151L317.368 256.586C308.943 254.257 302.741 246.554 302.704 237.384C302.659 226.336 311.579 217.344 322.627 217.3C333.675 217.255 342.667 226.175 342.711 237.223C342.748 246.394 336.607 254.148 328.199 256.543L328.764 397.068L328.763 397.242L131.25 516.619L75.703 550.192L130.598 583.219H131.124L396.208 424.004V143.063L171.423 0L171.308 300.39L130.278 300.31L88.4167 300.306L88.443 0.171469Z" fill="#012437" fill-opacity="0.1"/>
<path fill-rule="evenodd" clip-rule="evenodd" d="M478.584 495.493L478.777 605.356L130.921 829.931L-217 605.683L-216.967 495.898L130.869 698.147L478.584 495.493Z" fill="#012437" fill-opacity="0.1"/>
<path fill-rule="evenodd" clip-rule="evenodd" d="M478.7 445.029L478.719 495.493L396.208 543.502V497.922L478.7 445.029Z" fill="#012437" fill-opacity="0.1"/>
</svg>
