<svg width="208" height="69" viewBox="0 0 208 69" fill="none" xmlns="http://www.w3.org/2000/svg">
<path fill-rule="evenodd" clip-rule="evenodd" d="M24.7676 0.1458L6.92714 11.5852L6.92542 34.14L22.9173 43.6855L28.1936 40.4912L37.0703 35.1171L37.0252 23.9201C36.351 23.7337 35.8547 23.1169 35.8518 22.3829C35.8482 21.4984 36.5621 20.7785 37.4463 20.775C38.3305 20.7714 39.0501 21.4855 39.0536 22.37C39.0566 23.1042 38.565 23.7251 37.892 23.9167L37.935 34.5936L43.1322 31.4471L43.0889 20.674C42.4146 20.4875 41.9183 19.8709 41.9153 19.1367C41.9117 18.2522 42.6256 17.5324 43.5098 17.5288C44.394 17.5252 45.1136 18.2393 45.1172 19.1238C45.1201 19.8581 44.6286 20.4789 43.9557 20.6705L44.001 31.9208L44.0008 31.9347L28.1935 41.4919L23.7479 44.1797L28.1413 46.8238H28.1834L49.3987 34.0772V11.5855L31.4086 0.132072L31.3995 24.1809L28.1157 24.1745L24.7655 24.1742L24.7676 0.1458Z" fill="url(#paint0_linear_186_202)"/>
<path fill-rule="evenodd" clip-rule="evenodd" d="M55.9913 39.8005L56.0067 48.5961L28.1671 66.5753L0.322266 48.6223L0.324884 39.833L28.1629 56.0248L55.9913 39.8005Z" fill="url(#paint1_linear_186_202)"/>
<path fill-rule="evenodd" clip-rule="evenodd" d="M56.0005 35.7605L56.002 39.8006L49.3984 43.6441V39.995L56.0005 35.7605Z" fill="white"/>
<path fill-rule="evenodd" clip-rule="evenodd" d="M0.322876 35.7601L0.325174 39.833L6.92731 43.6731L6.92737 39.9909L0.322876 35.7601Z" fill="white"/>
<path d="M63.5112 53.1503C63.3235 53.1503 63.164 53.0846 63.0326 52.9531C62.9012 52.8217 62.8356 52.6621 62.8356 52.4744V14.3974C62.8356 14.2096 62.9012 14.05 63.0326 13.9186C63.164 13.7872 63.3235 13.7214 63.5112 13.7214H70.0993C70.287 13.7214 70.4465 13.7872 70.5779 13.9186C70.7093 14.05 70.775 14.2096 70.775 14.3974V52.4744C70.775 52.6621 70.7093 52.8217 70.5779 52.9531C70.4465 53.0846 70.287 53.1503 70.0993 53.1503H63.5112Z" fill="#FEFEFE"/>
<path d="M93.8048 14.1721C93.9549 13.8717 94.2365 13.7214 94.6495 13.7214H101.181C101.369 13.7214 101.528 13.7872 101.66 13.9186C101.791 14.05 101.857 14.2096 101.857 14.3974V52.4744C101.857 52.6621 101.791 52.8217 101.66 52.9531C101.528 53.0846 101.369 53.1503 101.181 53.1503H94.5932C94.4054 53.1503 94.2459 53.0846 94.1145 52.9531C93.9831 52.8217 93.9175 52.6621 93.9175 52.4744V27.1836C93.9175 27.0334 93.8799 26.9583 93.8048 26.9583C93.7298 26.9583 93.6547 27.0146 93.5796 27.1273L89.1875 34.9004C88.9998 35.2008 88.8497 35.351 88.7371 35.351C88.6245 35.351 88.4743 35.2008 88.2866 34.9004L83.8946 27.1273C83.8195 27.0146 83.7445 26.9583 83.6694 26.9583C83.5943 26.9583 83.5568 27.0334 83.5568 27.1836V52.4744C83.5568 52.6621 83.4911 52.8217 83.3597 52.9531C83.2283 53.0846 83.0687 53.1503 82.881 53.1503H76.293C76.1053 53.1503 75.9457 53.0846 75.8144 52.9531C75.683 52.8217 75.6173 52.6621 75.6173 52.4744V14.3974C75.6173 14.2096 75.683 14.05 75.8144 13.9186C75.9457 13.7872 76.1053 13.7214 76.293 13.7214H82.7685C83.1438 13.7214 83.4254 13.8717 83.6131 14.1721L88.6245 23.1281C88.7371 23.2783 88.8497 23.2783 88.9623 23.1281L93.8048 14.1721ZM118.637 13.6651C120.701 13.6651 122.541 14.1721 124.155 15.186C125.769 16.1999 127.017 17.6174 127.899 19.4387C128.782 21.2599 129.223 23.3346 129.223 25.6627C129.223 29.155 128.284 31.9526 126.407 34.0555C124.53 36.1583 122.072 37.2098 119.031 37.2098H114.808C114.62 37.2098 114.526 37.3037 114.526 37.4914V52.4744C114.526 52.6621 114.461 52.8217 114.329 52.9531C114.198 53.0846 114.038 53.1503 113.85 53.1503H107.262C107.075 53.1503 106.915 53.0846 106.784 52.9531C106.652 52.8217 106.587 52.6621 106.587 52.4744V14.3411C106.587 14.1533 106.652 13.9937 106.784 13.8623C106.915 13.7308 107.075 13.6651 107.262 13.6651H118.637ZM117.285 31.0138C118.487 31.0138 119.453 30.5538 120.185 29.6338C120.917 28.7138 121.283 27.4465 121.283 25.8317C121.283 24.1795 120.917 22.884 120.185 21.9452C119.453 21.0064 118.487 20.537 117.285 20.537H114.808C114.62 20.537 114.526 20.6309 114.526 20.8186V30.7322C114.526 30.9199 114.62 31.0138 114.808 31.0138H117.285ZM154.674 13.7214C154.862 13.7214 155.021 13.7872 155.153 13.9186C155.284 14.05 155.35 14.2096 155.35 14.3974V19.8611C155.35 20.0489 155.284 20.2085 155.153 20.3399C155.021 20.4713 154.862 20.537 154.674 20.537H147.635C147.448 20.537 147.354 20.6309 147.354 20.8186V52.4744C147.354 52.6621 147.288 52.8217 147.157 52.9531C147.025 53.0846 146.866 53.1503 146.678 53.1503H140.09C139.902 53.1503 139.743 53.0846 139.612 52.9531C139.48 52.8217 139.414 52.6621 139.414 52.4744V20.8186C139.414 20.6309 139.321 20.537 139.133 20.537H132.376C132.188 20.537 132.029 20.4713 131.897 20.3399C131.766 20.2085 131.7 20.0489 131.7 19.8611V14.3974C131.7 14.2096 131.766 14.05 131.897 13.9186C132.029 13.7872 132.188 13.7214 132.376 13.7214H154.674ZM170.215 53.6009C166.837 53.6009 164.124 52.5401 162.078 50.4184C160.033 48.2968 159.01 45.4711 159.01 41.9412V14.3974C159.01 14.2096 159.075 14.05 159.207 13.9186C159.338 13.7872 159.498 13.7214 159.685 13.7214H166.273C166.461 13.7214 166.621 13.7872 166.752 13.9186C166.883 14.05 166.949 14.2096 166.949 14.3974V42.7298C166.949 43.9314 167.249 44.9078 167.85 45.6588C168.451 46.4099 169.239 46.7853 170.215 46.7853C171.191 46.7853 171.97 46.4099 172.552 45.6588C173.134 44.9078 173.425 43.9314 173.425 42.7298V14.3974C173.425 14.2096 173.49 14.05 173.622 13.9186C173.753 13.7872 173.913 13.7214 174.1 13.7214H180.688C180.876 13.7214 181.036 13.7872 181.167 13.9186C181.298 14.05 181.364 14.2096 181.364 14.3974V41.9412C181.364 45.4711 180.341 48.2968 178.295 50.4184C176.249 52.5401 173.556 53.6009 170.215 53.6009ZM196.286 53.6009C194.108 53.6009 192.194 53.1691 190.542 52.3054C188.891 51.4417 187.614 50.2307 186.713 48.6723C185.812 47.1139 185.362 45.3209 185.362 43.2931V41.6596C185.362 41.4719 185.428 41.3123 185.559 41.1808C185.69 41.0494 185.85 40.9837 186.038 40.9837H192.513C192.701 40.9837 192.86 41.0494 192.992 41.1808C193.123 41.3123 193.189 41.4719 193.189 41.6596V42.8988C193.189 44.0629 193.489 45.0017 194.09 45.7151C194.69 46.4286 195.441 46.7853 196.342 46.7853C197.243 46.7853 197.994 46.4474 198.594 45.7714C199.195 45.0955 199.495 44.2131 199.495 43.1241C199.495 41.9976 199.12 41.0306 198.369 40.2233C197.618 39.4159 196.154 38.2237 193.977 36.6465C192.1 35.2947 190.58 34.093 189.416 33.0416C188.252 31.9901 187.258 30.6946 186.432 29.155C185.606 27.6154 185.193 25.8317 185.193 23.804C185.193 20.6121 186.188 18.0586 188.177 16.1435C190.167 14.2284 192.795 13.2709 196.06 13.2709C199.364 13.2709 202.02 14.266 204.028 16.2562C206.036 18.2464 207.041 20.8562 207.041 24.0856V25.4375C207.041 25.6252 206.975 25.7848 206.843 25.9162C206.712 26.0477 206.553 26.1134 206.365 26.1134H199.889C199.702 26.1134 199.542 26.0477 199.411 25.9162C199.279 25.7848 199.214 25.6252 199.214 25.4375V23.9166C199.214 22.7525 198.923 21.8231 198.341 21.1285C197.759 20.4338 196.999 20.0864 196.06 20.0864C195.16 20.0864 194.428 20.415 193.864 21.0721C193.301 21.7293 193.02 22.6399 193.02 23.804C193.02 24.9305 193.376 25.9256 194.09 26.7893C194.803 27.653 196.211 28.8546 198.313 30.3942C200.64 32.1216 202.395 33.5204 203.578 34.5905C204.76 35.6608 205.68 36.8436 206.337 38.1392C206.994 39.4347 207.322 40.9837 207.322 42.7861C207.322 46.0906 206.309 48.7192 204.281 50.6719C202.254 52.6246 199.589 53.6009 196.286 53.6009Z" fill="#199CC0"/>
<path d="M64.1932 66.1836C63.7848 66.1836 63.4584 66.0472 63.214 65.7742C62.9695 65.5013 62.8474 65.1369 62.8474 64.6808C62.8474 64.6117 62.8541 64.5081 62.8675 64.3699L62.8876 64.1523C62.9009 64.0832 62.9378 64.0486 62.998 64.0486H63.3094C63.3429 64.0486 63.3679 64.059 63.3847 64.0797C63.4015 64.1004 63.4064 64.1246 63.3997 64.1523L63.3696 64.3492C63.363 64.4045 63.3596 64.4839 63.3596 64.5875C63.3596 64.933 63.44 65.206 63.6007 65.4063C63.7613 65.6067 63.9756 65.7069 64.2435 65.7069C64.4644 65.7069 64.6685 65.643 64.8561 65.5151C65.0435 65.3873 65.1925 65.206 65.303 64.9711C65.4134 64.7361 65.4687 64.4735 65.4687 64.1834C65.4687 63.9761 65.4285 63.7912 65.3482 63.6289C65.2678 63.4665 65.1674 63.3249 65.0469 63.2039C64.9264 63.083 64.7288 62.8982 64.4543 62.6494C64.1798 62.4076 63.9672 62.2073 63.8166 62.0483C63.666 61.8894 63.5421 61.7046 63.4449 61.4938C63.3479 61.2831 63.2993 61.043 63.2993 60.7735C63.2993 60.7113 63.3061 60.6112 63.3194 60.473C63.3864 59.941 63.5772 59.523 63.8919 59.2189C64.2066 58.9149 64.5849 58.7629 65.0268 58.7629C65.4486 58.7629 65.7817 58.8994 66.0261 59.1723C66.2705 59.4452 66.3926 59.8166 66.3926 60.2864C66.3926 60.3486 66.386 60.4557 66.3726 60.6077L66.3424 60.8669C66.329 60.9359 66.2922 60.9704 66.232 60.9704H65.9106C65.8503 60.9704 65.8202 60.9359 65.8202 60.8669L65.8503 60.6077C65.8637 60.4833 65.8704 60.3935 65.8704 60.3382C65.8704 60.0066 65.7901 59.7406 65.6294 59.5402C65.4687 59.3399 65.2477 59.2396 64.9666 59.2396C64.6786 59.2396 64.4275 59.3485 64.2133 59.5661C63.9991 59.7838 63.8684 60.0895 63.8216 60.4833C63.8149 60.5317 63.8116 60.6008 63.8116 60.6906C63.8116 60.967 63.8819 61.2037 64.0224 61.4006C64.163 61.5975 64.4209 61.8583 64.7958 62.1831C65.1105 62.4594 65.3465 62.6823 65.5038 62.8516C65.6612 63.0208 65.7833 63.1988 65.8704 63.3853C65.9575 63.5719 66.0009 63.7895 66.0009 64.0383C66.0009 64.0935 65.9943 64.1903 65.9809 64.3284C65.9139 64.8951 65.7164 65.3459 65.3883 65.681C65.0602 66.0161 64.6618 66.1836 64.1932 66.1836ZM69.9379 63.5822C69.9244 63.6513 69.8876 63.6859 69.8274 63.6859H67.5878C67.5676 63.6859 67.551 63.6997 67.5375 63.7273L67.4371 64.6083C67.4304 64.6497 67.4271 64.7119 67.4271 64.7948C67.4271 65.0643 67.499 65.282 67.643 65.4478C67.7869 65.6136 67.9828 65.6965 68.2305 65.6965C68.4582 65.6965 68.6624 65.624 68.8432 65.4789C69.024 65.3338 69.1545 65.1437 69.2348 64.9088C69.2683 64.8466 69.3085 64.8156 69.3554 64.8156L69.6567 64.8363C69.6835 64.8363 69.7052 64.8432 69.7219 64.8571C69.7386 64.8708 69.7437 64.8916 69.737 64.9192C69.737 64.94 69.7337 64.9537 69.727 64.9606C69.6198 65.3407 69.4291 65.6395 69.1545 65.8571C68.88 66.0748 68.5553 66.1836 68.1803 66.1836C67.7853 66.1836 67.4723 66.0662 67.2413 65.8313C67.0103 65.5963 66.8948 65.282 66.8948 64.8881C66.8948 64.8328 66.9015 64.7499 66.9149 64.6394L67.186 62.3489C67.2396 61.8929 67.417 61.5198 67.7183 61.2295C68.0197 60.9394 68.3845 60.7943 68.8131 60.7943C69.2081 60.7943 69.5211 60.9135 69.7521 61.1518C69.983 61.3902 70.0985 61.7063 70.0985 62.1002C70.0985 62.1554 70.0918 62.2383 70.0785 62.3489L69.9379 63.5822ZM68.7628 61.2814C68.4883 61.2814 68.2523 61.3833 68.0548 61.5871C67.8572 61.7909 67.7384 62.0552 67.6983 62.38L67.6078 63.1677C67.6078 63.1815 67.6112 63.1919 67.6179 63.1988C67.6246 63.2056 67.6313 63.2091 67.638 63.2091H69.4257C69.4524 63.2091 69.4658 63.1953 69.4658 63.1677L69.5663 62.38C69.573 62.3385 69.5764 62.2798 69.5764 62.2038C69.5764 61.9205 69.5027 61.696 69.3554 61.5301C69.2081 61.3643 69.0106 61.2814 68.7628 61.2814ZM73.6137 60.9809C73.6271 60.9118 73.6639 60.8772 73.7241 60.8772H74.0455C74.1057 60.8772 74.1359 60.9118 74.1359 60.9809L73.5334 65.9971C73.5334 66.0247 73.5233 66.0489 73.5032 66.0696C73.4831 66.0904 73.4563 66.1007 73.4228 66.1007H73.1015C73.0747 66.1007 73.0529 66.0904 73.0362 66.0696C73.0194 66.0489 73.0144 66.0247 73.0211 65.9971L73.0613 65.624C73.068 65.6033 73.0663 65.5911 73.0562 65.5877C73.0462 65.5842 73.0345 65.5894 73.0211 65.6033C72.7667 65.9833 72.4118 66.1733 71.9566 66.1733C71.6084 66.1733 71.3373 66.0731 71.1431 65.8727C70.9489 65.6724 70.8518 65.3753 70.8518 64.9814C70.8518 64.9192 70.8585 64.8121 70.8719 64.6601L71.3038 60.9809C71.3105 60.9532 71.3238 60.929 71.3439 60.9083C71.364 60.8875 71.3875 60.8772 71.4142 60.8772H71.7356C71.7691 60.8772 71.7942 60.8875 71.8109 60.9083C71.8277 60.929 71.8326 60.9532 71.8259 60.9809L71.4042 64.5357C71.3908 64.6601 71.3841 64.7499 71.3841 64.8052C71.3841 65.0954 71.4494 65.3148 71.5799 65.4633C71.7105 65.6119 71.8963 65.6862 72.1373 65.6862C72.4253 65.6862 72.6629 65.5756 72.8504 65.3545C73.0379 65.1334 73.155 64.8294 73.2019 64.4425L73.6137 60.9809ZM76.8074 66.1007C76.7807 66.1007 76.7589 66.0904 76.7422 66.0696C76.7254 66.0489 76.7204 66.0247 76.727 65.9971L77.5606 58.9494C77.5674 58.9218 77.5808 58.8977 77.6009 58.8769C77.6209 58.8562 77.6444 58.8458 77.6712 58.8458H77.9925C78.026 58.8458 78.0511 58.8562 78.0679 58.8769C78.0846 58.8977 78.0896 58.9218 78.0829 58.9494L77.2393 65.9971C77.2393 66.0247 77.2293 66.0489 77.2092 66.0696C77.189 66.0904 77.1623 66.1007 77.1288 66.1007H76.8074ZM79.5593 59.8304C79.4321 59.8304 79.3282 59.789 79.2479 59.706C79.1676 59.6231 79.1275 59.5125 79.1275 59.3744C79.1275 59.2085 79.181 59.0703 79.2881 58.9598C79.3952 58.8492 79.5258 58.794 79.6798 58.794C79.807 58.794 79.9108 58.8337 79.9912 58.9132C80.0715 58.9926 80.1116 59.098 80.1116 59.2293C80.1116 59.402 80.0581 59.5454 79.951 59.6594C79.8439 59.7734 79.7132 59.8304 79.5593 59.8304ZM78.6554 66.1007C78.5884 66.1007 78.5616 66.0662 78.5751 65.9971L79.1676 60.9809C79.181 60.9118 79.2178 60.8772 79.2781 60.8772H79.5995C79.6664 60.8772 79.6932 60.9118 79.6798 60.9809L79.0872 65.9971C79.0738 66.0662 79.037 66.1007 78.9768 66.1007H78.6554ZM84.9022 60.8046C85.2236 60.8046 85.473 60.9238 85.6504 61.1622C85.8278 61.4006 85.9165 61.7271 85.9165 62.1416C85.9165 62.2176 85.9099 62.3385 85.8965 62.5044L85.4746 65.9971C85.4746 66.0247 85.4646 66.0489 85.4445 66.0696C85.4245 66.0904 85.401 66.1007 85.3742 66.1007H85.0428C85.0161 66.1007 84.9943 66.0904 84.9775 66.0696C84.9608 66.0489 84.9558 66.0247 84.9625 65.9971L85.3742 62.5562C85.3876 62.4318 85.3943 62.3385 85.3943 62.2763C85.3943 61.9654 85.3307 61.7236 85.2035 61.5509C85.0763 61.3781 84.9022 61.2918 84.6812 61.2918C84.4068 61.2918 84.1774 61.4023 83.9933 61.6234C83.8092 61.8445 83.6937 62.1485 83.6468 62.5354L83.235 65.9971C83.235 66.0247 83.225 66.0489 83.2049 66.0696C83.1848 66.0904 83.158 66.1007 83.1246 66.1007H82.8032C82.7764 66.1007 82.7546 66.0904 82.7379 66.0696C82.7212 66.0489 82.7161 66.0247 82.7228 65.9971L83.1346 62.5562C83.148 62.4318 83.1547 62.342 83.1547 62.2867C83.1547 61.9758 83.0911 61.7322 82.9639 61.556C82.8367 61.3798 82.6626 61.2918 82.4416 61.2918C82.1671 61.2918 81.9361 61.4023 81.7486 61.6234C81.5612 61.8445 81.444 62.1485 81.3972 62.5354L80.9854 65.9971C80.9854 66.0247 80.9753 66.0489 80.9552 66.0696C80.9352 66.0904 80.9084 66.1007 80.8749 66.1007H80.5635C80.4966 66.1007 80.4699 66.0662 80.4832 65.9971L81.0758 60.9809C81.0892 60.9118 81.126 60.8772 81.1863 60.8772H81.4976C81.5579 60.8772 81.588 60.9118 81.588 60.9809L81.5377 61.3643C81.5377 61.3851 81.5427 61.3971 81.5528 61.4006C81.5628 61.404 81.5746 61.3954 81.588 61.3747C81.7286 61.1881 81.8926 61.0464 82.08 60.9497C82.2675 60.853 82.4617 60.8046 82.6626 60.8046C82.9036 60.8046 83.1062 60.8737 83.2702 61.012C83.4343 61.1501 83.5531 61.347 83.6267 61.6027C83.6267 61.6372 83.6435 61.6303 83.6769 61.582C83.8175 61.3263 83.9966 61.1329 84.2142 61.0015C84.4319 60.8703 84.6612 60.8046 84.9022 60.8046ZM87.8047 59.8304C87.6775 59.8304 87.5737 59.789 87.4933 59.706C87.413 59.6231 87.3728 59.5125 87.3728 59.3744C87.3728 59.2085 87.4264 59.0703 87.5335 58.9598C87.6406 58.8492 87.7712 58.794 87.9252 58.794C88.0525 58.794 88.1562 58.8337 88.2366 58.9132C88.3169 58.9926 88.3571 59.098 88.3571 59.2293C88.3571 59.402 88.3035 59.5454 88.1964 59.6594C88.0893 59.7734 87.9587 59.8304 87.8047 59.8304ZM86.9008 66.1007C86.8339 66.1007 86.807 66.0662 86.8205 65.9971L87.413 60.9809C87.4264 60.9118 87.4632 60.8772 87.5235 60.8772H87.8448C87.9118 60.8772 87.9386 60.9118 87.9252 60.9809L87.3327 65.9971C87.3193 66.0662 87.2824 66.1007 87.2222 66.1007H86.9008ZM90.8879 61.2089C90.8745 61.278 90.8377 61.3125 90.7775 61.3125H89.9941C89.9673 61.3125 89.9539 61.3263 89.9539 61.354L89.5522 64.6912C89.5387 64.8294 89.5321 64.9192 89.5321 64.9606C89.5321 65.2025 89.5807 65.3718 89.6777 65.4685C89.7748 65.5653 89.9271 65.6136 90.1347 65.6136H90.2352C90.3021 65.6136 90.3288 65.6482 90.3155 65.7173L90.2853 65.9971C90.2719 66.0662 90.2352 66.1007 90.1748 66.1007H89.9841C89.6627 66.1007 89.4199 66.0334 89.256 65.8987C89.0919 65.7639 89.0098 65.5169 89.0098 65.1576C89.0098 65.1023 89.0166 64.9917 89.0299 64.8259L89.4418 61.354C89.4484 61.347 89.4484 61.3384 89.4418 61.328C89.4351 61.3177 89.425 61.3125 89.4116 61.3125H89.0098C88.9429 61.3125 88.9161 61.278 88.9295 61.2089L88.9496 60.9809C88.963 60.9118 88.9998 60.8772 89.0601 60.8772H89.4618C89.4886 60.8772 89.502 60.8634 89.502 60.8357L89.6425 59.675C89.656 59.6059 89.6928 59.5713 89.753 59.5713H90.0644C90.1246 59.5713 90.1548 59.6059 90.1548 59.675L90.0142 60.8357C90.0142 60.8634 90.0242 60.8772 90.0443 60.8772H90.8277C90.8946 60.8772 90.9214 60.9118 90.908 60.9809L90.8879 61.2089ZM94.3327 63.5822C94.3193 63.6513 94.2825 63.6859 94.2223 63.6859H91.9826C91.9625 63.6859 91.9458 63.6997 91.9324 63.7273L91.832 64.6083C91.8252 64.6497 91.8219 64.7119 91.8219 64.7948C91.8219 65.0643 91.8939 65.282 92.0378 65.4478C92.1818 65.6136 92.3777 65.6965 92.6254 65.6965C92.853 65.6965 93.0573 65.624 93.238 65.4789C93.4188 65.3338 93.5493 65.1437 93.6296 64.9088C93.6632 64.8466 93.7033 64.8156 93.7502 64.8156L94.0515 64.8363C94.0783 64.8363 94.1001 64.8432 94.1168 64.8571C94.1335 64.8708 94.1385 64.8916 94.1318 64.9192C94.1318 64.94 94.1285 64.9537 94.1218 64.9606C94.0147 65.3407 93.8239 65.6395 93.5493 65.8571C93.2749 66.0748 92.9501 66.1836 92.5752 66.1836C92.1801 66.1836 91.8671 66.0662 91.6361 65.8313C91.4051 65.5963 91.2896 65.282 91.2896 64.8881C91.2896 64.8328 91.2963 64.7499 91.3097 64.6394L91.5809 62.3489C91.6345 61.8929 91.8119 61.5198 92.1132 61.2295C92.4145 60.9394 92.7794 60.7943 93.2079 60.7943C93.6029 60.7943 93.9159 60.9135 94.1469 61.1518C94.3779 61.3902 94.4934 61.7063 94.4934 62.1002C94.4934 62.1554 94.4867 62.2383 94.4734 62.3489L94.3327 63.5822ZM93.1576 61.2814C92.8832 61.2814 92.6471 61.3833 92.4496 61.5871C92.2521 61.7909 92.1333 62.0552 92.0931 62.38L92.0027 63.1677C92.0027 63.1815 92.006 63.1919 92.0128 63.1988C92.0195 63.2056 92.0262 63.2091 92.0328 63.2091H93.8205C93.8473 63.2091 93.8607 63.1953 93.8607 63.1677L93.9611 62.38C93.9678 62.3385 93.9712 62.2798 93.9712 62.2038C93.9712 61.9205 93.8975 61.696 93.7502 61.5301C93.603 61.3643 93.4054 61.2814 93.1576 61.2814ZM100.178 63.5822C100.164 63.6513 100.128 63.6859 100.067 63.6859H97.8277C97.8076 63.6859 97.791 63.6997 97.7775 63.7273L97.6771 64.6083C97.6704 64.6497 97.667 64.7119 97.667 64.7948C97.667 65.0643 97.739 65.282 97.883 65.4478C98.0269 65.6136 98.2228 65.6965 98.4705 65.6965C98.6982 65.6965 98.9024 65.624 99.0832 65.4789C99.2639 65.3338 99.3945 65.1437 99.4748 64.9088C99.5083 64.8466 99.5484 64.8156 99.5954 64.8156L99.8967 64.8363C99.9235 64.8363 99.9452 64.8432 99.962 64.8571C99.9786 64.8708 99.9837 64.8916 99.977 64.9192C99.977 64.94 99.9736 64.9537 99.9669 64.9606C99.8598 65.3407 99.669 65.6395 99.3945 65.8571C99.12 66.0748 98.7952 66.1836 98.4203 66.1836C98.0253 66.1836 97.7123 66.0662 97.4812 65.8313C97.2503 65.5963 97.1348 65.282 97.1348 64.8881C97.1348 64.8328 97.1415 64.7499 97.1549 64.6394L97.426 62.3489C97.4796 61.8929 97.657 61.5198 97.9583 61.2295C98.2597 60.9394 98.6245 60.7943 99.0531 60.7943C99.4481 60.7943 99.7611 60.9135 99.9921 61.1518C100.223 61.3902 100.339 61.7063 100.339 62.1002C100.339 62.1554 100.332 62.2383 100.318 62.3489L100.178 63.5822ZM99.0028 61.2814C98.7283 61.2814 98.4922 61.3833 98.2948 61.5871C98.0972 61.7909 97.9784 62.0552 97.9383 62.38L97.8478 63.1677C97.8478 63.1815 97.8512 63.1919 97.8579 63.1988C97.8646 63.2056 97.8713 63.2091 97.878 63.2091H99.6657C99.6924 63.2091 99.7058 63.1953 99.7058 63.1677L99.8063 62.38C99.8129 62.3385 99.8163 62.2798 99.8163 62.2038C99.8163 61.9205 99.7427 61.696 99.5954 61.5301C99.4481 61.3643 99.2505 61.2814 99.0028 61.2814ZM98.822 60.1828C98.7818 60.1828 98.7568 60.1707 98.7467 60.1465C98.7366 60.1224 98.745 60.093 98.7718 60.0584L99.515 58.9183C99.5484 58.87 99.5887 58.8458 99.6355 58.8458H99.8967C99.9368 58.8458 99.962 58.8579 99.972 58.8821C99.982 58.9063 99.977 58.9356 99.9569 58.9702L99.1434 60.1102C99.1099 60.1586 99.0697 60.1828 99.0229 60.1828H98.822ZM105.169 60.8046C105.511 60.8046 105.774 60.9152 105.958 61.1363C106.142 61.3574 106.234 61.6683 106.234 62.0691C106.234 62.1382 106.227 62.2556 106.214 62.4214L105.792 65.9971C105.779 66.0662 105.742 66.1007 105.682 66.1007H105.36C105.293 66.1007 105.266 66.0662 105.28 65.9971L105.692 62.4733C105.705 62.3489 105.712 62.2591 105.712 62.2038C105.712 61.9136 105.646 61.6891 105.516 61.5301C105.385 61.3712 105.196 61.2918 104.948 61.2918C104.667 61.2918 104.431 61.4023 104.24 61.6234C104.049 61.8445 103.931 62.1485 103.884 62.5354L103.472 65.9971C103.459 66.0662 103.422 66.1007 103.362 66.1007H103.04C102.973 66.1007 102.946 66.0662 102.96 65.9971L103.552 60.9809C103.566 60.9118 103.603 60.8772 103.663 60.8772H103.984C104.045 60.8772 104.075 60.9118 104.075 60.9809L104.024 61.3747C104.018 61.3954 104.021 61.4058 104.034 61.4058C104.048 61.4058 104.061 61.3989 104.075 61.3851C104.342 60.9981 104.707 60.8046 105.169 60.8046ZM108.343 66.1836C107.948 66.1836 107.635 66.0645 107.404 65.8261C107.173 65.5877 107.058 65.2716 107.058 64.8777C107.058 64.8225 107.064 64.7395 107.078 64.629L107.349 62.3489C107.402 61.8929 107.58 61.5198 107.881 61.2295C108.182 60.9394 108.547 60.7943 108.976 60.7943C109.377 60.7943 109.694 60.9135 109.925 61.1518C110.156 61.3902 110.271 61.7063 110.271 62.1002C110.271 62.1554 110.265 62.2383 110.251 62.3489L109.98 64.629C109.926 65.0919 109.751 65.4668 109.453 65.7535C109.155 66.0402 108.785 66.1836 108.343 66.1836ZM108.393 65.6965C108.674 65.6965 108.915 65.5946 109.116 65.3908C109.317 65.1869 109.434 64.9261 109.468 64.6083L109.739 62.38C109.746 62.3385 109.749 62.2833 109.749 62.2142C109.749 61.9309 109.674 61.7046 109.523 61.5353C109.372 61.366 109.173 61.2814 108.925 61.2814C108.651 61.2814 108.415 61.3833 108.217 61.5871C108.02 61.7909 107.901 62.0552 107.861 62.38L107.6 64.6083C107.593 64.6497 107.59 64.7119 107.59 64.7948C107.59 65.0643 107.662 65.282 107.806 65.4478C107.95 65.6136 108.146 65.6965 108.393 65.6965ZM112.18 66.1525C111.791 66.1525 111.485 66.0472 111.261 65.8364C111.036 65.6257 110.924 65.3511 110.924 65.0125C110.924 64.9365 110.927 64.8777 110.934 64.8363L110.944 64.7741C110.958 64.705 110.994 64.6705 111.055 64.6705H111.356C111.423 64.6705 111.45 64.705 111.436 64.7741V64.8363L111.426 64.9503C111.426 65.1714 111.5 65.3528 111.647 65.4944C111.795 65.6361 111.992 65.7069 112.24 65.7069C112.501 65.7069 112.72 65.6222 112.898 65.453C113.075 65.2837 113.18 65.0643 113.214 64.7948L113.224 64.6705C113.224 64.4977 113.184 64.3544 113.103 64.2404C113.023 64.1264 112.924 64.0348 112.807 63.9657C112.69 63.8966 112.524 63.8103 112.31 63.7066C111.975 63.5546 111.718 63.3905 111.537 63.2143C111.356 63.0381 111.266 62.7773 111.266 62.4318C111.266 61.9551 111.409 61.5698 111.697 61.2762C111.985 60.9826 112.35 60.8357 112.792 60.8357C113.174 60.8357 113.472 60.9429 113.686 61.157C113.9 61.3712 114.007 61.658 114.007 62.0172C114.007 62.1002 114.004 62.1658 113.997 62.2142L113.987 62.2453C113.987 62.2729 113.977 62.2971 113.957 62.3178C113.937 62.3385 113.914 62.3489 113.887 62.3489H113.586C113.559 62.3489 113.537 62.3385 113.52 62.3178C113.503 62.2971 113.498 62.2729 113.505 62.2453L113.515 62.1934C113.542 61.9378 113.483 61.7236 113.339 61.5509C113.196 61.3781 112.996 61.2918 112.742 61.2918C112.461 61.2918 112.228 61.3902 112.044 61.5871C111.86 61.784 111.768 62.0311 111.768 62.3282C111.768 62.5562 111.836 62.7307 111.974 62.8516C112.111 62.9725 112.327 63.1055 112.621 63.2506C112.856 63.3612 113.047 63.463 113.194 63.5563C113.341 63.6496 113.468 63.7792 113.575 63.945C113.683 64.1108 113.736 64.3146 113.736 64.5565C113.736 65.0332 113.592 65.4184 113.304 65.7121C113.016 66.0057 112.641 66.1525 112.18 66.1525ZM115.443 66.1525C115.055 66.1525 114.749 66.0472 114.525 65.8364C114.3 65.6257 114.188 65.3511 114.188 65.0125C114.188 64.9365 114.191 64.8777 114.198 64.8363L114.208 64.7741C114.222 64.705 114.258 64.6705 114.319 64.6705H114.62C114.687 64.6705 114.714 64.705 114.7 64.7741V64.8363L114.69 64.9503C114.69 65.1714 114.764 65.3528 114.911 65.4944C115.059 65.6361 115.256 65.7069 115.504 65.7069C115.765 65.7069 115.984 65.6222 116.162 65.453C116.339 65.2837 116.444 65.0643 116.478 64.7948L116.488 64.6705C116.488 64.4977 116.448 64.3544 116.367 64.2404C116.287 64.1264 116.188 64.0348 116.071 63.9657C115.954 63.8966 115.788 63.8103 115.574 63.7066C115.239 63.5546 114.981 63.3905 114.801 63.2143C114.62 63.0381 114.53 62.7773 114.53 62.4318C114.53 61.9551 114.674 61.5698 114.961 61.2762C115.249 60.9826 115.614 60.8357 116.056 60.8357C116.438 60.8357 116.736 60.9429 116.95 61.157C117.164 61.3712 117.271 61.658 117.271 62.0172C117.271 62.1002 117.268 62.1658 117.261 62.2142L117.251 62.2453C117.251 62.2729 117.241 62.2971 117.221 62.3178C117.201 62.3385 117.178 62.3489 117.151 62.3489H116.85C116.823 62.3489 116.801 62.3385 116.784 62.3178C116.768 62.2971 116.762 62.2729 116.769 62.2453L116.779 62.1934C116.806 61.9378 116.747 61.7236 116.603 61.5509C116.46 61.3781 116.26 61.2918 116.006 61.2918C115.725 61.2918 115.492 61.3902 115.308 61.5871C115.124 61.784 115.032 62.0311 115.032 62.3282C115.032 62.5562 115.1 62.7307 115.238 62.8516C115.375 62.9725 115.591 63.1055 115.885 63.2506C116.12 63.3612 116.311 63.463 116.458 63.5563C116.605 63.6496 116.732 63.7792 116.839 63.945C116.947 64.1108 117 64.3146 117 64.5565C117 65.0332 116.856 65.4184 116.568 65.7121C116.28 66.0057 115.905 66.1525 115.443 66.1525ZM119.119 66.1836C118.724 66.1836 118.411 66.0645 118.18 65.8261C117.949 65.5877 117.834 65.2716 117.834 64.8777C117.834 64.8225 117.84 64.7395 117.854 64.629L118.125 62.3489C118.179 61.8929 118.356 61.5198 118.657 61.2295C118.959 60.9394 119.324 60.7943 119.752 60.7943C120.154 60.7943 120.47 60.9135 120.701 61.1518C120.932 61.3902 121.048 61.7063 121.048 62.1002C121.048 62.1554 121.041 62.2383 121.027 62.3489L120.756 64.629C120.703 65.0919 120.527 65.4668 120.229 65.7535C119.931 66.0402 119.561 66.1836 119.119 66.1836ZM119.17 65.6965C119.451 65.6965 119.692 65.5946 119.893 65.3908C120.093 65.1869 120.211 64.9261 120.244 64.6083L120.515 62.38C120.522 62.3385 120.525 62.2833 120.525 62.2142C120.525 61.9309 120.45 61.7046 120.299 61.5353C120.149 61.366 119.95 61.2814 119.702 61.2814C119.427 61.2814 119.191 61.3833 118.994 61.5871C118.796 61.7909 118.677 62.0552 118.637 62.38L118.376 64.6083C118.369 64.6497 118.366 64.7119 118.366 64.7948C118.366 65.0643 118.438 65.282 118.582 65.4478C118.726 65.6136 118.922 65.6965 119.17 65.6965ZM125.949 60.7943C126.31 60.7943 126.595 60.9117 126.802 61.1466C127.01 61.3815 127.114 61.6925 127.114 62.0794C127.114 62.1347 127.107 62.2245 127.094 62.3489L126.822 64.629C126.769 65.0919 126.602 65.4668 126.32 65.7535C126.039 66.0402 125.701 66.1836 125.306 66.1836C125.112 66.1836 124.934 66.1422 124.774 66.0593C124.613 65.9764 124.482 65.8554 124.382 65.6965C124.362 65.662 124.345 65.6654 124.332 65.7069L124.061 68.0285C124.047 68.0976 124.01 68.1321 123.95 68.1321H123.629C123.562 68.1321 123.535 68.0976 123.548 68.0285L124.382 60.9809C124.395 60.9118 124.432 60.8772 124.492 60.8772H124.814C124.881 60.8772 124.908 60.9118 124.894 60.9809L124.864 61.271C124.864 61.2849 124.869 61.2935 124.879 61.2969C124.889 61.3004 124.901 61.2952 124.914 61.2814C125.048 61.1225 125.204 61.0015 125.381 60.9186C125.559 60.8357 125.748 60.7943 125.949 60.7943ZM126.581 62.3696C126.588 62.3282 126.591 62.266 126.591 62.1831C126.591 61.9136 126.516 61.696 126.365 61.5301C126.215 61.3643 126.016 61.2814 125.768 61.2814C125.5 61.2814 125.271 61.3815 125.08 61.582C124.889 61.7823 124.774 62.0449 124.733 62.3696L124.472 64.6083C124.466 64.6497 124.462 64.7154 124.462 64.8052C124.462 65.0746 124.533 65.2906 124.673 65.453C124.814 65.6153 125.005 65.6965 125.246 65.6965C125.52 65.6965 125.758 65.5946 125.959 65.3908C126.16 65.1869 126.28 64.9261 126.32 64.6083L126.581 62.3696ZM129.966 60.8357C130.127 60.8357 130.264 60.8703 130.378 60.9394C130.418 60.9739 130.428 61.0189 130.408 61.0741L130.287 61.4265C130.261 61.4887 130.217 61.506 130.157 61.4783C130.063 61.4369 129.939 61.4196 129.785 61.4265C129.524 61.4334 129.296 61.5716 129.102 61.8411C128.908 62.1105 128.788 62.4422 128.741 62.836L128.359 65.9971C128.346 66.0662 128.309 66.1007 128.249 66.1007H127.927C127.86 66.1007 127.833 66.0662 127.847 65.9971L128.439 60.9809C128.453 60.9118 128.49 60.8772 128.55 60.8772H128.871C128.931 60.8772 128.962 60.9118 128.962 60.9809L128.881 61.6234C128.881 61.6718 128.898 61.6718 128.931 61.6234C129.052 61.3747 129.199 61.1812 129.373 61.043C129.547 60.9049 129.745 60.8357 129.966 60.8357ZM131.894 66.1836C131.499 66.1836 131.186 66.0645 130.955 65.8261C130.724 65.5877 130.609 65.2716 130.609 64.8777C130.609 64.8225 130.615 64.7395 130.629 64.629L130.9 62.3489C130.953 61.8929 131.131 61.5198 131.432 61.2295C131.734 60.9394 132.098 60.7943 132.527 60.7943C132.929 60.7943 133.245 60.9135 133.476 61.1518C133.707 61.3902 133.823 61.7063 133.823 62.1002C133.823 62.1554 133.816 62.2383 133.802 62.3489L133.531 64.629C133.478 65.0919 133.302 65.4668 133.004 65.7535C132.706 66.0402 132.336 66.1836 131.894 66.1836ZM131.944 65.6965C132.226 65.6965 132.467 65.5946 132.668 65.3908C132.868 65.1869 132.986 64.9261 133.019 64.6083L133.29 62.38C133.297 62.3385 133.3 62.2833 133.3 62.2142C133.3 61.9309 133.225 61.7046 133.074 61.5353C132.924 61.366 132.724 61.2814 132.477 61.2814C132.202 61.2814 131.966 61.3833 131.769 61.5871C131.571 61.7909 131.452 62.0552 131.412 62.38L131.151 64.6083C131.144 64.6497 131.141 64.7119 131.141 64.7948C131.141 65.0643 131.213 65.282 131.357 65.4478C131.501 65.6136 131.697 65.6965 131.944 65.6965ZM132.326 60.1828C132.286 60.1828 132.261 60.1707 132.251 60.1465C132.241 60.1224 132.249 60.093 132.276 60.0584L133.019 58.9183C133.053 58.87 133.093 58.8458 133.14 58.8458H133.401C133.441 58.8458 133.466 58.8579 133.476 58.8821C133.486 58.9063 133.481 58.9356 133.461 58.9702L132.647 60.1102C132.614 60.1586 132.574 60.1828 132.527 60.1828H132.326ZM134.144 66.1007C134.11 66.1007 134.089 66.0887 134.079 66.0644C134.069 66.0402 134.07 66.0109 134.084 65.9764L135.59 63.5201C135.603 63.4993 135.603 63.4786 135.59 63.4579L134.676 61.0015L134.666 60.9704C134.666 60.9083 134.7 60.8772 134.767 60.8772H135.128C135.195 60.8772 135.232 60.9014 135.239 60.9497L135.932 62.9604C135.938 62.9742 135.948 62.9811 135.962 62.9811C135.975 62.9811 135.985 62.9742 135.992 62.9604L137.167 60.9497C137.194 60.9014 137.237 60.8772 137.297 60.8772H137.659C137.692 60.8772 137.714 60.8893 137.724 60.9135C137.734 60.9377 137.729 60.967 137.709 61.0015L136.223 63.4579C136.203 63.4786 136.199 63.4993 136.213 63.5201L137.117 65.9764L137.127 66.0178C137.127 66.0731 137.097 66.1007 137.036 66.1007H136.675C136.608 66.1007 136.571 66.0765 136.564 66.0282L135.871 64.0175C135.865 64.0037 135.855 63.9968 135.841 63.9968C135.828 63.9968 135.818 64.0037 135.811 64.0175L134.636 66.0282C134.609 66.0765 134.569 66.1007 134.515 66.1007H134.144ZM139.075 59.8304C138.948 59.8304 138.844 59.789 138.764 59.706C138.683 59.6231 138.643 59.5125 138.643 59.3744C138.643 59.2085 138.697 59.0703 138.804 58.9598C138.911 58.8492 139.042 58.794 139.196 58.794C139.323 58.794 139.427 58.8337 139.507 58.9132C139.587 58.9926 139.627 59.098 139.627 59.2293C139.627 59.402 139.574 59.5454 139.467 59.6594C139.36 59.7734 139.229 59.8304 139.075 59.8304ZM138.171 66.1007C138.104 66.1007 138.077 66.0662 138.091 65.9971L138.683 60.9809C138.697 60.9118 138.734 60.8772 138.794 60.8772H139.115C139.182 60.8772 139.209 60.9118 139.196 60.9809L138.603 65.9971C138.59 66.0662 138.553 66.1007 138.493 66.1007H138.171ZM144.418 60.8046C144.739 60.8046 144.989 60.9238 145.166 61.1622C145.344 61.4006 145.432 61.7271 145.432 62.1416C145.432 62.2176 145.426 62.3385 145.412 62.5044L144.99 65.9971C144.99 66.0247 144.98 66.0489 144.96 66.0696C144.94 66.0904 144.917 66.1007 144.89 66.1007H144.559C144.532 66.1007 144.51 66.0904 144.493 66.0696C144.477 66.0489 144.472 66.0247 144.478 65.9971L144.89 62.5562C144.903 62.4318 144.91 62.3385 144.91 62.2763C144.91 61.9654 144.847 61.7236 144.719 61.5509C144.592 61.3781 144.418 61.2918 144.197 61.2918C143.923 61.2918 143.693 61.4023 143.509 61.6234C143.325 61.8445 143.21 62.1485 143.163 62.5354L142.751 65.9971C142.751 66.0247 142.741 66.0489 142.721 66.0696C142.701 66.0904 142.674 66.1007 142.64 66.1007H142.319C142.292 66.1007 142.27 66.0904 142.254 66.0696C142.237 66.0489 142.232 66.0247 142.239 65.9971L142.65 62.5562C142.664 62.4318 142.671 62.342 142.671 62.2867C142.671 61.9758 142.607 61.7322 142.48 61.556C142.352 61.3798 142.178 61.2918 141.957 61.2918C141.683 61.2918 141.452 61.4023 141.264 61.6234C141.077 61.8445 140.96 62.1485 140.913 62.5354L140.501 65.9971C140.501 66.0247 140.491 66.0489 140.471 66.0696C140.451 66.0904 140.424 66.1007 140.391 66.1007H140.079C140.012 66.1007 139.986 66.0662 139.999 65.9971L140.592 60.9809C140.605 60.9118 140.642 60.8772 140.702 60.8772H141.013C141.074 60.8772 141.104 60.9118 141.104 60.9809L141.054 61.3643C141.054 61.3851 141.059 61.3971 141.069 61.4006C141.079 61.404 141.09 61.3954 141.104 61.3747C141.244 61.1881 141.408 61.0464 141.596 60.9497C141.783 60.853 141.978 60.8046 142.178 60.8046C142.419 60.8046 142.622 60.8737 142.786 61.012C142.95 61.1501 143.069 61.347 143.143 61.6027C143.143 61.6372 143.159 61.6303 143.193 61.582C143.333 61.3263 143.512 61.1329 143.73 61.0015C143.948 60.8703 144.177 60.8046 144.418 60.8046Z" fill="white" stroke="white" stroke-width="0.288" stroke-miterlimit="22.9256"/>
<path d="M147.551 66.1836C147.156 66.1836 146.843 66.0645 146.612 65.8261C146.381 65.5877 146.266 65.2716 146.266 64.8778C146.266 64.8225 146.273 64.7395 146.286 64.6291L146.557 62.3489C146.611 61.8929 146.788 61.5198 147.089 61.2296C147.391 60.9394 147.756 60.7943 148.184 60.7943C148.586 60.7943 148.902 60.9135 149.133 61.1518C149.364 61.3902 149.48 61.7063 149.48 62.1002C149.48 62.1554 149.473 62.2383 149.46 62.3489L149.188 64.6291C149.135 65.092 148.959 65.4668 148.661 65.7536C148.363 66.0403 147.993 66.1836 147.551 66.1836ZM147.602 65.6965C147.883 65.6965 148.124 65.5946 148.325 65.3908C148.526 65.1869 148.643 64.9261 148.676 64.6083L148.947 62.38C148.954 62.3385 148.957 62.2833 148.957 62.2142C148.957 61.9309 148.882 61.7046 148.731 61.5354C148.581 61.366 148.382 61.2814 148.134 61.2814C147.859 61.2814 147.623 61.3833 147.426 61.5871C147.228 61.7909 147.109 62.0552 147.069 62.38L146.808 64.6083C146.801 64.6497 146.798 64.712 146.798 64.7949C146.798 65.0643 146.87 65.282 147.014 65.4478C147.158 65.6136 147.354 65.6965 147.602 65.6965ZM154.381 60.7943C154.742 60.7943 155.027 60.9118 155.234 61.1467C155.442 61.3816 155.546 61.6925 155.546 62.0794C155.546 62.1347 155.539 62.2245 155.526 62.3489L155.255 64.6291C155.201 65.092 155.034 65.4668 154.752 65.7536C154.471 66.0403 154.133 66.1836 153.738 66.1836C153.544 66.1836 153.366 66.1422 153.206 66.0593C153.045 65.9764 152.914 65.8554 152.814 65.6965C152.794 65.662 152.777 65.6654 152.764 65.7069L152.493 68.0285C152.479 68.0976 152.442 68.1321 152.382 68.1321H152.061C151.994 68.1321 151.967 68.0976 151.98 68.0285L152.814 60.9809C152.827 60.9118 152.864 60.8772 152.924 60.8772H153.246C153.313 60.8772 153.34 60.9118 153.326 60.9809L153.296 61.271C153.296 61.2849 153.301 61.2935 153.311 61.2969C153.321 61.3004 153.333 61.2952 153.346 61.2814C153.48 61.1225 153.636 61.0016 153.813 60.9187C153.991 60.8358 154.18 60.7943 154.381 60.7943ZM155.013 62.3696C155.02 62.3282 155.023 62.266 155.023 62.1831C155.023 61.9136 154.948 61.696 154.798 61.5301C154.647 61.3643 154.448 61.2814 154.2 61.2814C153.932 61.2814 153.703 61.3816 153.512 61.582C153.321 61.7823 153.206 62.0449 153.166 62.3696L152.904 64.6083C152.898 64.6497 152.894 64.7154 152.894 64.8052C152.894 65.0747 152.965 65.2906 153.105 65.453C153.246 65.6154 153.437 65.6965 153.678 65.6965C153.952 65.6965 154.19 65.5946 154.391 65.3908C154.592 65.1869 154.712 64.9261 154.752 64.6083L155.013 62.3696ZM157.585 66.1836C157.189 66.1836 156.876 66.0645 156.645 65.8261C156.415 65.5877 156.299 65.2716 156.299 64.8778C156.299 64.8225 156.306 64.7395 156.319 64.6291L156.59 62.3489C156.644 61.8929 156.821 61.5198 157.122 61.2296C157.424 60.9394 157.789 60.7943 158.217 60.7943C158.619 60.7943 158.935 60.9135 159.166 61.1518C159.397 61.3902 159.513 61.7063 159.513 62.1002C159.513 62.1554 159.506 62.2383 159.493 62.3489L159.222 64.6291C159.168 65.092 158.992 65.4668 158.694 65.7536C158.396 66.0403 158.026 66.1836 157.585 66.1836ZM157.635 65.6965C157.916 65.6965 158.157 65.5946 158.358 65.3908C158.559 65.1869 158.676 64.9261 158.709 64.6083L158.981 62.38C158.987 62.3385 158.991 62.2833 158.991 62.2142C158.991 61.9309 158.915 61.7046 158.765 61.5354C158.614 61.366 158.415 61.2814 158.167 61.2814C157.893 61.2814 157.656 61.3833 157.459 61.5871C157.261 61.7909 157.143 62.0552 157.102 62.38L156.841 64.6083C156.835 64.6497 156.831 64.712 156.831 64.7949C156.831 65.0643 156.903 65.282 157.047 65.4478C157.191 65.6136 157.387 65.6965 157.635 65.6965ZM162.455 60.8047C162.797 60.8047 163.06 60.9152 163.244 61.1363C163.428 61.3574 163.52 61.6683 163.52 62.0691C163.52 62.1382 163.513 62.2556 163.5 62.4214L163.078 65.9971C163.065 66.0662 163.028 66.1007 162.968 66.1007H162.646C162.579 66.1007 162.553 66.0662 162.566 65.9971L162.978 62.4733C162.991 62.3489 162.998 62.2591 162.998 62.2038C162.998 61.9136 162.932 61.6891 162.802 61.5301C162.671 61.3712 162.482 61.2918 162.235 61.2918C161.953 61.2918 161.717 61.4023 161.526 61.6234C161.336 61.8445 161.217 62.1485 161.17 62.5354L160.758 65.9971C160.745 66.0662 160.708 66.1007 160.648 66.1007H160.326C160.259 66.1007 160.233 66.0662 160.246 65.9971L160.838 60.9809C160.852 60.9118 160.889 60.8772 160.949 60.8772H161.27C161.331 60.8772 161.361 60.9118 161.361 60.9809L161.311 61.3747C161.304 61.3954 161.307 61.4058 161.321 61.4058C161.334 61.4058 161.347 61.3989 161.361 61.3851C161.629 60.9981 161.993 60.8047 162.455 60.8047ZM166.483 61.2089C166.469 61.278 166.433 61.3125 166.372 61.3125H165.589C165.562 61.3125 165.549 61.3263 165.549 61.354L165.147 64.6912C165.134 64.8294 165.127 64.9192 165.127 64.9606C165.127 65.2025 165.176 65.3718 165.273 65.4685C165.37 65.5653 165.522 65.6136 165.73 65.6136H165.83C165.897 65.6136 165.924 65.6482 165.91 65.7173L165.88 65.9971C165.867 66.0662 165.83 66.1007 165.77 66.1007H165.579C165.258 66.1007 165.015 66.0334 164.851 65.8987C164.687 65.7639 164.605 65.5169 164.605 65.1576C164.605 65.1023 164.611 64.9918 164.625 64.826L165.037 61.354C165.043 61.347 165.043 61.3384 165.037 61.328C165.03 61.3177 165.02 61.3125 165.006 61.3125H164.605C164.538 61.3125 164.511 61.278 164.524 61.2089L164.544 60.9809C164.558 60.9118 164.595 60.8772 164.655 60.8772H165.057C165.083 60.8772 165.097 60.8634 165.097 60.8358L165.237 59.675C165.251 59.6059 165.288 59.5713 165.348 59.5713H165.659C165.72 59.5713 165.75 59.6059 165.75 59.675L165.609 60.8358C165.609 60.8634 165.619 60.8772 165.639 60.8772H166.423C166.49 60.8772 166.516 60.9118 166.503 60.9809L166.483 61.2089ZM168.17 66.1836C167.775 66.1836 167.462 66.0645 167.231 65.8261C167 65.5877 166.885 65.2716 166.885 64.8778C166.885 64.8225 166.891 64.7395 166.905 64.6291L167.176 62.3489C167.229 61.8929 167.407 61.5198 167.708 61.2296C168.009 60.9394 168.374 60.7943 168.803 60.7943C169.204 60.7943 169.521 60.9135 169.752 61.1518C169.983 61.3902 170.098 61.7063 170.098 62.1002C170.098 62.1554 170.092 62.2383 170.078 62.3489L169.807 64.6291C169.753 65.092 169.578 65.4668 169.28 65.7536C168.982 66.0403 168.612 66.1836 168.17 66.1836ZM168.22 65.6965C168.501 65.6965 168.742 65.5946 168.943 65.3908C169.144 65.1869 169.261 64.9261 169.295 64.6083L169.566 62.38C169.573 62.3385 169.576 62.2833 169.576 62.2142C169.576 61.9309 169.501 61.7046 169.35 61.5354C169.199 61.366 169 61.2814 168.753 61.2814C168.478 61.2814 168.242 61.3833 168.044 61.5871C167.847 61.7909 167.728 62.0552 167.688 62.38L167.427 64.6083C167.42 64.6497 167.417 64.712 167.417 64.7949C167.417 65.0643 167.489 65.282 167.633 65.4478C167.777 65.6136 167.973 65.6965 168.22 65.6965ZM175.853 58.9495C175.86 58.9218 175.873 58.8977 175.893 58.8769C175.913 58.8562 175.937 58.8458 175.964 58.8458H176.285C176.318 58.8458 176.343 58.8562 176.36 58.8769C176.377 58.8977 176.382 58.9218 176.375 58.9495L175.532 65.9971C175.532 66.0247 175.522 66.0489 175.501 66.0696C175.481 66.0904 175.455 66.1007 175.421 66.1007H175.1C175.073 66.1007 175.051 66.0904 175.035 66.0696C175.018 66.0489 175.013 66.0247 175.019 65.9971L175.05 65.7069C175.056 65.6931 175.055 65.6845 175.045 65.681C175.035 65.6776 175.023 65.6827 175.009 65.6965C174.875 65.8554 174.718 65.9764 174.537 66.0593C174.357 66.1422 174.169 66.1836 173.975 66.1836C173.613 66.1836 173.329 66.0645 173.121 65.8261C172.914 65.5877 172.81 65.2751 172.81 64.8881C172.81 64.7776 172.813 64.6946 172.82 64.6394L173.091 62.3489C173.145 61.886 173.312 61.5111 173.593 61.2244C173.875 60.9377 174.216 60.7943 174.618 60.7943C174.812 60.7943 174.988 60.8358 175.145 60.9187C175.302 61.0016 175.431 61.1225 175.532 61.2814C175.538 61.2952 175.548 61.3004 175.562 61.2969C175.575 61.2935 175.582 61.2849 175.582 61.271L175.853 58.9495ZM174.146 65.6965C174.414 65.6965 174.645 65.5963 174.839 65.396C175.033 65.1956 175.147 64.9331 175.18 64.6083L175.451 62.38C175.458 62.3385 175.461 62.2729 175.461 62.1831C175.461 61.9136 175.391 61.696 175.25 61.5301C175.11 61.3643 174.919 61.2814 174.678 61.2814C174.397 61.2814 174.156 61.3833 173.955 61.5871C173.754 61.7909 173.634 62.0552 173.593 62.38L173.332 64.6083C173.326 64.6497 173.322 64.712 173.322 64.7949C173.322 65.0643 173.397 65.282 173.548 65.4478C173.699 65.6136 173.898 65.6965 174.146 65.6965ZM179.9 63.5822C179.887 63.6513 179.85 63.6859 179.79 63.6859H177.55C177.53 63.6859 177.514 63.6997 177.5 63.7273L177.4 64.6083C177.393 64.6497 177.39 64.712 177.39 64.7949C177.39 65.0643 177.462 65.282 177.606 65.4478C177.75 65.6136 177.945 65.6965 178.193 65.6965C178.421 65.6965 178.625 65.624 178.806 65.4789C178.987 65.3338 179.117 65.1438 179.197 64.9089C179.231 64.8466 179.271 64.8156 179.318 64.8156L179.619 64.8363C179.646 64.8363 179.668 64.8432 179.685 64.8571C179.701 64.8709 179.706 64.8916 179.7 64.9192C179.7 64.94 179.696 64.9537 179.69 64.9606C179.582 65.3407 179.392 65.6396 179.117 65.8572C178.843 66.0748 178.518 66.1836 178.143 66.1836C177.748 66.1836 177.435 66.0662 177.204 65.8313C176.973 65.5963 176.857 65.282 176.857 64.8881C176.857 64.8329 176.864 64.75 176.877 64.6394L177.149 62.3489C177.202 61.8929 177.38 61.5198 177.681 61.2296C177.982 60.9394 178.347 60.7943 178.776 60.7943C179.171 60.7943 179.484 60.9135 179.715 61.1518C179.946 61.3902 180.061 61.7063 180.061 62.1002C180.061 62.1554 180.054 62.2383 180.041 62.3489L179.9 63.5822ZM178.725 61.2814C178.451 61.2814 178.215 61.3833 178.017 61.5871C177.82 61.7909 177.701 62.0552 177.661 62.38L177.57 63.1677C177.57 63.1815 177.574 63.1919 177.581 63.1988C177.587 63.2057 177.594 63.2091 177.601 63.2091H179.388C179.415 63.2091 179.428 63.1953 179.428 63.1677L179.529 62.38C179.536 62.3385 179.539 62.2799 179.539 62.2038C179.539 61.9205 179.465 61.696 179.318 61.5301C179.171 61.3643 178.973 61.2814 178.725 61.2814ZM184.902 60.7943C185.264 60.7943 185.548 60.9118 185.756 61.1467C185.963 61.3816 186.067 61.6925 186.067 62.0794C186.067 62.1347 186.06 62.2245 186.047 62.3489L185.776 64.6291C185.722 65.092 185.555 65.4668 185.274 65.7536C184.992 66.0403 184.654 66.1836 184.259 66.1836C184.065 66.1836 183.888 66.1422 183.727 66.0593C183.566 65.9764 183.436 65.8554 183.335 65.6965C183.315 65.662 183.298 65.6654 183.285 65.7069L183.014 68.0285C183 68.0976 182.964 68.1321 182.903 68.1321H182.582C182.515 68.1321 182.488 68.0976 182.502 68.0285L183.335 60.9809C183.349 60.9118 183.385 60.8772 183.446 60.8772H183.767C183.834 60.8772 183.861 60.9118 183.847 60.9809L183.817 61.271C183.817 61.2849 183.822 61.2935 183.832 61.2969C183.842 61.3004 183.854 61.2952 183.867 61.2814C184.001 61.1225 184.157 61.0016 184.335 60.9187C184.512 60.8358 184.701 60.7943 184.902 60.7943ZM185.535 62.3696C185.541 62.3282 185.545 62.266 185.545 62.1831C185.545 61.9136 185.469 61.696 185.319 61.5301C185.168 61.3643 184.969 61.2814 184.721 61.2814C184.453 61.2814 184.224 61.3816 184.033 61.582C183.842 61.7823 183.727 62.0449 183.687 62.3696L183.426 64.6083C183.419 64.6497 183.416 64.7154 183.416 64.8052C183.416 65.0747 183.486 65.2906 183.626 65.453C183.767 65.6154 183.958 65.6965 184.199 65.6965C184.473 65.6965 184.711 65.5946 184.912 65.3908C185.113 65.1869 185.233 64.9261 185.274 64.6083L185.535 62.3696ZM189.632 60.9809C189.646 60.9118 189.683 60.8772 189.743 60.8772H190.064C190.124 60.8772 190.155 60.9118 190.155 60.9809L189.552 65.9971C189.552 66.0247 189.542 66.0489 189.522 66.0696C189.502 66.0904 189.475 66.1007 189.441 66.1007H189.12C189.093 66.1007 189.072 66.0904 189.055 66.0696C189.038 66.0489 189.033 66.0247 189.04 65.9971L189.09 65.5929C189.09 65.5722 189.083 65.56 189.07 65.5566C189.057 65.5531 189.046 65.5618 189.04 65.5825C188.913 65.776 188.755 65.9245 188.568 66.0282C188.38 66.1318 188.179 66.1836 187.965 66.1836C187.604 66.1836 187.322 66.0696 187.122 65.8416C186.921 65.6136 186.82 65.3062 186.82 64.9192C186.82 64.864 186.827 64.7672 186.84 64.6291L187.111 62.3489C187.165 61.886 187.327 61.5111 187.599 61.2244C187.87 60.9377 188.206 60.7943 188.608 60.7943C188.822 60.7943 189.01 60.8461 189.17 60.9498C189.331 61.0534 189.455 61.202 189.542 61.3954C189.549 61.4161 189.557 61.4248 189.567 61.4213C189.577 61.4178 189.585 61.4058 189.592 61.3851L189.632 60.9809ZM188.166 65.6965C188.434 65.6965 188.665 65.5963 188.859 65.396C189.053 65.1956 189.167 64.9331 189.2 64.6083L189.472 62.38C189.478 62.3385 189.482 62.2729 189.482 62.1831C189.482 61.9136 189.411 61.696 189.271 61.5301C189.13 61.3643 188.939 61.2814 188.698 61.2814C188.417 61.2814 188.178 61.3833 187.98 61.5871C187.783 61.7909 187.664 62.0552 187.624 62.38L187.363 64.6083C187.356 64.6497 187.352 64.712 187.352 64.7949C187.352 65.0643 187.426 65.282 187.573 65.4478C187.721 65.6136 187.918 65.6965 188.166 65.6965ZM192.977 60.8358C193.137 60.8358 193.275 60.8703 193.388 60.9394C193.429 60.9739 193.439 61.0189 193.419 61.0741L193.298 61.4265C193.271 61.4887 193.228 61.506 193.167 61.4783C193.074 61.4369 192.95 61.4196 192.796 61.4265C192.535 61.4334 192.307 61.5716 192.113 61.8411C191.919 62.1105 191.798 62.4422 191.751 62.836L191.37 65.9971C191.356 66.0662 191.32 66.1007 191.259 66.1007H190.938C190.871 66.1007 190.844 66.0662 190.858 65.9971L191.45 60.9809C191.464 60.9118 191.5 60.8772 191.561 60.8772H191.882C191.942 60.8772 191.972 60.9118 191.972 60.9809L191.892 61.6234C191.892 61.6718 191.909 61.6718 191.942 61.6234C192.063 61.3747 192.21 61.1812 192.384 61.043C192.558 60.9049 192.756 60.8358 192.977 60.8358ZM195.789 61.2089C195.775 61.278 195.738 61.3125 195.678 61.3125H194.895C194.868 61.3125 194.855 61.3263 194.855 61.354L194.453 64.6912C194.44 64.8294 194.433 64.9192 194.433 64.9606C194.433 65.2025 194.482 65.3718 194.579 65.4685C194.676 65.5653 194.828 65.6136 195.036 65.6136H195.136C195.203 65.6136 195.23 65.6482 195.216 65.7173L195.186 65.9971C195.173 66.0662 195.136 66.1007 195.076 66.1007H194.885C194.563 66.1007 194.321 66.0334 194.157 65.8987C193.993 65.7639 193.911 65.5169 193.911 65.1576C193.911 65.1023 193.917 64.9918 193.931 64.826L194.343 61.354C194.349 61.347 194.349 61.3384 194.343 61.328C194.336 61.3177 194.326 61.3125 194.312 61.3125H193.911C193.844 61.3125 193.817 61.278 193.83 61.2089L193.85 60.9809C193.864 60.9118 193.901 60.8772 193.961 60.8772H194.363C194.389 60.8772 194.403 60.8634 194.403 60.8358L194.543 59.675C194.557 59.6059 194.594 59.5713 194.654 59.5713H194.965C195.025 59.5713 195.056 59.6059 195.056 59.675L194.915 60.8358C194.915 60.8634 194.925 60.8772 194.945 60.8772H195.728C195.795 60.8772 195.822 60.9118 195.809 60.9809L195.789 61.2089ZM197.245 59.8304C197.118 59.8304 197.014 59.789 196.934 59.706C196.853 59.6231 196.813 59.5126 196.813 59.3744C196.813 59.2086 196.867 59.0703 196.974 58.9598C197.081 58.8492 197.212 58.794 197.366 58.794C197.493 58.794 197.597 58.8337 197.677 58.9132C197.757 58.9926 197.797 59.098 197.797 59.2293C197.797 59.402 197.744 59.5454 197.637 59.6594C197.53 59.7734 197.399 59.8304 197.245 59.8304ZM196.341 66.1007C196.274 66.1007 196.247 66.0662 196.261 65.9971L196.853 60.9809C196.867 60.9118 196.903 60.8772 196.964 60.8772H197.285C197.352 60.8772 197.379 60.9118 197.366 60.9809L196.773 65.9971C196.76 66.0662 196.723 66.1007 196.663 66.1007H196.341ZM201.242 58.9495C201.249 58.9218 201.262 58.8977 201.282 58.8769C201.302 58.8562 201.326 58.8458 201.353 58.8458H201.674C201.707 58.8458 201.733 58.8562 201.749 58.8769C201.766 58.8977 201.771 58.9218 201.764 58.9495L200.921 65.9971C200.921 66.0247 200.911 66.0489 200.891 66.0696C200.871 66.0904 200.844 66.1007 200.81 66.1007H200.489C200.462 66.1007 200.44 66.0904 200.424 66.0696C200.407 66.0489 200.402 66.0247 200.409 65.9971L200.439 65.7069C200.445 65.6931 200.444 65.6845 200.434 65.681C200.424 65.6776 200.412 65.6827 200.399 65.6965C200.265 65.8554 200.107 65.9764 199.927 66.0593C199.746 66.1422 199.558 66.1836 199.364 66.1836C199.003 66.1836 198.718 66.0645 198.51 65.8261C198.303 65.5877 198.199 65.2751 198.199 64.8881C198.199 64.7776 198.202 64.6946 198.209 64.6394L198.48 62.3489C198.534 61.886 198.701 61.5111 198.982 61.2244C199.264 60.9377 199.605 60.7943 200.007 60.7943C200.201 60.7943 200.377 60.8358 200.534 60.9187C200.691 61.0016 200.82 61.1225 200.921 61.2814C200.927 61.2952 200.938 61.3004 200.951 61.2969C200.964 61.2935 200.971 61.2849 200.971 61.271L201.242 58.9495ZM199.535 65.6965C199.803 65.6965 200.034 65.5963 200.228 65.396C200.422 65.1956 200.536 64.9331 200.569 64.6083L200.84 62.38C200.847 62.3385 200.85 62.2729 200.85 62.1831C200.85 61.9136 200.78 61.696 200.64 61.5301C200.499 61.3643 200.308 61.2814 200.067 61.2814C199.786 61.2814 199.545 61.3833 199.344 61.5871C199.143 61.7909 199.023 62.0552 198.982 62.38L198.721 64.6083C198.715 64.6497 198.711 64.712 198.711 64.7949C198.711 65.0643 198.787 65.282 198.937 65.4478C199.088 65.6136 199.287 65.6965 199.535 65.6965ZM205.059 60.9809C205.072 60.9118 205.109 60.8772 205.169 60.8772H205.49C205.551 60.8772 205.581 60.9118 205.581 60.9809L204.978 65.9971C204.978 66.0247 204.968 66.0489 204.948 66.0696C204.928 66.0904 204.901 66.1007 204.868 66.1007H204.546C204.52 66.1007 204.498 66.0904 204.481 66.0696C204.464 66.0489 204.459 66.0247 204.466 65.9971L204.516 65.5929C204.516 65.5722 204.51 65.56 204.496 65.5566C204.483 65.5531 204.473 65.5618 204.466 65.5825C204.339 65.776 204.181 65.9245 203.994 66.0282C203.807 66.1318 203.606 66.1836 203.391 66.1836C203.03 66.1836 202.749 66.0696 202.548 65.8416C202.347 65.6136 202.246 65.3062 202.246 64.9192C202.246 64.864 202.253 64.7672 202.266 64.6291L202.538 62.3489C202.591 61.886 202.754 61.5111 203.025 61.2244C203.296 60.9377 203.632 60.7943 204.034 60.7943C204.248 60.7943 204.436 60.8461 204.597 60.9498C204.757 61.0534 204.881 61.202 204.968 61.3954C204.975 61.4161 204.983 61.4248 204.993 61.4213C205.003 61.4178 205.012 61.4058 205.018 61.3851L205.059 60.9809ZM203.592 65.6965C203.86 65.6965 204.091 65.5963 204.285 65.396C204.479 65.1956 204.593 64.9331 204.627 64.6083L204.898 62.38C204.905 62.3385 204.908 62.2729 204.908 62.1831C204.908 61.9136 204.838 61.696 204.697 61.5301C204.556 61.3643 204.366 61.2814 204.125 61.2814C203.843 61.2814 203.604 61.3833 203.406 61.5871C203.209 61.7909 203.09 62.0552 203.05 62.38L202.789 64.6083C202.782 64.6497 202.779 64.712 202.779 64.7949C202.779 65.0643 202.852 65.282 203 65.4478C203.147 65.6136 203.345 65.6965 203.592 65.6965ZM206.505 66.0593C206.378 66.0593 206.274 66.0196 206.193 65.9401C206.113 65.8607 206.073 65.7553 206.073 65.624C206.073 65.4513 206.126 65.3079 206.234 65.1939C206.341 65.0799 206.475 65.0229 206.635 65.0229C206.763 65.0229 206.865 65.0643 206.942 65.1472C207.019 65.2302 207.057 65.3407 207.057 65.4789C207.057 65.6447 207.004 65.7829 206.896 65.8934C206.789 66.004 206.659 66.0593 206.505 66.0593Z" fill="white" stroke="white" stroke-width="0.288" stroke-miterlimit="22.9256"/>
<path fill-rule="evenodd" clip-rule="evenodd" d="M23.7478 44.1798L22.9171 43.6855L37.0701 35.1171L37.0251 23.9253C36.3507 23.7396 35.8765 23.2227 35.8517 22.3897C35.8393 21.9752 36.0101 21.5676 36.2978 21.2671C36.5882 20.964 36.9979 20.77 37.4461 20.775C37.5456 20.776 37.6437 20.783 37.7411 20.8009C37.9737 20.8436 38.1972 20.937 38.3851 21.0745C38.5365 21.1852 38.6717 21.321 38.7765 21.4757C38.9547 21.7387 39.0536 22.054 39.0551 22.3741C39.059 23.1831 38.5677 23.7296 37.8949 23.9219L37.9349 34.5936L43.1321 31.4471L43.0888 20.6744C42.4143 20.4886 41.9174 19.8724 41.9138 19.1382C41.9115 18.6744 42.1051 18.2582 42.4186 17.9643C42.7029 17.6977 43.0864 17.5308 43.5068 17.5289C43.7924 17.5276 44.0674 17.6041 44.3068 17.7374C44.5011 17.8455 44.6676 17.9967 44.7965 18.1688C45.0047 18.4467 45.1182 18.7849 45.117 19.1225C45.1141 19.9318 44.6284 20.4779 43.9556 20.6702L44.0007 31.9347L23.7478 44.1798Z" fill="#FEFEFE" stroke="#FEFEFE" stroke-width="0.288" stroke-miterlimit="22.9256"/>
<defs>
<linearGradient id="paint0_linear_186_202" x1="11.1521" y1="14.2562" x2="13.6621" y2="35.6818" gradientUnits="userSpaceOnUse">
<stop stop-color="#00AFEF"/>
<stop offset="1" stop-color="#1BABCA"/>
</linearGradient>
<linearGradient id="paint1_linear_186_202" x1="-1.51368" y1="58.4022" x2="27.763" y2="55.4501" gradientUnits="userSpaceOnUse">
<stop stop-color="#056687"/>
<stop offset="0.568627" stop-color="#4B9FBF"/>
<stop offset="1" stop-color="#91D8F7"/>
</linearGradient>
</defs>
</svg>
