<svg width="207" height="69" viewBox="0 0 207 69" fill="none" xmlns="http://www.w3.org/2000/svg">
<path fill-rule="evenodd" clip-rule="evenodd" d="M24.4452 0.0137138L6.60475 11.4416L6.60303 33.9738L22.5949 43.5097L27.8713 40.3186L36.7479 34.9499L36.7028 23.7642C36.0286 23.5779 35.5323 22.9618 35.5294 22.2284C35.5258 21.3448 36.2397 20.6257 37.1239 20.6221C38.0081 20.6186 38.7277 21.3319 38.7313 22.2155C38.7342 22.9491 38.2426 23.5693 37.5697 23.7608L37.6126 34.4269L42.8098 31.2835L42.7665 20.5213C42.0922 20.335 41.5959 19.7189 41.5929 18.9855C41.5894 18.1019 42.3032 17.3828 43.1874 17.3792C44.0716 17.3757 44.7912 18.089 44.7948 18.9726C44.7977 19.7062 44.3063 20.3263 43.6333 20.5178L43.6786 31.7568L43.6785 31.7707L27.8711 41.3183L23.4256 44.0034L27.8189 46.6448H27.861L49.0763 33.9111V11.4419L31.0862 0L31.0771 24.0247L27.7933 24.0183L24.4431 24.018L24.4452 0.0137138Z" fill="url(#paint0_linear_322_485)"/>
<path fill-rule="evenodd" clip-rule="evenodd" d="M55.669 39.6286L55.6845 48.4153L27.8448 66.3764L0 48.4415L0.00261867 39.661L27.8407 55.8366L55.669 39.6286Z" fill="url(#paint1_linear_322_485)"/>
<path fill-rule="evenodd" clip-rule="evenodd" d="M55.6784 35.5927L55.68 39.6286L49.0764 43.4683V39.8229L55.6784 35.5927Z" fill="#244457"/>
<path fill-rule="evenodd" clip-rule="evenodd" d="M0.000488281 35.5922L0.00278741 39.661L6.60493 43.4973L6.60499 39.8187L0.000488281 35.5922Z" fill="#244457"/>
<path d="M63.1889 52.9649C63.0012 52.9649 62.8416 52.8993 62.7102 52.768C62.5788 52.6367 62.5132 52.4772 62.5132 52.2897V14.251C62.5132 14.0634 62.5788 13.904 62.7102 13.7727C62.8416 13.6414 63.0012 13.5757 63.1889 13.5757H69.7769C69.9646 13.5757 70.1242 13.6414 70.2555 13.7727C70.3869 13.904 70.4526 14.0634 70.4526 14.251V52.2897C70.4526 52.4772 70.3869 52.6367 70.2555 52.768C70.1242 52.8993 69.9646 52.9649 69.7769 52.9649H63.1889Z" fill="#244457"/>
<path d="M93.4827 14.0259C93.6328 13.7258 93.9144 13.5757 94.3273 13.5757H100.859C101.047 13.5757 101.206 13.6414 101.338 13.7727C101.469 13.904 101.535 14.0634 101.535 14.251V52.2897C101.535 52.4772 101.469 52.6367 101.338 52.768C101.206 52.8993 101.047 52.9649 100.859 52.9649H94.271C94.0833 52.9649 93.9238 52.8993 93.7924 52.768C93.661 52.6367 93.5953 52.4772 93.5953 52.2897V27.0243C93.5953 26.8743 93.5578 26.7992 93.4827 26.7992C93.4076 26.7992 93.3326 26.8555 93.2575 26.9681L88.8654 34.7333C88.6777 35.0335 88.5276 35.1835 88.415 35.1835C88.3024 35.1835 88.1522 35.0335 87.9645 34.7333L83.5724 26.9681C83.4974 26.8555 83.4223 26.7992 83.3472 26.7992C83.2722 26.7992 83.2346 26.8743 83.2346 27.0243V52.2897C83.2346 52.4772 83.1689 52.6367 83.0375 52.768C82.9061 52.8993 82.7466 52.9649 82.5589 52.9649H75.9708C75.7831 52.9649 75.6236 52.8993 75.4923 52.768C75.3609 52.6367 75.2952 52.4772 75.2952 52.2897V14.251C75.2952 14.0634 75.3609 13.904 75.4923 13.7727C75.6236 13.6414 75.7831 13.5757 75.9708 13.5757H82.4463C82.8217 13.5757 83.1032 13.7258 83.2909 14.0259L88.3024 22.9729C88.415 23.1229 88.5276 23.1229 88.6402 22.9729L93.4827 14.0259ZM118.315 13.5194C120.379 13.5194 122.219 14.0259 123.833 15.0388C125.447 16.0516 126.695 17.4677 127.577 19.2872C128.459 21.1066 128.901 23.1792 128.901 25.505C128.901 28.9938 127.962 31.7885 126.085 33.8893C124.208 35.9901 121.749 37.0404 118.709 37.0404H114.486C114.298 37.0404 114.204 37.1342 114.204 37.3218V52.2897C114.204 52.4772 114.138 52.6367 114.007 52.768C113.876 52.8993 113.716 52.9649 113.528 52.9649H106.94C106.753 52.9649 106.593 52.8993 106.462 52.768C106.33 52.6367 106.265 52.4772 106.265 52.2897V14.1947C106.265 14.0071 106.33 13.8477 106.462 13.7164C106.593 13.5851 106.753 13.5194 106.94 13.5194H118.315ZM116.963 30.8507C118.164 30.8507 119.131 30.3911 119.863 29.4721C120.595 28.553 120.961 27.2869 120.961 25.6738C120.961 24.0233 120.595 22.729 119.863 21.7912C119.131 20.8533 118.164 20.3844 116.963 20.3844H114.486C114.298 20.3844 114.204 20.4782 114.204 20.6658V30.5693C114.204 30.7569 114.298 30.8507 114.486 30.8507H116.963ZM154.352 13.5757C154.54 13.5757 154.699 13.6414 154.83 13.7727C154.962 13.904 155.028 14.0634 155.028 14.251V19.7092C155.028 19.8968 154.962 20.0562 154.83 20.1875C154.699 20.3187 154.54 20.3844 154.352 20.3844H147.313C147.126 20.3844 147.032 20.4782 147.032 20.6658V52.2897C147.032 52.4772 146.966 52.6367 146.835 52.768C146.703 52.8993 146.544 52.9649 146.356 52.9649H139.768C139.58 52.9649 139.421 52.8993 139.289 52.768C139.158 52.6367 139.092 52.4772 139.092 52.2897V20.6658C139.092 20.4782 138.998 20.3844 138.811 20.3844H132.054C131.866 20.3844 131.707 20.3187 131.575 20.1875C131.444 20.0562 131.378 19.8968 131.378 19.7092V14.251C131.378 14.0634 131.444 13.904 131.575 13.7727C131.707 13.6414 131.866 13.5757 132.054 13.5757H154.352ZM169.893 53.4151C166.514 53.4151 163.802 52.3554 161.756 50.2358C159.711 48.1163 158.688 45.2934 158.688 41.7671V14.251C158.688 14.0634 158.753 13.904 158.885 13.7727C159.016 13.6414 159.176 13.5757 159.363 13.5757H165.951C166.139 13.5757 166.299 13.6414 166.43 13.7727C166.561 13.904 166.627 14.0634 166.627 14.251V42.5549C166.627 43.7553 166.927 44.7307 167.528 45.4809C168.129 46.2313 168.917 46.6064 169.893 46.6064C170.869 46.6064 171.648 46.2313 172.23 45.4809C172.812 44.7307 173.102 43.7553 173.102 42.5549V14.251C173.102 14.0634 173.168 13.904 173.3 13.7727C173.431 13.6414 173.59 13.5757 173.778 13.5757H180.366C180.554 13.5757 180.713 13.6414 180.845 13.7727C180.976 13.904 181.042 14.0634 181.042 14.251V41.7671C181.042 45.2934 180.019 48.1163 177.973 50.2358C175.927 52.3554 173.234 53.4151 169.893 53.4151ZM195.964 53.4151C193.786 53.4151 191.872 52.9837 190.22 52.1209C188.568 51.2581 187.292 50.0482 186.391 48.4914C185.49 46.9346 185.04 45.1434 185.04 43.1176V41.4858C185.04 41.2982 185.105 41.1388 185.237 41.0075C185.368 40.8762 185.528 40.8105 185.716 40.8105H192.191C192.379 40.8105 192.538 40.8762 192.67 41.0075C192.801 41.1388 192.867 41.2982 192.867 41.4858V42.7237C192.867 43.8866 193.167 44.8245 193.768 45.5372C194.368 46.25 195.119 46.6064 196.02 46.6064C196.921 46.6064 197.672 46.2688 198.272 45.5935C198.873 44.9183 199.173 44.0367 199.173 42.9488C199.173 41.8234 198.798 40.8574 198.047 40.0509C197.296 39.2444 195.832 38.0533 193.655 36.4777C191.778 35.1273 190.258 33.9268 189.094 32.8764C187.93 31.826 186.935 30.5318 186.11 28.9938C185.284 27.4557 184.871 25.6738 184.871 23.6481C184.871 20.4594 185.866 17.9085 187.855 15.9954C189.845 14.0822 192.472 13.1256 195.738 13.1256C199.042 13.1256 201.698 14.1197 203.706 16.1079C205.714 18.0961 206.718 20.7033 206.718 23.9295V25.28C206.718 25.4675 206.653 25.6269 206.521 25.7582C206.39 25.8895 206.23 25.9552 206.043 25.9552H199.567C199.38 25.9552 199.22 25.8895 199.089 25.7582C198.957 25.6269 198.892 25.4675 198.892 25.28V23.7606C198.892 22.5977 198.601 21.6693 198.019 20.9753C197.437 20.2813 196.677 19.9343 195.738 19.9343C194.837 19.9343 194.105 20.2625 193.542 20.919C192.979 21.5755 192.698 22.4852 192.698 23.6481C192.698 24.7735 193.054 25.7676 193.768 26.6304C194.481 27.4932 195.889 28.6937 197.991 30.2318C200.318 31.9574 202.073 33.3548 203.255 34.4238C204.438 35.493 205.358 36.6747 206.015 37.9689C206.672 39.2631 207 40.8105 207 42.6112C207 45.9124 205.986 48.5383 203.959 50.489C201.932 52.4398 199.267 53.4151 195.964 53.4151Z" fill="black"/>
<path d="M63.8709 65.9852C63.4625 65.9852 63.1361 65.8489 62.8917 65.5762C62.6473 65.3036 62.5251 64.9395 62.5251 64.4839C62.5251 64.4149 62.5318 64.3113 62.5453 64.1733L62.5653 63.9559C62.5786 63.8868 62.6155 63.8523 62.6758 63.8523H62.9871C63.0206 63.8523 63.0457 63.8627 63.0625 63.8834C63.0792 63.9041 63.0842 63.9282 63.0775 63.9559L63.0473 64.1526C63.0407 64.2078 63.0373 64.2872 63.0373 64.3907C63.0373 64.7359 63.1177 65.0085 63.2784 65.2086C63.439 65.4088 63.6533 65.5089 63.9212 65.5089C64.1421 65.5089 64.3463 65.4451 64.5338 65.3174C64.7212 65.1897 64.8703 65.0085 64.9807 64.7738C65.0912 64.5391 65.1464 64.2768 65.1464 63.9869C65.1464 63.7798 65.1062 63.5952 65.0259 63.433C64.9455 63.2708 64.8451 63.1293 64.7246 63.0085C64.6041 62.8877 64.4065 62.703 64.132 62.4545C63.8575 62.213 63.6449 62.0128 63.4943 61.854C63.3437 61.6953 63.2198 61.5106 63.1227 61.3001C63.0256 61.0896 62.977 60.8497 62.977 60.5805C62.977 60.5184 62.9838 60.4183 62.9972 60.2803C63.0641 59.7488 63.255 59.3312 63.5697 59.0274C63.8844 58.7237 64.2626 58.5719 64.7045 58.5719C65.1263 58.5719 65.4594 58.7082 65.7038 58.9809C65.9482 59.2535 66.0704 59.6245 66.0704 60.0939C66.0704 60.156 66.0637 60.263 66.0503 60.4149L66.0202 60.6737C66.0068 60.7427 65.9699 60.7772 65.9097 60.7772H65.5883C65.5281 60.7772 65.4979 60.7427 65.4979 60.6737L65.5281 60.4149C65.5414 60.2906 65.5482 60.2009 65.5482 60.1456C65.5482 59.8144 65.4678 59.5486 65.3071 59.3484C65.1465 59.1483 64.9254 59.0482 64.6443 59.0482C64.3564 59.0482 64.1053 59.1569 63.8911 59.3743C63.6768 59.5918 63.5462 59.8972 63.4994 60.2906C63.4927 60.339 63.4893 60.4079 63.4893 60.4977C63.4893 60.7738 63.5596 61.0102 63.7002 61.2069C63.8407 61.4036 64.0986 61.6642 64.4735 61.9887C64.7882 62.2647 65.0242 62.4873 65.1815 62.6565C65.3389 62.8255 65.4611 63.0033 65.5482 63.1897C65.6352 63.376 65.6787 63.5935 65.6787 63.842C65.6787 63.8972 65.672 63.9938 65.6586 64.1318C65.5916 64.6979 65.3941 65.1483 65.0661 65.4831C64.738 65.8178 64.3396 65.9852 63.8709 65.9852ZM69.6156 63.3864C69.6022 63.4554 69.5653 63.4899 69.5051 63.4899H67.2655C67.2454 63.4899 67.2287 63.5038 67.2152 63.5313L67.1149 64.4114C67.1081 64.4528 67.1048 64.515 67.1048 64.5978C67.1048 64.867 67.1767 65.0844 67.3207 65.25C67.4647 65.4157 67.6606 65.4986 67.9083 65.4986C68.1359 65.4986 68.3401 65.4261 68.5209 65.2811C68.7017 65.1362 68.8323 64.9463 68.9126 64.7117C68.946 64.6495 68.9862 64.6185 69.0331 64.6185L69.3344 64.6392C69.3612 64.6392 69.3829 64.6461 69.3996 64.6599C69.4164 64.6737 69.4214 64.6945 69.4147 64.722C69.4147 64.7428 69.4114 64.7565 69.4047 64.7634C69.2976 65.1431 69.1068 65.4416 68.8323 65.659C68.5577 65.8765 68.233 65.9852 67.858 65.9852C67.463 65.9852 67.15 65.8678 66.919 65.6332C66.688 65.3984 66.5726 65.0844 66.5726 64.6909C66.5726 64.6357 66.5792 64.5529 66.5926 64.4425L66.8638 62.1543C66.9173 61.6987 67.0948 61.326 67.3961 61.0361C67.6974 60.7462 68.0623 60.6013 68.4908 60.6013C68.8858 60.6013 69.1988 60.7203 69.4298 60.9584C69.6608 61.1966 69.7763 61.5124 69.7763 61.9058C69.7763 61.961 69.7696 62.0438 69.7562 62.1543L69.6156 63.3864ZM68.4405 61.0879C68.166 61.0879 67.93 61.1896 67.7325 61.3933C67.535 61.5969 67.4162 61.8609 67.376 62.1854L67.2855 62.9722C67.2855 62.9861 67.2889 62.9964 67.2956 63.0033C67.3023 63.0102 67.309 63.0136 67.3157 63.0136H69.1034C69.1302 63.0136 69.1436 62.9999 69.1436 62.9722L69.2441 62.1854C69.2507 62.1439 69.2541 62.0853 69.2541 62.0093C69.2541 61.7264 69.1804 61.502 69.0331 61.3363C68.8858 61.1707 68.6883 61.0879 68.4405 61.0879ZM73.2914 60.7876C73.3048 60.7186 73.3416 60.6841 73.4019 60.6841H73.7233C73.7835 60.6841 73.8137 60.7186 73.8137 60.7876L73.2111 65.7988C73.2111 65.8264 73.201 65.8506 73.181 65.8713C73.1609 65.892 73.134 65.9024 73.1006 65.9024H72.7793C72.7524 65.9024 72.7307 65.892 72.7139 65.8713C72.6971 65.8506 72.6922 65.8264 72.6989 65.7988L72.739 65.4261C72.7457 65.4054 72.7441 65.3933 72.734 65.3898C72.724 65.3864 72.7123 65.3916 72.6989 65.4054C72.4444 65.785 72.0895 65.9748 71.6343 65.9748C71.2861 65.9748 71.015 65.8747 70.8208 65.6746C70.6266 65.4744 70.5295 65.1776 70.5295 64.7842C70.5295 64.722 70.5362 64.615 70.5496 64.4632L70.9815 60.7876C70.9882 60.76 71.0015 60.7358 71.0216 60.7152C71.0417 60.6944 71.0652 60.6841 71.0919 60.6841H71.4133C71.4469 60.6841 71.4719 60.6944 71.4887 60.7152C71.5054 60.7358 71.5104 60.76 71.5037 60.7876L71.0819 64.3389C71.0685 64.4632 71.0618 64.5529 71.0618 64.6081C71.0618 64.898 71.1271 65.1172 71.2576 65.2656C71.3883 65.414 71.574 65.4882 71.8151 65.4882C72.103 65.4882 72.3406 65.3778 72.5281 65.1569C72.7156 64.936 72.8328 64.6323 72.8796 64.2458L73.2914 60.7876ZM76.4852 65.9024C76.4584 65.9024 76.4366 65.892 76.4199 65.8713C76.4031 65.8506 76.3981 65.8264 76.4048 65.7988L77.2384 58.7583C77.2451 58.7306 77.2585 58.7065 77.2786 58.6858C77.2987 58.6651 77.3221 58.6547 77.3489 58.6547H77.6703C77.7037 58.6547 77.7289 58.6651 77.7456 58.6858C77.7623 58.7065 77.7674 58.7306 77.7607 58.7583L76.9171 65.7988C76.9171 65.8264 76.907 65.8506 76.8869 65.8713C76.8668 65.892 76.84 65.9024 76.8066 65.9024H76.4852ZM79.237 59.6383C79.1098 59.6383 79.006 59.597 78.9257 59.5141C78.8453 59.4313 78.8052 59.3208 78.8052 59.1828C78.8052 59.0171 78.8587 58.879 78.9658 58.7686C79.073 58.6581 79.2035 58.603 79.3575 58.603C79.4848 58.603 79.5886 58.6427 79.6689 58.722C79.7492 58.8014 79.7894 58.9067 79.7894 59.0378C79.7894 59.2104 79.7359 59.3536 79.6287 59.4675C79.5216 59.5814 79.391 59.6383 79.237 59.6383ZM78.3331 65.9024C78.2661 65.9024 78.2394 65.8678 78.2528 65.7988L78.8453 60.7876C78.8587 60.7186 78.8955 60.6841 78.9558 60.6841H79.2772C79.3442 60.6841 79.3709 60.7186 79.3575 60.7876L78.765 65.7988C78.7516 65.8678 78.7147 65.9024 78.6545 65.9024H78.3331ZM84.58 60.6116C84.9014 60.6116 85.1507 60.7307 85.3282 60.9688C85.5056 61.2069 85.5943 61.5331 85.5943 61.9472C85.5943 62.0232 85.5876 62.1439 85.5742 62.3096L85.1524 65.7988C85.1524 65.8264 85.1424 65.8506 85.1223 65.8713C85.1022 65.892 85.0788 65.9024 85.052 65.9024H84.7205C84.6938 65.9024 84.672 65.892 84.6552 65.8713C84.6386 65.8506 84.6335 65.8264 84.6402 65.7988L85.052 62.3614C85.0654 62.2372 85.0721 62.1439 85.0721 62.0818C85.0721 61.7712 85.0084 61.5297 84.8812 61.3571C84.754 61.1845 84.5799 61.0982 84.359 61.0982C84.0845 61.0982 83.8552 61.2087 83.671 61.4295C83.4869 61.6504 83.3714 61.9541 83.3246 62.3406L82.9128 65.7988C82.9128 65.8264 82.9027 65.8506 82.8826 65.8713C82.8626 65.892 82.8357 65.9024 82.8023 65.9024H82.4809C82.4541 65.9024 82.4324 65.892 82.4157 65.8713C82.3989 65.8506 82.3939 65.8264 82.4006 65.7988L82.8123 62.3614C82.8257 62.2372 82.8324 62.1474 82.8324 62.0922C82.8324 61.7816 82.7689 61.5383 82.6417 61.3622C82.5144 61.1862 82.3403 61.0982 82.1193 61.0982C81.8449 61.0982 81.6139 61.2087 81.4264 61.4295C81.2389 61.6504 81.1218 61.9541 81.0749 62.3406L80.6631 65.7988C80.6631 65.8264 80.6531 65.8506 80.633 65.8713C80.6129 65.892 80.5862 65.9024 80.5526 65.9024H80.2413C80.1743 65.9024 80.1476 65.8678 80.1609 65.7988L80.7535 60.7876C80.7669 60.7186 80.8037 60.6841 80.864 60.6841H81.1753C81.2356 60.6841 81.2657 60.7186 81.2657 60.7876L81.2155 61.1707C81.2155 61.1914 81.2205 61.2035 81.2305 61.2069C81.2406 61.2104 81.2523 61.2018 81.2657 61.181C81.4063 60.9947 81.5703 60.8531 81.7578 60.7566C81.9452 60.6599 82.1395 60.6116 82.3403 60.6116C82.5813 60.6116 82.7839 60.6806 82.9479 60.8187C83.112 60.9567 83.2308 61.1534 83.3044 61.4088C83.3044 61.4433 83.3212 61.4364 83.3546 61.3881C83.4953 61.1327 83.6744 60.9395 83.8919 60.8083C84.1096 60.6772 84.3389 60.6116 84.58 60.6116ZM87.4824 59.6383C87.3552 59.6383 87.2514 59.597 87.1711 59.5141C87.0907 59.4313 87.0506 59.3208 87.0506 59.1828C87.0506 59.0171 87.1041 58.879 87.2113 58.7686C87.3183 58.6581 87.449 58.603 87.603 58.603C87.7302 58.603 87.834 58.6427 87.9143 58.722C87.9947 58.8014 88.0348 58.9067 88.0348 59.0378C88.0348 59.2104 87.9813 59.3536 87.8741 59.4675C87.767 59.5814 87.6364 59.6383 87.4824 59.6383ZM86.5786 65.9024C86.5116 65.9024 86.4848 65.8678 86.4983 65.7988L87.0907 60.7876C87.1042 60.7186 87.1409 60.6841 87.2013 60.6841H87.5226C87.5896 60.6841 87.6164 60.7186 87.603 60.7876L87.0104 65.7988C86.997 65.8678 86.9602 65.9024 86.9 65.9024H86.5786ZM90.5657 61.0154C90.5523 61.0844 90.5154 61.119 90.4552 61.119H89.6718C89.645 61.119 89.6317 61.1327 89.6317 61.1604L89.2299 64.4942C89.2165 64.6323 89.2098 64.722 89.2098 64.7634C89.2098 65.005 89.2584 65.1741 89.3555 65.2708C89.4526 65.3674 89.6048 65.4157 89.8124 65.4157H89.9129C89.9798 65.4157 90.0066 65.4503 89.9932 65.5193L89.9631 65.7988C89.9497 65.8678 89.9129 65.9024 89.8526 65.9024H89.6618C89.3404 65.9024 89.0977 65.835 88.9337 65.7005C88.7696 65.5659 88.6876 65.3191 88.6876 64.9602C88.6876 64.9049 88.6943 64.7945 88.7076 64.6289L89.1195 61.1604C89.1261 61.1534 89.1261 61.1448 89.1195 61.1345C89.1128 61.1241 89.1027 61.119 89.0893 61.119H88.6876C88.6207 61.119 88.5939 61.0844 88.6073 61.0154L88.6273 60.7876C88.6408 60.7186 88.6776 60.6841 88.7378 60.6841H89.1396C89.1663 60.6841 89.1797 60.6703 89.1797 60.6427L89.3203 59.4831C89.3337 59.414 89.3705 59.3795 89.4307 59.3795H89.7421C89.8024 59.3795 89.8325 59.414 89.8325 59.4831L89.6919 60.6427C89.6919 60.6703 89.702 60.6841 89.722 60.6841H90.5054C90.5724 60.6841 90.5992 60.7186 90.5857 60.7876L90.5657 61.0154ZM94.0105 63.3864C93.997 63.4554 93.9602 63.4899 93.9 63.4899H91.6604C91.6402 63.4899 91.6235 63.5038 91.6101 63.5313L91.5097 64.4114C91.503 64.4528 91.4997 64.515 91.4997 64.5978C91.4997 64.867 91.5716 65.0844 91.7156 65.25C91.8596 65.4157 92.0554 65.4986 92.3032 65.4986C92.5308 65.4986 92.735 65.4261 92.9158 65.2811C93.0966 65.1362 93.2271 64.9463 93.3074 64.7117C93.3409 64.6495 93.3811 64.6185 93.428 64.6185L93.7293 64.6392C93.756 64.6392 93.7778 64.6461 93.7945 64.6599C93.8113 64.6737 93.8162 64.6945 93.8096 64.722C93.8096 64.7428 93.8062 64.7565 93.7996 64.7634C93.6924 65.1431 93.5016 65.4416 93.2271 65.659C92.9526 65.8765 92.6279 65.9852 92.2529 65.9852C91.8578 65.9852 91.5449 65.8678 91.3139 65.6332C91.0829 65.3984 90.9674 65.0844 90.9674 64.6909C90.9674 64.6357 90.9741 64.5529 90.9874 64.4425L91.2586 62.1543C91.3122 61.6987 91.4896 61.326 91.7909 61.0361C92.0922 60.7462 92.4571 60.6013 92.8856 60.6013C93.2807 60.6013 93.5937 60.7203 93.8247 60.9584C94.0556 61.1966 94.1712 61.5124 94.1712 61.9058C94.1712 61.961 94.1644 62.0438 94.1511 62.1543L94.0105 63.3864ZM92.8354 61.0879C92.5609 61.0879 92.3249 61.1896 92.1274 61.3933C91.9298 61.5969 91.811 61.8609 91.7708 62.1854L91.6804 62.9722C91.6804 62.9861 91.6838 62.9964 91.6905 63.0033C91.6972 63.0102 91.7039 63.0136 91.7105 63.0136H93.4983C93.525 63.0136 93.5384 62.9999 93.5384 62.9722L93.6389 62.1854C93.6456 62.1439 93.6489 62.0853 93.6489 62.0093C93.6489 61.7264 93.5753 61.502 93.428 61.3363C93.2807 61.1707 93.0832 61.0879 92.8354 61.0879ZM99.8556 63.3864C99.8422 63.4554 99.8053 63.4899 99.7451 63.4899H97.5055C97.4854 63.4899 97.4687 63.5038 97.4552 63.5313L97.3549 64.4114C97.3481 64.4528 97.3448 64.515 97.3448 64.5978C97.3448 64.867 97.4167 65.0844 97.5607 65.25C97.7047 65.4157 97.9006 65.4986 98.1483 65.4986C98.3759 65.4986 98.5801 65.4261 98.7609 65.2811C98.9417 65.1362 99.0723 64.9463 99.1526 64.7117C99.186 64.6495 99.2262 64.6185 99.2731 64.6185L99.5744 64.6392C99.6012 64.6392 99.6229 64.6461 99.6397 64.6599C99.6564 64.6737 99.6614 64.6945 99.6547 64.722C99.6547 64.7428 99.6514 64.7565 99.6447 64.7634C99.5376 65.1431 99.3468 65.4416 99.0723 65.659C98.7977 65.8765 98.473 65.9852 98.098 65.9852C97.703 65.9852 97.39 65.8678 97.159 65.6332C96.928 65.3984 96.8126 65.0844 96.8126 64.6909C96.8126 64.6357 96.8192 64.5529 96.8326 64.4425L97.1038 62.1543C97.1573 61.6987 97.3348 61.326 97.636 61.0361C97.9374 60.7462 98.3023 60.6013 98.7308 60.6013C99.1258 60.6013 99.4388 60.7203 99.6699 60.9584C99.9008 61.1966 100.016 61.5124 100.016 61.9058C100.016 61.961 100.01 62.0438 99.9962 62.1543L99.8556 63.3864ZM98.6806 61.0879C98.406 61.0879 98.17 61.1896 97.9725 61.3933C97.775 61.5969 97.6562 61.8609 97.616 62.1854L97.5256 62.9722C97.5256 62.9861 97.5289 62.9964 97.5357 63.0033C97.5423 63.0102 97.549 63.0136 97.5557 63.0136H99.3434C99.3702 63.0136 99.3836 62.9999 99.3836 62.9722L99.4841 62.1854C99.4907 62.1439 99.4941 62.0853 99.4941 62.0093C99.4941 61.7264 99.4204 61.502 99.2731 61.3363C99.1258 61.1707 98.9283 61.0879 98.6806 61.0879ZM98.4997 59.9903C98.4596 59.9903 98.4345 59.9783 98.4244 59.9541C98.4144 59.93 98.4228 59.9006 98.4496 59.8661L99.1928 58.7272C99.2262 58.6789 99.2664 58.6547 99.3133 58.6547H99.5744C99.6146 58.6547 99.6397 58.6668 99.6497 58.6909C99.6598 58.7151 99.6547 58.7445 99.6347 58.779L98.8211 59.9179C98.7876 59.9662 98.7475 59.9903 98.7007 59.9903H98.4997ZM104.847 60.6116C105.189 60.6116 105.451 60.722 105.635 60.9429C105.82 61.1638 105.912 61.4744 105.912 61.8748C105.912 61.9438 105.905 62.0611 105.892 62.2268L105.47 65.7988C105.456 65.8678 105.42 65.9024 105.359 65.9024H105.038C104.971 65.9024 104.944 65.8678 104.958 65.7988L105.369 62.2786C105.383 62.1543 105.389 62.0646 105.389 62.0093C105.389 61.7195 105.324 61.4951 105.194 61.3363C105.063 61.1776 104.874 61.0982 104.626 61.0982C104.345 61.0982 104.109 61.2087 103.918 61.4295C103.727 61.6504 103.608 61.9541 103.562 62.3406L103.15 65.7988C103.136 65.8678 103.1 65.9024 103.039 65.9024H102.718C102.651 65.9024 102.624 65.8678 102.638 65.7988L103.23 60.7876C103.244 60.7186 103.28 60.6841 103.341 60.6841H103.662C103.722 60.6841 103.752 60.7186 103.752 60.7876L103.702 61.181C103.695 61.2018 103.699 61.2121 103.712 61.2121C103.726 61.2121 103.739 61.2052 103.752 61.1914C104.02 60.8049 104.385 60.6116 104.847 60.6116ZM108.021 65.9852C107.626 65.9852 107.313 65.8661 107.082 65.628C106.851 65.3898 106.735 65.0741 106.735 64.6806C106.735 64.6254 106.742 64.5425 106.755 64.4322L107.026 62.1543C107.08 61.6987 107.257 61.326 107.559 61.0361C107.86 60.7462 108.225 60.6013 108.653 60.6013C109.055 60.6013 109.372 60.7203 109.603 60.9584C109.833 61.1966 109.949 61.5124 109.949 61.9058C109.949 61.961 109.942 62.0438 109.929 62.1543L109.658 64.4322C109.604 64.8946 109.428 65.2691 109.13 65.5555C108.833 65.8419 108.463 65.9852 108.021 65.9852ZM108.071 65.4986C108.352 65.4986 108.593 65.3967 108.794 65.1931C108.995 64.9895 109.112 64.7289 109.146 64.4114L109.417 62.1854C109.423 62.1439 109.427 62.0888 109.427 62.0197C109.427 61.7367 109.351 61.5106 109.201 61.3416C109.05 61.1724 108.851 61.0879 108.603 61.0879C108.329 61.0879 108.093 61.1896 107.895 61.3933C107.698 61.5969 107.579 61.8609 107.539 62.1854L107.278 64.4114C107.271 64.4528 107.267 64.515 107.267 64.5978C107.267 64.867 107.339 65.0844 107.483 65.25C107.627 65.4157 107.823 65.4986 108.071 65.4986ZM111.857 65.9541C111.469 65.9541 111.163 65.8489 110.938 65.6383C110.714 65.4278 110.602 65.1534 110.602 64.8152C110.602 64.7393 110.605 64.6806 110.612 64.6392L110.622 64.5771C110.635 64.5081 110.672 64.4736 110.732 64.4736H111.034C111.101 64.4736 111.127 64.5081 111.114 64.5771V64.6392L111.104 64.7531C111.104 64.974 111.178 65.1552 111.325 65.2967C111.472 65.4382 111.67 65.5089 111.917 65.5089C112.179 65.5089 112.398 65.4244 112.575 65.2553C112.753 65.0861 112.858 64.867 112.892 64.5978L112.902 64.4736C112.902 64.301 112.862 64.1577 112.781 64.0439C112.701 63.93 112.602 63.8385 112.485 63.7695C112.368 63.7005 112.202 63.6142 111.988 63.5107C111.653 63.3588 111.395 63.1948 111.214 63.0189C111.034 62.8428 110.943 62.5823 110.943 62.2372C110.943 61.7609 111.087 61.376 111.375 61.0827C111.663 60.7894 112.028 60.6427 112.47 60.6427C112.852 60.6427 113.149 60.7497 113.364 60.9636C113.578 61.1776 113.685 61.4641 113.685 61.823C113.685 61.9058 113.682 61.9714 113.675 62.0197L113.665 62.0508C113.665 62.0784 113.655 62.1025 113.635 62.1233C113.615 62.1439 113.591 62.1543 113.565 62.1543H113.263C113.237 62.1543 113.215 62.1439 113.198 62.1233C113.181 62.1025 113.176 62.0784 113.183 62.0508L113.193 61.999C113.22 61.7436 113.161 61.5297 113.017 61.3571C112.873 61.1845 112.674 61.0982 112.42 61.0982C112.138 61.0982 111.906 61.1966 111.722 61.3933C111.538 61.59 111.445 61.8368 111.445 62.1336C111.445 62.3614 111.514 62.5357 111.651 62.6565C111.789 62.7773 112.005 62.9102 112.299 63.0551C112.533 63.1656 112.724 63.2673 112.872 63.3605C113.019 63.4537 113.146 63.5831 113.253 63.7488C113.36 63.9145 113.414 64.1181 113.414 64.3597C113.414 64.8359 113.27 65.2208 112.982 65.5141C112.694 65.8074 112.319 65.9541 111.857 65.9541ZM115.121 65.9541C114.733 65.9541 114.427 65.8489 114.202 65.6383C113.978 65.4278 113.866 65.1534 113.866 64.8152C113.866 64.7393 113.869 64.6806 113.876 64.6392L113.886 64.5771C113.899 64.5081 113.936 64.4736 113.996 64.4736H114.298C114.365 64.4736 114.391 64.5081 114.378 64.5771V64.6392L114.368 64.7531C114.368 64.974 114.442 65.1552 114.589 65.2967C114.736 65.4382 114.934 65.5089 115.182 65.5089C115.443 65.5089 115.662 65.4244 115.839 65.2553C116.017 65.0861 116.122 64.867 116.156 64.5978L116.166 64.4736C116.166 64.301 116.126 64.1577 116.045 64.0439C115.965 63.93 115.866 63.8385 115.749 63.7695C115.632 63.7005 115.466 63.6142 115.252 63.5107C114.917 63.3588 114.659 63.1948 114.479 63.0189C114.298 62.8428 114.207 62.5823 114.207 62.2372C114.207 61.7609 114.351 61.376 114.639 61.0827C114.927 60.7894 115.292 60.6427 115.734 60.6427C116.116 60.6427 116.413 60.7497 116.628 60.9636C116.842 61.1776 116.949 61.4641 116.949 61.823C116.949 61.9058 116.946 61.9714 116.939 62.0197L116.929 62.0508C116.929 62.0784 116.919 62.1025 116.899 62.1233C116.879 62.1439 116.855 62.1543 116.829 62.1543H116.527C116.5 62.1543 116.479 62.1439 116.462 62.1233C116.445 62.1025 116.44 62.0784 116.447 62.0508L116.457 61.999C116.484 61.7436 116.425 61.5297 116.281 61.3571C116.137 61.1845 115.938 61.0982 115.684 61.0982C115.402 61.0982 115.17 61.1966 114.986 61.3933C114.802 61.59 114.709 61.8368 114.709 62.1336C114.709 62.3614 114.778 62.5357 114.915 62.6565C115.053 62.7773 115.269 62.9102 115.563 63.0551C115.797 63.1656 115.988 63.2673 116.136 63.3605C116.283 63.4537 116.41 63.5831 116.517 63.7488C116.624 63.9145 116.678 64.1181 116.678 64.3597C116.678 64.8359 116.534 65.2208 116.246 65.5141C115.958 65.8074 115.583 65.9541 115.121 65.9541ZM118.797 65.9852C118.402 65.9852 118.089 65.8661 117.858 65.628C117.627 65.3898 117.512 65.0741 117.512 64.6806C117.512 64.6254 117.518 64.5425 117.532 64.4322L117.803 62.1543C117.856 61.6987 118.034 61.326 118.335 61.0361C118.636 60.7462 119.001 60.6013 119.43 60.6013C119.832 60.6013 120.148 60.7203 120.379 60.9584C120.61 61.1966 120.725 61.5124 120.725 61.9058C120.725 61.961 120.719 62.0438 120.705 62.1543L120.434 64.4322C120.381 64.8946 120.205 65.2691 119.907 65.5555C119.609 65.8419 119.239 65.9852 118.797 65.9852ZM118.847 65.4986C119.128 65.4986 119.37 65.3967 119.57 65.1931C119.771 64.9895 119.888 64.7289 119.922 64.4114L120.193 62.1854C120.2 62.1439 120.203 62.0888 120.203 62.0197C120.203 61.7367 120.128 61.5106 119.977 61.3416C119.826 61.1724 119.627 61.0879 119.38 61.0879C119.105 61.0879 118.869 61.1896 118.671 61.3933C118.474 61.5969 118.355 61.8609 118.315 62.1854L118.054 64.4114C118.047 64.4528 118.044 64.515 118.044 64.5978C118.044 64.867 118.116 65.0844 118.26 65.25C118.404 65.4157 118.6 65.4986 118.847 65.4986ZM125.626 60.6013C125.988 60.6013 126.272 60.7186 126.48 60.9533C126.688 61.1879 126.791 61.4986 126.791 61.8851C126.791 61.9403 126.785 62.0301 126.771 62.1543L126.5 64.4322C126.447 64.8946 126.279 65.2691 125.998 65.5555C125.717 65.8419 125.379 65.9852 124.984 65.9852C124.789 65.9852 124.612 65.9438 124.451 65.861C124.291 65.7781 124.16 65.6573 124.06 65.4986C124.04 65.464 124.023 65.4675 124.009 65.5089L123.738 67.8282C123.725 67.8972 123.688 67.9317 123.628 67.9317H123.306C123.239 67.9317 123.213 67.8972 123.226 67.8282L124.06 60.7876C124.073 60.7186 124.11 60.6841 124.17 60.6841H124.492C124.559 60.6841 124.585 60.7186 124.572 60.7876L124.542 61.0775C124.542 61.0913 124.547 61.0999 124.557 61.1034C124.567 61.1068 124.579 61.1017 124.592 61.0879C124.726 60.9291 124.882 60.8083 125.059 60.7255C125.236 60.6427 125.426 60.6013 125.626 60.6013ZM126.259 62.175C126.266 62.1336 126.269 62.0715 126.269 61.9887C126.269 61.7195 126.194 61.502 126.043 61.3363C125.893 61.1707 125.693 61.0879 125.446 61.0879C125.178 61.0879 124.949 61.1879 124.758 61.3881C124.567 61.5883 124.451 61.8506 124.411 62.175L124.15 64.4114C124.143 64.4528 124.14 64.5184 124.14 64.6081C124.14 64.8773 124.21 65.093 124.351 65.2553C124.492 65.4175 124.682 65.4986 124.923 65.4986C125.198 65.4986 125.436 65.3967 125.636 65.1931C125.837 64.9895 125.958 64.7289 125.998 64.4114L126.259 62.175ZM129.644 60.6427C129.804 60.6427 129.942 60.6772 130.055 60.7462C130.096 60.7807 130.106 60.8256 130.086 60.8808L129.965 61.2328C129.938 61.2949 129.895 61.3122 129.835 61.2846C129.741 61.2432 129.617 61.2259 129.463 61.2328C129.202 61.2397 128.974 61.3778 128.78 61.647C128.586 61.9162 128.465 62.2475 128.418 62.6409L128.037 65.7988C128.023 65.8678 127.987 65.9024 127.926 65.9024H127.605C127.538 65.9024 127.511 65.8678 127.525 65.7988L128.117 60.7876C128.131 60.7186 128.167 60.6841 128.228 60.6841H128.549C128.609 60.6841 128.639 60.7186 128.639 60.7876L128.559 61.4295C128.559 61.4778 128.576 61.4778 128.609 61.4295C128.73 61.181 128.877 60.9878 129.051 60.8497C129.225 60.7117 129.423 60.6427 129.644 60.6427ZM131.572 65.9852C131.177 65.9852 130.864 65.8661 130.633 65.628C130.402 65.3898 130.286 65.0741 130.286 64.6806C130.286 64.6254 130.293 64.5425 130.307 64.4322L130.578 62.1543C130.631 61.6987 130.809 61.326 131.11 61.0361C131.411 60.7462 131.776 60.6013 132.205 60.6013C132.606 60.6013 132.923 60.7203 133.154 60.9584C133.385 61.1966 133.5 61.5124 133.5 61.9058C133.5 61.961 133.494 62.0438 133.48 62.1543L133.209 64.4322C133.155 64.8946 132.98 65.2691 132.682 65.5555C132.384 65.8419 132.014 65.9852 131.572 65.9852ZM131.622 65.4986C131.903 65.4986 132.144 65.3967 132.345 65.1931C132.546 64.9895 132.663 64.7289 132.697 64.4114L132.968 62.1854C132.975 62.1439 132.978 62.0888 132.978 62.0197C132.978 61.7367 132.903 61.5106 132.752 61.3416C132.601 61.1724 132.402 61.0879 132.154 61.0879C131.88 61.0879 131.644 61.1896 131.446 61.3933C131.249 61.5969 131.13 61.8609 131.09 62.1854L130.829 64.4114C130.822 64.4528 130.819 64.515 130.819 64.5978C130.819 64.867 130.891 65.0844 131.035 65.25C131.179 65.4157 131.374 65.4986 131.622 65.4986ZM132.004 59.9903C131.964 59.9903 131.939 59.9783 131.929 59.9541C131.918 59.93 131.927 59.9006 131.954 59.8661L132.697 58.7272C132.73 58.6789 132.77 58.6547 132.817 58.6547H133.078C133.119 58.6547 133.144 58.6668 133.154 58.6909C133.164 58.7151 133.159 58.7445 133.139 58.779L132.325 59.9179C132.292 59.9662 132.252 59.9903 132.205 59.9903H132.004ZM133.822 65.9024C133.788 65.9024 133.766 65.8903 133.756 65.8661C133.746 65.8419 133.748 65.8127 133.761 65.7781L135.268 63.3243C135.281 63.3036 135.281 63.2829 135.268 63.2621L134.354 60.8083L134.344 60.7772C134.344 60.7151 134.377 60.6841 134.444 60.6841H134.806C134.873 60.6841 134.91 60.7083 134.916 60.7566L135.609 62.7652C135.616 62.779 135.626 62.7859 135.639 62.7859C135.653 62.7859 135.663 62.779 135.67 62.7652L136.845 60.7566C136.871 60.7083 136.915 60.6841 136.975 60.6841H137.337C137.37 60.6841 137.392 60.6961 137.402 60.7203C137.412 60.7445 137.407 60.7738 137.387 60.8083L135.901 63.2621C135.88 63.2829 135.877 63.3036 135.891 63.3243L136.794 65.7781L136.804 65.8195C136.804 65.8747 136.774 65.9024 136.714 65.9024H136.353C136.286 65.9024 136.249 65.8782 136.242 65.8299L135.549 63.8213C135.542 63.8075 135.532 63.8006 135.519 63.8006C135.506 63.8006 135.495 63.8075 135.489 63.8213L134.314 65.8299C134.287 65.8782 134.247 65.9024 134.193 65.9024H133.822ZM138.753 59.6383C138.626 59.6383 138.522 59.597 138.441 59.5141C138.361 59.4313 138.321 59.3208 138.321 59.1828C138.321 59.0171 138.375 58.879 138.482 58.7686C138.589 58.6581 138.719 58.603 138.873 58.603C139.001 58.603 139.104 58.6427 139.185 58.722C139.265 58.8014 139.305 58.9067 139.305 59.0378C139.305 59.2104 139.252 59.3536 139.145 59.4675C139.037 59.5814 138.907 59.6383 138.753 59.6383ZM137.849 65.9024C137.782 65.9024 137.755 65.8678 137.769 65.7988L138.361 60.7876C138.375 60.7186 138.411 60.6841 138.472 60.6841H138.793C138.86 60.6841 138.887 60.7186 138.873 60.7876L138.281 65.7988C138.267 65.8678 138.231 65.9024 138.17 65.9024H137.849ZM144.096 60.6116C144.417 60.6116 144.667 60.7307 144.844 60.9688C145.021 61.2069 145.11 61.5331 145.11 61.9472C145.11 62.0232 145.103 62.1439 145.09 62.3096L144.668 65.7988C144.668 65.8264 144.658 65.8506 144.638 65.8713C144.618 65.892 144.595 65.9024 144.568 65.9024H144.236C144.21 65.9024 144.188 65.892 144.171 65.8713C144.154 65.8506 144.149 65.8264 144.156 65.7988L144.568 62.3614C144.581 62.2372 144.588 62.1439 144.588 62.0818C144.588 61.7712 144.524 61.5297 144.397 61.3571C144.27 61.1845 144.096 61.0982 143.875 61.0982C143.6 61.0982 143.371 61.2087 143.187 61.4295C143.003 61.6504 142.887 61.9541 142.84 62.3406L142.429 65.7988C142.429 65.8264 142.419 65.8506 142.398 65.8713C142.378 65.892 142.352 65.9024 142.318 65.9024H141.997C141.97 65.9024 141.948 65.892 141.931 65.8713C141.915 65.8506 141.91 65.8264 141.916 65.7988L142.328 62.3614C142.342 62.2372 142.348 62.1474 142.348 62.0922C142.348 61.7816 142.285 61.5383 142.157 61.3622C142.03 61.1862 141.856 61.0982 141.635 61.0982C141.361 61.0982 141.13 61.2087 140.942 61.4295C140.755 61.6504 140.638 61.9541 140.591 62.3406L140.179 65.7988C140.179 65.8264 140.169 65.8506 140.149 65.8713C140.129 65.892 140.102 65.9024 140.068 65.9024H139.757C139.69 65.9024 139.663 65.8678 139.677 65.7988L140.269 60.7876C140.283 60.7186 140.32 60.6841 140.38 60.6841H140.691C140.751 60.6841 140.782 60.7186 140.782 60.7876L140.731 61.1707C140.731 61.1914 140.736 61.2035 140.746 61.2069C140.756 61.2104 140.768 61.2018 140.782 61.181C140.922 60.9947 141.086 60.8531 141.274 60.7566C141.461 60.6599 141.655 60.6116 141.856 60.6116C142.097 60.6116 142.3 60.6806 142.464 60.8187C142.628 60.9567 142.747 61.1534 142.82 61.4088C142.82 61.4433 142.837 61.4364 142.87 61.3881C143.011 61.1327 143.19 60.9395 143.408 60.8083C143.625 60.6772 143.855 60.6116 144.096 60.6116Z" fill="#5D8A9F" stroke="#A9ABAE" stroke-width="0.288" stroke-miterlimit="22.9256"/>
<path d="M147.229 65.9852C146.834 65.9852 146.521 65.8661 146.29 65.628C146.059 65.3899 145.944 65.0741 145.944 64.6806C145.944 64.6254 145.951 64.5426 145.964 64.4322L146.235 62.1543C146.289 61.6987 146.466 61.326 146.767 61.0361C147.069 60.7462 147.434 60.6013 147.862 60.6013C148.264 60.6013 148.58 60.7203 148.811 60.9584C149.042 61.1966 149.158 61.5124 149.158 61.9058C149.158 61.961 149.151 62.0438 149.138 62.1543L148.866 64.4322C148.813 64.8946 148.637 65.2691 148.339 65.5555C148.041 65.842 147.671 65.9852 147.229 65.9852ZM147.28 65.4986C147.561 65.4986 147.802 65.3967 148.003 65.1932C148.204 64.9895 148.321 64.7289 148.354 64.4114L148.625 62.1854C148.632 62.144 148.635 62.0888 148.635 62.0197C148.635 61.7367 148.56 61.5107 148.409 61.3416C148.259 61.1724 148.06 61.0879 147.812 61.0879C147.537 61.0879 147.301 61.1897 147.104 61.3933C146.906 61.5969 146.787 61.8609 146.747 62.1854L146.486 64.4114C146.479 64.4529 146.476 64.515 146.476 64.5978C146.476 64.867 146.548 65.0844 146.692 65.2501C146.836 65.4158 147.032 65.4986 147.28 65.4986ZM154.059 60.6013C154.42 60.6013 154.705 60.7186 154.912 60.9533C155.12 61.1879 155.224 61.4986 155.224 61.8851C155.224 61.9404 155.217 62.0301 155.204 62.1543L154.933 64.4322C154.879 64.8946 154.712 65.2691 154.43 65.5555C154.149 65.842 153.811 65.9852 153.416 65.9852C153.222 65.9852 153.044 65.9438 152.884 65.861C152.723 65.7782 152.592 65.6573 152.492 65.4986C152.472 65.4641 152.455 65.4675 152.442 65.5089L152.171 67.8282C152.157 67.8972 152.12 67.9317 152.06 67.9317H151.739C151.672 67.9317 151.645 67.8972 151.658 67.8282L152.492 60.7876C152.505 60.7186 152.542 60.6841 152.602 60.6841H152.924C152.991 60.6841 153.018 60.7186 153.004 60.7876L152.974 61.0775C152.974 61.0913 152.979 61.1 152.989 61.1034C152.999 61.1069 153.011 61.1017 153.024 61.0879C153.158 60.9291 153.314 60.8083 153.491 60.7255C153.669 60.6427 153.858 60.6013 154.059 60.6013ZM154.691 62.175C154.698 62.1336 154.701 62.0715 154.701 61.9887C154.701 61.7195 154.626 61.502 154.476 61.3363C154.325 61.1707 154.126 61.0879 153.878 61.0879C153.61 61.0879 153.381 61.1879 153.19 61.3882C152.999 61.5883 152.884 61.8506 152.844 62.175L152.582 64.4114C152.576 64.4529 152.572 64.5184 152.572 64.6081C152.572 64.8773 152.643 65.093 152.783 65.2553C152.924 65.4175 153.115 65.4986 153.356 65.4986C153.63 65.4986 153.868 65.3967 154.069 65.1932C154.27 64.9895 154.39 64.7289 154.43 64.4114L154.691 62.175ZM157.263 65.9852C156.867 65.9852 156.554 65.8661 156.323 65.628C156.092 65.3899 155.977 65.0741 155.977 64.6806C155.977 64.6254 155.984 64.5426 155.997 64.4322L156.268 62.1543C156.322 61.6987 156.499 61.326 156.8 61.0361C157.102 60.7462 157.467 60.6013 157.895 60.6013C158.297 60.6013 158.613 60.7203 158.844 60.9584C159.075 61.1966 159.191 61.5124 159.191 61.9058C159.191 61.961 159.184 62.0438 159.171 62.1543L158.9 64.4322C158.846 64.8946 158.67 65.2691 158.372 65.5555C158.074 65.842 157.704 65.9852 157.263 65.9852ZM157.313 65.4986C157.594 65.4986 157.835 65.3967 158.036 65.1932C158.237 64.9895 158.354 64.7289 158.387 64.4114L158.659 62.1854C158.665 62.144 158.669 62.0888 158.669 62.0197C158.669 61.7367 158.593 61.5107 158.443 61.3416C158.292 61.1724 158.093 61.0879 157.845 61.0879C157.571 61.0879 157.334 61.1897 157.137 61.3933C156.939 61.5969 156.821 61.8609 156.78 62.1854L156.519 64.4114C156.513 64.4529 156.509 64.515 156.509 64.5978C156.509 64.867 156.581 65.0844 156.725 65.2501C156.869 65.4158 157.065 65.4986 157.313 65.4986ZM162.133 60.6116C162.475 60.6116 162.738 60.7221 162.922 60.9429C163.106 61.1638 163.198 61.4744 163.198 61.8748C163.198 61.9438 163.191 62.0611 163.178 62.2268L162.756 65.7988C162.743 65.8679 162.706 65.9024 162.646 65.9024H162.324C162.257 65.9024 162.231 65.8679 162.244 65.7988L162.656 62.2786C162.669 62.1543 162.676 62.0646 162.676 62.0093C162.676 61.7195 162.61 61.4952 162.48 61.3363C162.349 61.1776 162.16 61.0982 161.913 61.0982C161.631 61.0982 161.395 61.2087 161.204 61.4296C161.014 61.6504 160.895 61.9541 160.848 62.3407L160.436 65.7988C160.423 65.8679 160.386 65.9024 160.326 65.9024H160.004C159.937 65.9024 159.911 65.8679 159.924 65.7988L160.516 60.7876C160.53 60.7186 160.567 60.6841 160.627 60.6841H160.948C161.009 60.6841 161.039 60.7186 161.039 60.7876L160.989 61.1811C160.982 61.2018 160.985 61.2121 160.999 61.2121C161.012 61.2121 161.025 61.2052 161.039 61.1914C161.307 60.8049 161.671 60.6116 162.133 60.6116ZM166.161 61.0154C166.147 61.0845 166.111 61.119 166.05 61.119H165.267C165.24 61.119 165.227 61.1328 165.227 61.1604L164.825 64.4943C164.812 64.6323 164.805 64.722 164.805 64.7634C164.805 65.0051 164.854 65.1741 164.951 65.2708C165.048 65.3675 165.2 65.4158 165.408 65.4158H165.508C165.575 65.4158 165.602 65.4503 165.588 65.5193L165.558 65.7988C165.545 65.8679 165.508 65.9024 165.448 65.9024H165.257C164.936 65.9024 164.693 65.8351 164.529 65.7005C164.365 65.5659 164.283 65.3191 164.283 64.9602C164.283 64.905 164.289 64.7945 164.303 64.6289L164.715 61.1604C164.721 61.1534 164.721 61.1448 164.715 61.1345C164.708 61.1241 164.698 61.119 164.684 61.119H164.283C164.216 61.119 164.189 61.0845 164.202 61.0154L164.222 60.7876C164.236 60.7186 164.273 60.6841 164.333 60.6841H164.735C164.761 60.6841 164.775 60.6703 164.775 60.6427L164.915 59.4831C164.929 59.414 164.966 59.3795 165.026 59.3795H165.337C165.398 59.3795 165.428 59.414 165.428 59.4831L165.287 60.6427C165.287 60.6703 165.297 60.6841 165.317 60.6841H166.101C166.167 60.6841 166.194 60.7186 166.181 60.7876L166.161 61.0154ZM167.848 65.9852C167.453 65.9852 167.14 65.8661 166.909 65.628C166.678 65.3899 166.563 65.0741 166.563 64.6806C166.563 64.6254 166.569 64.5426 166.583 64.4322L166.854 62.1543C166.907 61.6987 167.085 61.326 167.386 61.0361C167.687 60.7462 168.052 60.6013 168.481 60.6013C168.882 60.6013 169.199 60.7203 169.43 60.9584C169.661 61.1966 169.776 61.5124 169.776 61.9058C169.776 61.961 169.77 62.0438 169.756 62.1543L169.485 64.4322C169.431 64.8946 169.256 65.2691 168.958 65.5555C168.66 65.842 168.29 65.9852 167.848 65.9852ZM167.898 65.4986C168.179 65.4986 168.42 65.3967 168.621 65.1932C168.822 64.9895 168.939 64.7289 168.973 64.4114L169.244 62.1854C169.251 62.144 169.254 62.0888 169.254 62.0197C169.254 61.7367 169.179 61.5107 169.028 61.3416C168.877 61.1724 168.678 61.0879 168.431 61.0879C168.156 61.0879 167.92 61.1897 167.722 61.3933C167.525 61.5969 167.406 61.8609 167.366 62.1854L167.105 64.4114C167.098 64.4529 167.095 64.515 167.095 64.5978C167.095 64.867 167.167 65.0844 167.311 65.2501C167.455 65.4158 167.651 65.4986 167.898 65.4986ZM175.531 58.7583C175.538 58.7306 175.551 58.7065 175.571 58.6858C175.591 58.6651 175.615 58.6547 175.642 58.6547H175.963C175.996 58.6547 176.021 58.6651 176.038 58.6858C176.055 58.7065 176.06 58.7306 176.053 58.7583L175.21 65.7988C175.21 65.8265 175.2 65.8506 175.18 65.8713C175.159 65.892 175.133 65.9024 175.099 65.9024H174.778C174.751 65.9024 174.729 65.892 174.713 65.8713C174.696 65.8506 174.691 65.8265 174.697 65.7988L174.728 65.5089C174.734 65.4951 174.733 65.4865 174.723 65.4831C174.713 65.4796 174.701 65.4848 174.687 65.4986C174.553 65.6573 174.396 65.7782 174.215 65.861C174.035 65.9438 173.847 65.9852 173.653 65.9852C173.291 65.9852 173.007 65.8661 172.799 65.628C172.592 65.3899 172.488 65.0775 172.488 64.691C172.488 64.5806 172.491 64.4977 172.498 64.4425L172.769 62.1543C172.823 61.6919 172.99 61.3174 173.271 61.0309C173.553 60.7445 173.894 60.6013 174.296 60.6013C174.49 60.6013 174.666 60.6427 174.823 60.7255C174.98 60.8083 175.109 60.9291 175.21 61.0879C175.216 61.1017 175.226 61.1069 175.24 61.1034C175.253 61.1 175.26 61.0913 175.26 61.0775L175.531 58.7583ZM173.824 65.4986C174.091 65.4986 174.323 65.3985 174.517 65.1983C174.711 64.9982 174.825 64.7359 174.858 64.4114L175.129 62.1854C175.136 62.144 175.139 62.0784 175.139 61.9887C175.139 61.7195 175.069 61.502 174.928 61.3363C174.788 61.1707 174.597 61.0879 174.356 61.0879C174.075 61.0879 173.834 61.1897 173.633 61.3933C173.432 61.5969 173.312 61.8609 173.271 62.1854L173.01 64.4114C173.004 64.4529 173 64.515 173 64.5978C173 64.867 173.075 65.0844 173.226 65.2501C173.377 65.4158 173.576 65.4986 173.824 65.4986ZM179.578 63.3864C179.565 63.4554 179.528 63.4899 179.468 63.4899H177.228C177.208 63.4899 177.192 63.5038 177.178 63.5313L177.078 64.4114C177.071 64.4529 177.068 64.515 177.068 64.5978C177.068 64.867 177.14 65.0844 177.284 65.2501C177.427 65.4158 177.623 65.4986 177.871 65.4986C178.099 65.4986 178.303 65.4261 178.484 65.2811C178.665 65.1362 178.795 64.9464 178.875 64.7117C178.909 64.6495 178.949 64.6185 178.996 64.6185L179.297 64.6392C179.324 64.6392 179.346 64.6461 179.363 64.66C179.379 64.6737 179.384 64.6945 179.378 64.722C179.378 64.7428 179.374 64.7566 179.368 64.7634C179.26 65.1431 179.07 65.4417 178.795 65.659C178.521 65.8765 178.196 65.9852 177.821 65.9852C177.426 65.9852 177.113 65.8679 176.882 65.6332C176.651 65.3985 176.535 65.0844 176.535 64.691C176.535 64.6358 176.542 64.553 176.555 64.4425L176.827 62.1543C176.88 61.6987 177.058 61.326 177.359 61.0361C177.66 60.7462 178.025 60.6013 178.454 60.6013C178.849 60.6013 179.162 60.7203 179.393 60.9584C179.624 61.1966 179.739 61.5124 179.739 61.9058C179.739 61.961 179.732 62.0438 179.719 62.1543L179.578 63.3864ZM178.403 61.0879C178.129 61.0879 177.893 61.1897 177.695 61.3933C177.498 61.5969 177.379 61.8609 177.339 62.1854L177.248 62.9722C177.248 62.9861 177.252 62.9964 177.258 63.0033C177.265 63.0102 177.272 63.0137 177.279 63.0137H179.066C179.093 63.0137 179.106 62.9999 179.106 62.9722L179.207 62.1854C179.214 62.144 179.217 62.0853 179.217 62.0093C179.217 61.7264 179.143 61.502 178.996 61.3363C178.849 61.1707 178.651 61.0879 178.403 61.0879ZM184.58 60.6013C184.942 60.6013 185.226 60.7186 185.434 60.9533C185.641 61.1879 185.745 61.4986 185.745 61.8851C185.745 61.9404 185.738 62.0301 185.725 62.1543L185.454 64.4322C185.4 64.8946 185.233 65.2691 184.952 65.5555C184.67 65.842 184.332 65.9852 183.937 65.9852C183.743 65.9852 183.566 65.9438 183.405 65.861C183.244 65.7782 183.114 65.6573 183.013 65.4986C182.993 65.4641 182.976 65.4675 182.963 65.5089L182.692 67.8282C182.678 67.8972 182.642 67.9317 182.581 67.9317H182.26C182.193 67.9317 182.166 67.8972 182.18 67.8282L183.013 60.7876C183.027 60.7186 183.063 60.6841 183.124 60.6841H183.445C183.512 60.6841 183.539 60.7186 183.525 60.7876L183.495 61.0775C183.495 61.0913 183.5 61.1 183.51 61.1034C183.52 61.1069 183.532 61.1017 183.545 61.0879C183.679 60.9291 183.835 60.8083 184.013 60.7255C184.19 60.6427 184.379 60.6013 184.58 60.6013ZM185.213 62.175C185.219 62.1336 185.223 62.0715 185.223 61.9887C185.223 61.7195 185.147 61.502 184.997 61.3363C184.846 61.1707 184.647 61.0879 184.399 61.0879C184.131 61.0879 183.902 61.1879 183.711 61.3882C183.52 61.5883 183.405 61.8506 183.365 62.175L183.104 64.4114C183.097 64.4529 183.094 64.5184 183.094 64.6081C183.094 64.8773 183.164 65.093 183.304 65.2553C183.445 65.4175 183.636 65.4986 183.877 65.4986C184.151 65.4986 184.389 65.3967 184.59 65.1932C184.791 64.9895 184.911 64.7289 184.952 64.4114L185.213 62.175ZM189.31 60.7876C189.324 60.7186 189.361 60.6841 189.421 60.6841H189.742C189.802 60.6841 189.833 60.7186 189.833 60.7876L189.23 65.7988C189.23 65.8265 189.22 65.8506 189.2 65.8713C189.18 65.892 189.153 65.9024 189.119 65.9024H188.798C188.771 65.9024 188.75 65.892 188.733 65.8713C188.716 65.8506 188.711 65.8265 188.718 65.7988L188.768 65.395C188.768 65.3743 188.761 65.3622 188.748 65.3588C188.735 65.3553 188.724 65.364 188.718 65.3847C188.591 65.5779 188.433 65.7263 188.246 65.8299C188.058 65.9334 187.857 65.9852 187.643 65.9852C187.282 65.9852 187 65.8713 186.8 65.6435C186.599 65.4158 186.498 65.1086 186.498 64.722C186.498 64.6668 186.505 64.5702 186.518 64.4322L186.789 62.1543C186.843 61.6919 187.005 61.3174 187.277 61.0309C187.548 60.7445 187.884 60.6013 188.286 60.6013C188.5 60.6013 188.688 60.653 188.848 60.7566C189.009 60.8601 189.133 61.0085 189.22 61.2018C189.227 61.2225 189.235 61.2311 189.245 61.2276C189.255 61.2242 189.263 61.2121 189.27 61.1914L189.31 60.7876ZM187.844 65.4986C188.112 65.4986 188.343 65.3985 188.537 65.1983C188.731 64.9982 188.845 64.7359 188.878 64.4114L189.15 62.1854C189.156 62.144 189.16 62.0784 189.16 61.9887C189.16 61.7195 189.089 61.502 188.949 61.3363C188.808 61.1707 188.617 61.0879 188.376 61.0879C188.095 61.0879 187.856 61.1897 187.658 61.3933C187.461 61.5969 187.342 61.8609 187.302 62.1854L187.041 64.4114C187.034 64.4529 187.03 64.515 187.03 64.5978C187.03 64.867 187.104 65.0844 187.251 65.2501C187.399 65.4158 187.596 65.4986 187.844 65.4986ZM192.655 60.6427C192.815 60.6427 192.953 60.6772 193.066 60.7462C193.107 60.7807 193.117 60.8256 193.097 60.8808L192.976 61.2329C192.949 61.2949 192.906 61.3122 192.845 61.2846C192.752 61.2432 192.628 61.2259 192.474 61.2329C192.213 61.2397 191.985 61.3778 191.791 61.647C191.597 61.9162 191.476 62.2475 191.429 62.6409L191.048 65.7988C191.034 65.8679 190.998 65.9024 190.937 65.9024H190.616C190.549 65.9024 190.522 65.8679 190.536 65.7988L191.128 60.7876C191.142 60.7186 191.178 60.6841 191.239 60.6841H191.56C191.62 60.6841 191.65 60.7186 191.65 60.7876L191.57 61.4296C191.57 61.4779 191.587 61.4779 191.62 61.4296C191.741 61.181 191.888 60.9878 192.062 60.8497C192.236 60.7117 192.434 60.6427 192.655 60.6427ZM195.467 61.0154C195.453 61.0845 195.417 61.119 195.356 61.119H194.573C194.546 61.119 194.533 61.1328 194.533 61.1604L194.131 64.4943C194.118 64.6323 194.111 64.722 194.111 64.7634C194.111 65.0051 194.16 65.1741 194.257 65.2708C194.354 65.3675 194.506 65.4158 194.714 65.4158H194.814C194.881 65.4158 194.908 65.4503 194.894 65.5193L194.864 65.7988C194.851 65.8679 194.814 65.9024 194.754 65.9024H194.563C194.241 65.9024 193.999 65.8351 193.835 65.7005C193.671 65.5659 193.589 65.3191 193.589 64.9602C193.589 64.905 193.595 64.7945 193.609 64.6289L194.021 61.1604C194.027 61.1534 194.027 61.1448 194.021 61.1345C194.014 61.1241 194.004 61.119 193.99 61.119H193.589C193.522 61.119 193.495 61.0845 193.508 61.0154L193.528 60.7876C193.542 60.7186 193.579 60.6841 193.639 60.6841H194.041C194.067 60.6841 194.081 60.6703 194.081 60.6427L194.221 59.4831C194.235 59.414 194.272 59.3795 194.332 59.3795H194.643C194.703 59.3795 194.734 59.414 194.734 59.4831L194.593 60.6427C194.593 60.6703 194.603 60.6841 194.623 60.6841H195.406C195.473 60.6841 195.5 60.7186 195.487 60.7876L195.467 61.0154ZM196.923 59.6384C196.796 59.6384 196.692 59.597 196.612 59.5141C196.531 59.4313 196.491 59.3208 196.491 59.1828C196.491 59.0171 196.545 58.879 196.652 58.7686C196.759 58.6582 196.89 58.603 197.044 58.603C197.171 58.603 197.275 58.6427 197.355 58.722C197.435 58.8014 197.475 58.9067 197.475 59.0379C197.475 59.2104 197.422 59.3536 197.315 59.4675C197.208 59.5814 197.077 59.6384 196.923 59.6384ZM196.019 65.9024C195.952 65.9024 195.925 65.8679 195.939 65.7988L196.531 60.7876C196.545 60.7186 196.581 60.6841 196.642 60.6841H196.963C197.03 60.6841 197.057 60.7186 197.044 60.7876L196.451 65.7988C196.438 65.8679 196.401 65.9024 196.341 65.9024H196.019ZM200.92 58.7583C200.927 58.7306 200.94 58.7065 200.96 58.6858C200.98 58.6651 201.004 58.6547 201.031 58.6547H201.352C201.385 58.6547 201.411 58.6651 201.427 58.6858C201.444 58.7065 201.449 58.7306 201.442 58.7583L200.599 65.7988C200.599 65.8265 200.589 65.8506 200.569 65.8713C200.549 65.892 200.522 65.9024 200.488 65.9024H200.167C200.14 65.9024 200.118 65.892 200.102 65.8713C200.085 65.8506 200.08 65.8265 200.087 65.7988L200.117 65.5089C200.123 65.4951 200.122 65.4865 200.112 65.4831C200.102 65.4796 200.09 65.4848 200.077 65.4986C199.943 65.6573 199.785 65.7782 199.605 65.861C199.424 65.9438 199.236 65.9852 199.042 65.9852C198.681 65.9852 198.396 65.8661 198.188 65.628C197.981 65.3899 197.877 65.0775 197.877 64.691C197.877 64.5806 197.88 64.4977 197.887 64.4425L198.158 62.1543C198.212 61.6919 198.379 61.3174 198.66 61.0309C198.942 60.7445 199.283 60.6013 199.685 60.6013C199.879 60.6013 200.055 60.6427 200.212 60.7255C200.369 60.8083 200.498 60.9291 200.599 61.0879C200.605 61.1017 200.616 61.1069 200.629 61.1034C200.642 61.1 200.649 61.0913 200.649 61.0775L200.92 58.7583ZM199.213 65.4986C199.481 65.4986 199.712 65.3985 199.906 65.1983C200.1 64.9982 200.214 64.7359 200.247 64.4114L200.518 62.1854C200.525 62.144 200.528 62.0784 200.528 61.9887C200.528 61.7195 200.458 61.502 200.318 61.3363C200.177 61.1707 199.986 61.0879 199.745 61.0879C199.464 61.0879 199.223 61.1897 199.022 61.3933C198.821 61.5969 198.701 61.8609 198.66 62.1854L198.399 64.4114C198.393 64.4529 198.389 64.515 198.389 64.5978C198.389 64.867 198.465 65.0844 198.615 65.2501C198.766 65.4158 198.965 65.4986 199.213 65.4986ZM204.737 60.7876C204.75 60.7186 204.787 60.6841 204.847 60.6841H205.168C205.229 60.6841 205.259 60.7186 205.259 60.7876L204.656 65.7988C204.656 65.8265 204.646 65.8506 204.626 65.8713C204.606 65.892 204.579 65.9024 204.546 65.9024H204.224C204.198 65.9024 204.176 65.892 204.159 65.8713C204.142 65.8506 204.137 65.8265 204.144 65.7988L204.194 65.395C204.194 65.3743 204.188 65.3622 204.174 65.3588C204.161 65.3553 204.151 65.364 204.144 65.3847C204.017 65.5779 203.859 65.7263 203.672 65.8299C203.485 65.9334 203.284 65.9852 203.069 65.9852C202.708 65.9852 202.427 65.8713 202.226 65.6435C202.025 65.4158 201.924 65.1086 201.924 64.722C201.924 64.6668 201.931 64.5702 201.945 64.4322L202.216 62.1543C202.269 61.6919 202.432 61.3174 202.703 61.0309C202.974 60.7445 203.31 60.6013 203.712 60.6013C203.926 60.6013 204.114 60.653 204.275 60.7566C204.435 60.8601 204.559 61.0085 204.646 61.2018C204.653 61.2225 204.661 61.2311 204.671 61.2276C204.681 61.2242 204.69 61.2121 204.696 61.1914L204.737 60.7876ZM203.27 65.4986C203.538 65.4986 203.769 65.3985 203.963 65.1983C204.157 64.9982 204.271 64.7359 204.305 64.4114L204.576 62.1854C204.583 62.144 204.586 62.0784 204.586 61.9887C204.586 61.7195 204.516 61.502 204.375 61.3363C204.234 61.1707 204.044 61.0879 203.803 61.0879C203.521 61.0879 203.282 61.1897 203.084 61.3933C202.887 61.5969 202.768 61.8609 202.728 62.1854L202.467 64.4114C202.46 64.4529 202.457 64.515 202.457 64.5978C202.457 64.867 202.53 65.0844 202.678 65.2501C202.825 65.4158 203.023 65.4986 203.27 65.4986ZM206.183 65.861C206.056 65.861 205.952 65.8213 205.871 65.7419C205.791 65.6625 205.751 65.5573 205.751 65.4261C205.751 65.2536 205.804 65.1103 205.912 64.9964C206.019 64.8826 206.153 64.8256 206.313 64.8256C206.441 64.8256 206.543 64.867 206.62 64.9498C206.697 65.0327 206.735 65.1431 206.735 65.2811C206.735 65.4468 206.682 65.5848 206.574 65.6953C206.467 65.8057 206.337 65.861 206.183 65.861Z" fill="#5D8A9F" stroke="#A9ABAE" stroke-width="0.288" stroke-miterlimit="22.9256"/>
<path fill-rule="evenodd" clip-rule="evenodd" d="M23.4257 44.0034L22.595 43.5097L36.748 34.9499L36.703 23.7693C36.0286 23.5838 35.5544 23.0674 35.5296 22.2353C35.5172 21.8212 35.688 21.414 35.9757 21.1138C36.266 20.811 36.6757 20.6172 37.124 20.6221C37.2235 20.6232 37.3215 20.6302 37.4189 20.648C37.6515 20.6907 37.8751 20.784 38.063 20.9214C38.2144 21.032 38.3496 21.1676 38.4543 21.3222C38.6326 21.5849 38.7314 21.8998 38.733 22.2196C38.7369 23.0279 38.2456 23.5738 37.5728 23.7659L37.6128 34.4269L42.8099 31.2835L42.7667 20.5217C42.0922 20.3361 41.5952 19.7205 41.5916 18.9871C41.5893 18.5237 41.7829 18.1079 42.0965 17.8143C42.3808 17.548 42.7643 17.3812 43.1847 17.3793C43.4702 17.378 43.7453 17.4545 43.9846 17.5876C44.1789 17.6956 44.3455 17.8467 44.4744 18.0186C44.6826 18.2962 44.7961 18.634 44.7949 18.9714C44.792 19.7798 44.3062 20.3254 43.6334 20.5175L43.6786 31.7707L23.4257 44.0034Z" fill="#FEFEFE" stroke="#FEFEFE" stroke-width="0.288" stroke-miterlimit="22.9256"/>
<defs>
<linearGradient id="paint0_linear_322_485" x1="8.43801" y1="21.8831" x2="30.4648" y2="40.9492" gradientUnits="userSpaceOnUse">
<stop stop-color="#012437"/>
<stop offset="1" stop-color="#1BABCA"/>
</linearGradient>
<linearGradient id="paint1_linear_322_485" x1="50.1356" y1="45.758" x2="30.0541" y2="61.9771" gradientUnits="userSpaceOnUse">
<stop stop-color="#056687"/>
<stop offset="0.568627" stop-color="#0F81A3"/>
<stop offset="1" stop-color="#199CC0"/>
</linearGradient>
</defs>
</svg>
