<svg width="139" height="46" viewBox="0 0 139 46" fill="none" xmlns="http://www.w3.org/2000/svg">
<path fill-rule="evenodd" clip-rule="evenodd" d="M17.196 0.0091487L5.3106 7.63291L5.30945 22.6644L15.9633 29.026L19.4784 26.8972L25.3921 23.3156L25.3621 15.8534C24.9129 15.7292 24.5823 15.3182 24.5803 14.8289C24.5779 14.2395 25.0535 13.7597 25.6426 13.7574C26.2316 13.755 26.711 14.2309 26.7134 14.8203C26.7154 15.3097 26.3879 15.7235 25.9395 15.8512L25.9682 22.9667L29.4306 20.8697L29.4017 13.6901C28.9525 13.5658 28.6218 13.1548 28.6199 12.6656C28.6175 12.0761 29.0931 11.5963 29.6821 11.594C30.2712 11.5916 30.7506 12.0675 30.753 12.657C30.7549 13.1463 30.4275 13.56 29.9792 13.6878L30.0093 21.1855L30.0093 21.1947L19.4783 27.5641L16.5167 29.3554L19.4436 31.1175H19.4716L33.6053 22.6226V7.63307L21.6202 0L21.6142 16.0272L19.4265 16.023L17.1946 16.0228L17.196 0.0091487Z" fill="url(#paint0_linear_27_175)"/>
<path fill-rule="evenodd" clip-rule="evenodd" d="M37.9975 26.437L38.0078 32.2988L19.4609 44.2809L0.910522 32.3162L0.912267 26.4586L19.4581 37.2496L37.9975 26.437Z" fill="url(#paint1_linear_27_175)"/>
<path fill-rule="evenodd" clip-rule="evenodd" d="M38.0036 23.7446L38.0047 26.4371L33.6053 28.9986V26.5667L38.0036 23.7446Z" fill="#244457"/>
<path fill-rule="evenodd" clip-rule="evenodd" d="M0.911011 23.7441L0.912541 26.4585L5.31092 29.0177L5.31096 26.5637L0.911011 23.7441Z" fill="#244457"/>
<path d="M43.0071 35.3338C42.8821 35.3338 42.7758 35.29 42.6883 35.2024C42.6007 35.1148 42.557 35.0085 42.557 34.8834V9.50713C42.557 9.382 42.6007 9.27563 42.6883 9.18804C42.7758 9.10044 42.8821 9.05664 43.0071 9.05664H47.3961C47.5212 9.05664 47.6275 9.10044 47.715 9.18804C47.8025 9.27563 47.8463 9.382 47.8463 9.50713V34.8834C47.8463 35.0085 47.8025 35.1148 47.715 35.2024C47.6275 35.29 47.5212 35.3338 47.3961 35.3338H43.0071Z" fill="#244457"/>
<path d="M63.1891 9.35696C63.2891 9.15674 63.4767 9.05663 63.7518 9.05663H68.1033C68.2283 9.05663 68.3346 9.10043 68.4222 9.18803C68.5097 9.27562 68.5535 9.38199 68.5535 9.50713V34.8834C68.5535 35.0084 68.5097 35.1148 68.4222 35.2024C68.3346 35.29 68.2283 35.3338 68.1033 35.3338H63.7143C63.5893 35.3338 63.483 35.29 63.3954 35.2024C63.3079 35.1148 63.2642 35.0084 63.2642 34.8834V18.0284C63.2642 17.9283 63.2392 17.8783 63.1891 17.8783C63.1391 17.8783 63.0891 17.9158 63.0391 17.9909L60.1131 23.1712C59.988 23.3714 59.888 23.4716 59.813 23.4716C59.7379 23.4716 59.6379 23.3714 59.5129 23.1712L56.5869 17.9909C56.5369 17.9158 56.4868 17.8783 56.4368 17.8783C56.3868 17.8783 56.3618 17.9283 56.3618 18.0284V34.8834C56.3618 35.0084 56.318 35.1148 56.2305 35.2024C56.143 35.29 56.0367 35.3338 55.9116 35.3338H51.5226C51.3976 35.3338 51.2913 35.29 51.2038 35.2024C51.1163 35.1148 51.0725 35.0084 51.0725 34.8834V9.50713C51.0725 9.38199 51.1163 9.27562 51.2038 9.18803C51.2913 9.10043 51.3976 9.05663 51.5226 9.05663H55.8366C56.0867 9.05663 56.2743 9.15674 56.3993 9.35696L59.738 15.3256C59.813 15.4257 59.888 15.4257 59.963 15.3256L63.1891 9.35696ZM79.7323 9.01909C81.1077 9.01909 82.3331 9.35696 83.4085 10.0327C84.4839 10.7084 85.3154 11.6531 85.9031 12.8669C86.4908 14.0806 86.7846 15.4633 86.7846 17.0149C86.7846 19.3423 86.1594 21.2067 84.909 22.6082C83.6586 24.0096 82.0205 24.7103 79.9948 24.7103H77.1813C77.0563 24.7103 76.9938 24.7729 76.9938 24.898V34.8834C76.9938 35.0084 76.9501 35.1148 76.8625 35.2024C76.775 35.29 76.6687 35.3338 76.5436 35.3338H72.1547C72.0296 35.3338 71.9233 35.29 71.8358 35.2024C71.7483 35.1148 71.7045 35.0084 71.7045 34.8834V9.46959C71.7045 9.34445 71.7483 9.23808 71.8358 9.15049C71.9233 9.06289 72.0296 9.01909 72.1547 9.01909H79.7323ZM78.8319 20.5811C79.6322 20.5811 80.2762 20.2745 80.7638 19.6613C81.2515 19.0482 81.4953 18.2036 81.4953 17.1275C81.4953 16.0264 81.2515 15.1629 80.7638 14.5373C80.2762 13.9117 79.6322 13.5988 78.8319 13.5988H77.1813C77.0563 13.5988 76.9938 13.6614 76.9938 13.7865V20.3933C76.9938 20.5185 77.0563 20.5811 77.1813 20.5811H78.8319ZM103.74 9.05663C103.865 9.05663 103.972 9.10043 104.059 9.18803C104.147 9.27562 104.191 9.38199 104.191 9.50713V13.1484C104.191 13.2735 104.147 13.3799 104.059 13.4675C103.972 13.555 103.865 13.5988 103.74 13.5988H99.0513C98.9263 13.5988 98.8637 13.6614 98.8637 13.7865V34.8834C98.8637 35.0084 98.82 35.1148 98.7324 35.2024C98.6449 35.29 98.5387 35.3338 98.4136 35.3338H94.0246C93.8995 35.3338 93.7933 35.29 93.7057 35.2024C93.6182 35.1148 93.5744 35.0084 93.5744 34.8834V13.7865C93.5744 13.6614 93.5119 13.5988 93.3869 13.5988H88.8853C88.7603 13.5988 88.654 13.555 88.5665 13.4675C88.479 13.3799 88.4352 13.2735 88.4352 13.1484V9.50713C88.4352 9.38199 88.479 9.27562 88.5665 9.18803C88.654 9.10043 88.7603 9.05663 88.8853 9.05663H103.74ZM114.094 35.6341C111.843 35.6341 110.036 34.9272 108.673 33.5132C107.31 32.0992 106.629 30.216 106.629 27.8636V9.50713C106.629 9.38199 106.673 9.27562 106.76 9.18803C106.848 9.10043 106.954 9.05663 107.079 9.05663H111.468C111.593 9.05663 111.699 9.10043 111.787 9.18803C111.874 9.27562 111.918 9.38199 111.918 9.50713V28.3891C111.918 29.1899 112.118 29.8406 112.518 30.3411C112.919 30.8417 113.444 31.0919 114.094 31.0919C114.744 31.0919 115.263 30.8417 115.651 30.3411C116.038 29.8406 116.232 29.1899 116.232 28.3891V9.50713C116.232 9.38199 116.276 9.27562 116.363 9.18803C116.451 9.10043 116.557 9.05663 116.682 9.05663H121.071C121.196 9.05663 121.303 9.10043 121.39 9.18803C121.478 9.27562 121.521 9.38199 121.521 9.50713V27.8636C121.521 30.216 120.84 32.0992 119.477 33.5132C118.114 34.9272 116.32 35.6341 114.094 35.6341ZM131.462 35.6341C130.012 35.6341 128.736 35.3463 127.636 34.7707C126.536 34.1951 125.685 33.388 125.085 32.3495C124.485 31.3109 124.185 30.1159 124.185 28.7645V27.6759C124.185 27.5508 124.229 27.4444 124.316 27.3568C124.404 27.2692 124.51 27.2254 124.635 27.2254H128.949C129.074 27.2254 129.18 27.2692 129.268 27.3568C129.355 27.4444 129.399 27.5508 129.399 27.6759V28.5017C129.399 29.2775 129.599 29.9032 129.999 30.3787C130.399 30.8542 130.9 31.0919 131.5 31.0919C132.1 31.0919 132.6 30.8667 133 30.4162C133.401 29.9658 133.601 29.3777 133.601 28.6519C133.601 27.9011 133.35 27.2567 132.85 26.7187C132.35 26.1806 131.375 25.386 129.924 24.3349C128.674 23.434 127.661 22.6332 126.886 21.9325C126.11 21.2317 125.448 20.3683 124.898 19.3423C124.347 18.3162 124.072 17.1275 124.072 15.7761C124.072 13.6489 124.735 11.9471 126.061 10.6708C127.386 9.39451 129.137 8.75635 131.312 8.75635C133.513 8.75635 135.282 9.41953 136.62 10.7459C137.958 12.0723 138.627 13.8116 138.627 15.9638V16.8647C138.627 16.9898 138.584 17.0962 138.496 17.1838C138.408 17.2714 138.302 17.3152 138.177 17.3152H133.863C133.738 17.3152 133.632 17.2714 133.544 17.1838C133.457 17.0962 133.413 16.9898 133.413 16.8647V15.8512C133.413 15.0754 133.219 14.456 132.832 13.993C132.444 13.53 131.938 13.2985 131.312 13.2985C130.712 13.2985 130.224 13.5175 129.849 13.9555C129.474 14.3934 129.287 15.0003 129.287 15.7761C129.287 16.5269 129.524 17.19 129.999 17.7656C130.474 18.3412 131.412 19.1421 132.813 20.1681C134.363 21.3193 135.532 22.2516 136.32 22.9647C137.108 23.678 137.721 24.4663 138.158 25.3297C138.596 26.1931 138.815 27.2254 138.815 28.4267C138.815 30.6289 138.14 32.3807 136.789 33.6821C135.439 34.9835 133.663 35.6341 131.462 35.6341Z" fill="#373435"/>
<path d="M43.4616 44.0197C43.1896 44.0197 42.9721 43.9288 42.8093 43.7469C42.6464 43.565 42.5651 43.3221 42.5651 43.0182C42.5651 42.9722 42.5695 42.9031 42.5785 42.811L42.5918 42.666C42.6007 42.6199 42.6253 42.5969 42.6654 42.5969H42.8728C42.8952 42.5969 42.9118 42.6038 42.923 42.6176C42.9342 42.6314 42.9375 42.6475 42.933 42.666L42.913 42.7972C42.9085 42.834 42.9063 42.887 42.9063 42.956C42.9063 43.1863 42.9598 43.3682 43.0669 43.5017C43.1739 43.6353 43.3166 43.702 43.4951 43.702C43.6423 43.702 43.7783 43.6594 43.9032 43.5742C44.0281 43.4891 44.1274 43.3682 44.201 43.2116C44.2746 43.055 44.3114 42.8801 44.3114 42.6867C44.3114 42.5485 44.2846 42.4253 44.2311 42.3171C44.1775 42.2089 44.1106 42.1146 44.0304 42.0339C43.9501 41.9534 43.8185 41.8302 43.6356 41.6644C43.4527 41.5032 43.3111 41.3697 43.2107 41.2638C43.1104 41.1579 43.0278 41.0347 42.9631 40.8942C42.8985 40.7538 42.8661 40.5938 42.8661 40.4142C42.8661 40.3728 42.8706 40.306 42.8795 40.2139C42.9241 39.8594 43.0513 39.5808 43.2609 39.3781C43.4706 39.1755 43.7226 39.0742 44.017 39.0742C44.298 39.0742 44.5199 39.1652 44.6827 39.3471C44.8455 39.5289 44.9269 39.7764 44.9269 40.0896C44.9269 40.131 44.9225 40.2024 44.9135 40.3037L44.8935 40.4764C44.8845 40.5224 44.86 40.5454 44.8199 40.5454H44.6058C44.5656 40.5454 44.5455 40.5224 44.5455 40.4764L44.5656 40.3037C44.5745 40.2208 44.579 40.161 44.579 40.1241C44.579 39.9031 44.5255 39.7258 44.4184 39.5923C44.3114 39.4587 44.1641 39.392 43.9769 39.392C43.785 39.392 43.6177 39.4645 43.475 39.6095C43.3323 39.7546 43.2453 39.9584 43.2141 40.2208C43.2096 40.2531 43.2074 40.2991 43.2074 40.359C43.2074 40.5431 43.2542 40.7009 43.3479 40.8321C43.4415 40.9633 43.6133 41.1372 43.8631 41.3536C44.0727 41.5378 44.2299 41.6863 44.3347 41.7991C44.4396 41.9119 44.521 42.0305 44.579 42.1548C44.637 42.2791 44.666 42.4242 44.666 42.59C44.666 42.6268 44.6615 42.6913 44.6526 42.7834C44.608 43.161 44.4764 43.4614 44.2578 43.6848C44.0393 43.9081 43.7738 44.0197 43.4616 44.0197ZM47.2888 42.286C47.2798 42.3321 47.2553 42.3551 47.2152 42.3551H45.7231C45.7097 42.3551 45.6986 42.3644 45.6896 42.3827L45.6228 42.9699C45.6183 42.9975 45.616 43.0389 45.616 43.0942C45.616 43.2738 45.664 43.4188 45.7599 43.5293C45.8558 43.6399 45.9863 43.6951 46.1513 43.6951C46.303 43.6951 46.439 43.6468 46.5595 43.5501C46.6799 43.4533 46.7669 43.3267 46.8204 43.1702C46.8427 43.1287 46.8694 43.108 46.9007 43.108L47.1014 43.1218C47.1193 43.1218 47.1337 43.1264 47.1449 43.1357C47.156 43.1448 47.1594 43.1587 47.1549 43.1771C47.1549 43.1909 47.1527 43.2001 47.1482 43.2047C47.0769 43.458 46.9498 43.6571 46.7669 43.8022C46.584 43.9472 46.3677 44.0197 46.1179 44.0197C45.8547 44.0197 45.6462 43.9415 45.4923 43.7849C45.3384 43.6283 45.2615 43.4188 45.2615 43.1563C45.2615 43.1195 45.2659 43.0643 45.2748 42.9906L45.4555 41.4641C45.4912 41.1602 45.6094 40.9115 45.8101 40.7181C46.0108 40.5248 46.2539 40.428 46.5394 40.428C46.8026 40.428 47.0111 40.5075 47.165 40.6663C47.3189 40.8252 47.3958 41.0359 47.3958 41.2983C47.3958 41.3352 47.3913 41.3904 47.3824 41.4641L47.2888 42.286ZM46.5059 40.7527C46.323 40.7527 46.1658 40.8206 46.0342 40.9564C45.9026 41.0923 45.8235 41.2684 45.7967 41.4848L45.7365 42.0098C45.7365 42.019 45.7387 42.0259 45.7432 42.0305C45.7476 42.0351 45.7521 42.0374 45.7566 42.0374H46.9475C46.9654 42.0374 46.9743 42.0282 46.9743 42.0098L47.0412 41.4848C47.0457 41.4572 47.0479 41.4181 47.0479 41.3674C47.0479 41.1786 46.9988 41.029 46.9007 40.9184C46.8026 40.8079 46.671 40.7527 46.5059 40.7527ZM49.7376 40.5524C49.7465 40.5063 49.771 40.4833 49.8112 40.4833H50.0253C50.0654 40.4833 50.0855 40.5063 50.0855 40.5524L49.6841 43.8954C49.6841 43.9138 49.6774 43.93 49.664 43.9438C49.6506 43.9576 49.6328 43.9645 49.6105 43.9645H49.3964C49.3785 43.9645 49.364 43.9576 49.3529 43.9438C49.3417 43.93 49.3384 43.9138 49.3428 43.8954L49.3696 43.6468C49.3741 43.633 49.373 43.6249 49.3662 43.6226C49.3596 43.6203 49.3518 43.6237 49.3428 43.633C49.1733 43.8862 48.9369 44.0128 48.6336 44.0128C48.4016 44.0128 48.221 43.9461 48.0917 43.8125C47.9623 43.679 47.8976 43.481 47.8976 43.2185C47.8976 43.1771 47.9021 43.1057 47.911 43.0044L48.1987 40.5524C48.2032 40.5339 48.2121 40.5178 48.2255 40.504C48.2388 40.4902 48.2545 40.4833 48.2723 40.4833H48.4864C48.5087 40.4833 48.5254 40.4902 48.5366 40.504C48.5478 40.5178 48.5511 40.5339 48.5466 40.5524L48.2656 42.9215C48.2567 43.0044 48.2522 43.0643 48.2522 43.1011C48.2522 43.2945 48.2957 43.4407 48.3827 43.5397C48.4697 43.6387 48.5935 43.6882 48.754 43.6882C48.9459 43.6882 49.1042 43.6145 49.2291 43.4672C49.354 43.3198 49.432 43.1172 49.4633 42.8594L49.7376 40.5524ZM51.8653 43.9645C51.8475 43.9645 51.833 43.9576 51.8218 43.9438C51.8106 43.93 51.8073 43.9138 51.8117 43.8954L52.3671 39.1986C52.3716 39.1801 52.3805 39.164 52.3939 39.1502C52.4073 39.1364 52.4229 39.1295 52.4407 39.1295H52.6548C52.6771 39.1295 52.6939 39.1364 52.705 39.1502C52.7161 39.164 52.7195 39.1801 52.715 39.1986L52.153 43.8954C52.153 43.9138 52.1463 43.93 52.133 43.9438C52.1195 43.9576 52.1017 43.9645 52.0794 43.9645H51.8653ZM53.6986 39.7857C53.6138 39.7857 53.5447 39.758 53.4912 39.7028C53.4376 39.6475 53.4109 39.5738 53.4109 39.4818C53.4109 39.3712 53.4465 39.2791 53.5179 39.2054C53.5893 39.1318 53.6763 39.095 53.7789 39.095C53.8636 39.095 53.9328 39.1214 53.9863 39.1744C54.0398 39.2273 54.0666 39.2976 54.0666 39.3851C54.0666 39.5002 54.0309 39.5957 53.9595 39.6717C53.8882 39.7477 53.8011 39.7857 53.6986 39.7857ZM53.0964 43.9645C53.0518 43.9645 53.034 43.9415 53.0429 43.8954L53.4376 40.5524C53.4465 40.5063 53.4711 40.4833 53.5112 40.4833H53.7254C53.77 40.4833 53.7878 40.5063 53.7789 40.5524L53.3841 43.8954C53.3752 43.9415 53.3506 43.9645 53.3105 43.9645H53.0964ZM57.2581 40.4349C57.4722 40.4349 57.6383 40.5144 57.7565 40.6733C57.8747 40.8321 57.9338 41.0497 57.9338 41.326C57.9338 41.3766 57.9294 41.4572 57.9205 41.5677L57.6394 43.8954C57.6394 43.9138 57.6328 43.93 57.6194 43.9438C57.606 43.9576 57.5904 43.9645 57.5725 43.9645H57.3517C57.3339 43.9645 57.3194 43.9576 57.3082 43.9438C57.2971 43.93 57.2938 43.9138 57.2982 43.8954L57.5725 41.6023C57.5815 41.5194 57.5859 41.4572 57.5859 41.4157C57.5859 41.2085 57.5435 41.0474 57.4588 40.9323C57.374 40.8171 57.2581 40.7596 57.1109 40.7596C56.928 40.7596 56.7752 40.8333 56.6526 40.9806C56.5299 41.128 56.4529 41.3306 56.4217 41.5884L56.1474 43.8954C56.1474 43.9138 56.1407 43.93 56.1273 43.9438C56.1139 43.9576 56.0961 43.9645 56.0738 43.9645H55.8597C55.8418 43.9645 55.8274 43.9576 55.8162 43.9438C55.8051 43.93 55.8017 43.9138 55.8062 43.8954L56.0805 41.6023C56.0894 41.5194 56.0939 41.4595 56.0939 41.4227C56.0939 41.2154 56.0515 41.0531 55.9668 40.9357C55.882 40.8183 55.766 40.7596 55.6188 40.7596C55.436 40.7596 55.2821 40.8333 55.1571 40.9806C55.0323 41.128 54.9542 41.3306 54.923 41.5884L54.6486 43.8954C54.6486 43.9138 54.642 43.93 54.6286 43.9438C54.6152 43.9576 54.5974 43.9645 54.5751 43.9645H54.3676C54.323 43.9645 54.3052 43.9415 54.3141 43.8954L54.7089 40.5524C54.7178 40.5063 54.7423 40.4833 54.7825 40.4833H54.9899C55.03 40.4833 55.0501 40.5063 55.0501 40.5524L55.0166 40.8079C55.0166 40.8218 55.02 40.8298 55.0267 40.8321C55.0334 40.8344 55.0412 40.8287 55.0501 40.8148C55.1438 40.6905 55.253 40.5961 55.3779 40.5316C55.5028 40.4672 55.6322 40.4349 55.766 40.4349C55.9266 40.4349 56.0615 40.481 56.1708 40.5731C56.2801 40.6652 56.3593 40.7964 56.4083 40.9668C56.4083 40.9898 56.4195 40.9852 56.4417 40.953C56.5355 40.7826 56.6548 40.6537 56.7997 40.5662C56.9447 40.4787 57.0975 40.4349 57.2581 40.4349ZM59.1917 39.7857C59.1069 39.7857 59.0378 39.758 58.9843 39.7028C58.9308 39.6475 58.904 39.5738 58.904 39.4818C58.904 39.3712 58.9397 39.2791 59.0111 39.2054C59.0824 39.1318 59.1694 39.095 59.272 39.095C59.3568 39.095 59.4259 39.1214 59.4794 39.1744C59.533 39.2273 59.5597 39.2976 59.5597 39.3851C59.5597 39.5002 59.524 39.5957 59.4527 39.6717C59.3813 39.7477 59.2943 39.7857 59.1917 39.7857ZM58.5896 43.9645C58.5449 43.9645 58.5271 43.9415 58.5361 43.8954L58.9308 40.5524C58.9397 40.5063 58.9642 40.4833 59.0044 40.4833H59.2185C59.2631 40.4833 59.2809 40.5063 59.272 40.5524L58.8773 43.8954C58.8683 43.9415 58.8438 43.9645 58.8037 43.9645H58.5896ZM61.2458 40.7043C61.2368 40.7504 61.2123 40.7734 61.1722 40.7734H60.6503C60.6324 40.7734 60.6235 40.7826 60.6235 40.801L60.3559 43.0251C60.3469 43.1172 60.3425 43.1771 60.3425 43.2047C60.3425 43.3659 60.3749 43.4787 60.4395 43.5432C60.5042 43.6076 60.6057 43.6399 60.744 43.6399H60.8109C60.8555 43.6399 60.8733 43.6629 60.8644 43.7089L60.8443 43.8954C60.8354 43.9415 60.8109 43.9645 60.7707 43.9645H60.6436C60.4295 43.9645 60.2678 43.9196 60.1586 43.8298C60.0493 43.74 59.9946 43.5754 59.9946 43.336C59.9946 43.2991 59.9991 43.2254 60.0079 43.1149L60.2823 40.801C60.2868 40.7964 60.2868 40.7906 60.2823 40.7838C60.2779 40.7769 60.2711 40.7734 60.2622 40.7734H59.9946C59.95 40.7734 59.9321 40.7504 59.9411 40.7043L59.9544 40.5524C59.9634 40.5063 59.9879 40.4833 60.0281 40.4833H60.2957C60.3135 40.4833 60.3224 40.4741 60.3224 40.4557L60.4161 39.6821C60.425 39.636 60.4496 39.613 60.4897 39.613H60.6971C60.7373 39.613 60.7574 39.636 60.7574 39.6821L60.6637 40.4557C60.6637 40.4741 60.6704 40.4833 60.6837 40.4833H61.2056C61.2502 40.4833 61.2681 40.5063 61.2591 40.5524L61.2458 40.7043ZM63.5407 42.286C63.5318 42.3321 63.5072 42.3551 63.4671 42.3551H61.9751C61.9617 42.3551 61.9505 42.3644 61.9416 42.3827L61.8747 42.9699C61.8702 42.9975 61.868 43.0389 61.868 43.0942C61.868 43.2738 61.9159 43.4188 62.0119 43.5293C62.1078 43.6399 62.2383 43.6951 62.4033 43.6951C62.5549 43.6951 62.691 43.6468 62.8114 43.5501C62.9319 43.4533 63.0188 43.3267 63.0723 43.1702C63.0947 43.1287 63.1214 43.108 63.1527 43.108L63.3534 43.1218C63.3712 43.1218 63.3857 43.1264 63.3969 43.1357C63.408 43.1448 63.4113 43.1587 63.4069 43.1771C63.4069 43.1909 63.4046 43.2001 63.4002 43.2047C63.3288 43.458 63.2017 43.6571 63.0188 43.8022C62.836 43.9472 62.6196 44.0197 62.3698 44.0197C62.1066 44.0197 61.8981 43.9415 61.7442 43.7849C61.5903 43.6283 61.5134 43.4188 61.5134 43.1563C61.5134 43.1195 61.5179 43.0643 61.5268 42.9906L61.7074 41.4641C61.7431 41.1602 61.8613 40.9115 62.0621 40.7181C62.2628 40.5248 62.5059 40.428 62.7913 40.428C63.0545 40.428 63.263 40.5075 63.4169 40.6663C63.5708 40.8252 63.6478 41.0359 63.6478 41.2983C63.6478 41.3352 63.6433 41.3904 63.6344 41.4641L63.5407 42.286ZM62.7579 40.7527C62.575 40.7527 62.4178 40.8206 62.2862 40.9564C62.1546 41.0923 62.0754 41.2684 62.0487 41.4848L61.9884 42.0098C61.9884 42.019 61.9907 42.0259 61.9951 42.0305C61.9996 42.0351 62.0041 42.0374 62.0085 42.0374H63.1995C63.2173 42.0374 63.2262 42.0282 63.2262 42.0098L63.2932 41.4848C63.2976 41.4572 63.2998 41.4181 63.2998 41.3674C63.2998 41.1786 63.2508 41.029 63.1527 40.9184C63.0545 40.8079 62.9229 40.7527 62.7579 40.7527ZM67.4348 42.286C67.4258 42.3321 67.4013 42.3551 67.3612 42.3551H65.8691C65.8557 42.3551 65.8446 42.3644 65.8356 42.3827L65.7688 42.9699C65.7643 42.9975 65.7621 43.0389 65.7621 43.0942C65.7621 43.2738 65.81 43.4188 65.9059 43.5293C66.0018 43.6399 66.1323 43.6951 66.2973 43.6951C66.449 43.6951 66.585 43.6468 66.7055 43.5501C66.8259 43.4533 66.9129 43.3267 66.9664 43.1702C66.9887 43.1287 67.0155 43.108 67.0467 43.108L67.2474 43.1218C67.2653 43.1218 67.2798 43.1264 67.2909 43.1357C67.302 43.1448 67.3054 43.1587 67.3009 43.1771C67.3009 43.1909 67.2987 43.2001 67.2943 43.2047C67.2229 43.458 67.0958 43.6571 66.9129 43.8022C66.73 43.9472 66.5137 44.0197 66.2639 44.0197C66.0007 44.0197 65.7922 43.9415 65.6383 43.7849C65.4844 43.6283 65.4075 43.4188 65.4075 43.1563C65.4075 43.1195 65.4119 43.0643 65.4208 42.9906L65.6015 41.4641C65.6372 41.1602 65.7554 40.9115 65.9561 40.7181C66.1569 40.5248 66.3999 40.428 66.6854 40.428C66.9486 40.428 67.1571 40.5075 67.311 40.6663C67.4649 40.8252 67.5418 41.0359 67.5418 41.2983C67.5418 41.3352 67.5373 41.3904 67.5285 41.4641L67.4348 42.286ZM66.652 40.7527C66.4691 40.7527 66.3118 40.8206 66.1802 40.9564C66.0486 41.0923 65.9695 41.2684 65.9427 41.4848L65.8825 42.0098C65.8825 42.019 65.8847 42.0259 65.8892 42.0305C65.8937 42.0351 65.8981 42.0374 65.9026 42.0374H67.0935C67.1114 42.0374 67.1203 42.0282 67.1203 42.0098L67.1872 41.4848C67.1917 41.4572 67.1939 41.4181 67.1939 41.3674C67.1939 41.1786 67.1448 41.029 67.0467 40.9184C66.9486 40.8079 66.817 40.7527 66.652 40.7527ZM66.5315 40.0205C66.5047 40.0205 66.488 40.0125 66.4813 39.9963C66.4746 39.9802 66.4802 39.9607 66.4981 39.9376L66.9932 39.1778C67.0155 39.1456 67.0422 39.1295 67.0735 39.1295H67.2474C67.2742 39.1295 67.2909 39.1376 67.2976 39.1536C67.3043 39.1698 67.3009 39.1894 67.2876 39.2124L66.7456 39.9721C66.7233 40.0044 66.6965 40.0205 66.6654 40.0205H66.5315ZM70.7601 40.4349C70.9876 40.4349 71.1627 40.5086 71.2853 40.656C71.408 40.8033 71.4693 41.0105 71.4693 41.2776C71.4693 41.3237 71.4649 41.402 71.4559 41.5124L71.1749 43.8954C71.166 43.9415 71.1415 43.9645 71.1013 43.9645H70.8873C70.8426 43.9645 70.8248 43.9415 70.8337 43.8954L71.108 41.547C71.1169 41.4641 71.1214 41.4042 71.1214 41.3674C71.1214 41.174 71.0779 41.0244 70.991 40.9184C70.904 40.8125 70.7779 40.7596 70.6129 40.7596C70.4255 40.7596 70.2683 40.8333 70.1412 40.9806C70.0141 41.128 69.9349 41.3306 69.9037 41.5884L69.6293 43.8954C69.6205 43.9415 69.5959 43.9645 69.5558 43.9645H69.3416C69.297 43.9645 69.2792 43.9415 69.2881 43.8954L69.6829 40.5524C69.6918 40.5063 69.7164 40.4833 69.7565 40.4833H69.9706C70.0108 40.4833 70.0308 40.5063 70.0308 40.5524L69.9974 40.8148C69.9929 40.8287 69.9951 40.8355 70.0041 40.8355C70.013 40.8355 70.0219 40.831 70.0308 40.8218C70.2092 40.5639 70.4523 40.4349 70.7601 40.4349ZM72.8744 44.0197C72.6112 44.0197 72.4027 43.9403 72.2488 43.7815C72.0949 43.6226 72.018 43.4119 72.018 43.1494C72.018 43.1126 72.0224 43.0573 72.0314 42.9837L72.212 41.4641C72.2477 41.1602 72.3659 40.9115 72.5666 40.7181C72.7673 40.5248 73.0105 40.428 73.296 40.428C73.5636 40.428 73.7743 40.5075 73.9282 40.6663C74.0821 40.8252 74.1591 41.0359 74.1591 41.2983C74.1591 41.3352 74.1546 41.3904 74.1457 41.4641L73.965 42.9837C73.9293 43.2922 73.8122 43.542 73.6137 43.7331C73.4153 43.9242 73.1688 44.0197 72.8744 44.0197ZM72.9079 43.6951C73.0952 43.6951 73.2558 43.6272 73.3896 43.4914C73.5234 43.3555 73.6014 43.1817 73.6238 42.9699L73.8045 41.4848C73.8089 41.4572 73.8111 41.4204 73.8111 41.3743C73.8111 41.1855 73.7609 41.0347 73.6606 40.9219C73.5602 40.8091 73.4275 40.7527 73.2624 40.7527C73.0796 40.7527 72.9223 40.8206 72.7908 40.9564C72.6592 41.0923 72.58 41.2684 72.5533 41.4848L72.3793 42.9699C72.3748 42.9975 72.3726 43.0389 72.3726 43.0942C72.3726 43.2738 72.4205 43.4188 72.5164 43.5293C72.6124 43.6399 72.7429 43.6951 72.9079 43.6951ZM75.4303 43.999C75.1716 43.999 74.9675 43.9288 74.8181 43.7884C74.6687 43.6479 74.594 43.4649 74.594 43.2393C74.594 43.1886 74.5962 43.1494 74.6007 43.1218L74.6073 43.0804C74.6163 43.0344 74.6408 43.0113 74.6809 43.0113H74.8817C74.9263 43.0113 74.9441 43.0344 74.9352 43.0804V43.1218L74.9285 43.1978C74.9285 43.3451 74.9776 43.466 75.0757 43.5604C75.1738 43.6548 75.3054 43.702 75.4704 43.702C75.6444 43.702 75.7905 43.6456 75.9087 43.5328C76.0269 43.42 76.0971 43.2738 76.1195 43.0942L76.1262 43.0113C76.1262 42.8962 76.0994 42.8006 76.0458 42.7247C75.9923 42.6487 75.9265 42.5877 75.8485 42.5416C75.7704 42.4956 75.66 42.438 75.5173 42.3689C75.2943 42.2676 75.1226 42.1583 75.0021 42.0409C74.8817 41.9234 74.8214 41.7496 74.8214 41.5194C74.8214 41.2016 74.9173 40.9449 75.1091 40.7492C75.3009 40.5535 75.544 40.4557 75.8385 40.4557C76.0927 40.4557 76.2912 40.5271 76.4339 40.6698C76.5767 40.8125 76.648 41.0036 76.648 41.2431C76.648 41.2983 76.6458 41.3421 76.6414 41.3743L76.6347 41.3951C76.6347 41.4134 76.628 41.4296 76.6146 41.4434C76.6012 41.4572 76.5856 41.4641 76.5677 41.4641H76.3671C76.3492 41.4641 76.3347 41.4572 76.3235 41.4434C76.3124 41.4296 76.309 41.4134 76.3135 41.3951L76.3202 41.3605C76.338 41.1901 76.299 41.0474 76.2031 40.9323C76.1072 40.8171 75.9745 40.7596 75.805 40.7596C75.6176 40.7596 75.4627 40.8252 75.34 40.9564C75.2173 41.0877 75.156 41.2523 75.156 41.4503C75.156 41.6022 75.2017 41.7185 75.2932 41.7991C75.3846 41.8797 75.5285 41.9683 75.7247 42.065C75.8808 42.1387 76.008 42.2066 76.1061 42.2688C76.2042 42.3309 76.289 42.4173 76.3603 42.5278C76.4317 42.6383 76.4674 42.7742 76.4674 42.9353C76.4674 43.253 76.3715 43.5098 76.1797 43.7055C75.9879 43.9012 75.7381 43.999 75.4303 43.999ZM77.6048 43.999C77.3461 43.999 77.142 43.9288 76.9926 43.7884C76.8432 43.6479 76.7684 43.4649 76.7684 43.2393C76.7684 43.1886 76.7707 43.1494 76.7751 43.1218L76.7818 43.0804C76.7908 43.0344 76.8153 43.0113 76.8554 43.0113H77.0562C77.1008 43.0113 77.1186 43.0344 77.1097 43.0804V43.1218L77.103 43.1978C77.103 43.3451 77.1521 43.466 77.2502 43.5604C77.3483 43.6548 77.4799 43.702 77.645 43.702C77.8189 43.702 77.965 43.6456 78.0832 43.5328C78.2014 43.42 78.2717 43.2738 78.2939 43.0942L78.3007 43.0113C78.3007 42.8962 78.2739 42.8006 78.2204 42.7247C78.1669 42.6487 78.1011 42.5877 78.023 42.5416C77.945 42.4956 77.8345 42.438 77.6918 42.3689C77.4688 42.2676 77.297 42.1583 77.1766 42.0409C77.0562 41.9234 76.9959 41.7496 76.9959 41.5194C76.9959 41.2016 77.0918 40.9449 77.2836 40.7492C77.4755 40.5535 77.7185 40.4557 78.013 40.4557C78.2672 40.4557 78.4657 40.5271 78.6084 40.6698C78.7511 40.8125 78.8225 41.0036 78.8225 41.2431C78.8225 41.2983 78.8203 41.3421 78.8158 41.3743L78.8092 41.3951C78.8092 41.4134 78.8024 41.4296 78.7891 41.4434C78.7757 41.4572 78.7601 41.4641 78.7423 41.4641H78.5415C78.5237 41.4641 78.5092 41.4572 78.498 41.4434C78.4869 41.4296 78.4835 41.4134 78.488 41.3951L78.4947 41.3605C78.5125 41.1901 78.4735 41.0474 78.3776 40.9323C78.2817 40.8171 78.149 40.7596 77.9795 40.7596C77.7921 40.7596 77.6371 40.8252 77.5145 40.9564C77.3918 41.0877 77.3305 41.2523 77.3305 41.4503C77.3305 41.6022 77.3762 41.7185 77.4676 41.7991C77.5591 41.8797 77.703 41.9683 77.8992 42.065C78.0553 42.1387 78.1825 42.2066 78.2806 42.2688C78.3787 42.3309 78.4634 42.4173 78.5348 42.5278C78.6062 42.6383 78.6419 42.7742 78.6419 42.9353C78.6419 43.253 78.546 43.5098 78.3542 43.7055C78.1624 43.9012 77.9126 43.999 77.6048 43.999ZM80.0536 44.0197C79.7905 44.0197 79.582 43.9403 79.428 43.7815C79.2742 43.6226 79.1972 43.4119 79.1972 43.1494C79.1972 43.1126 79.2017 43.0573 79.2106 42.9837L79.3912 41.4641C79.4269 41.1602 79.5451 40.9115 79.7458 40.7181C79.9466 40.5248 80.1897 40.428 80.4752 40.428C80.7428 40.428 80.9536 40.5075 81.1074 40.6663C81.2613 40.8252 81.3383 41.0359 81.3383 41.2983C81.3383 41.3352 81.3338 41.3904 81.3249 41.4641L81.1442 42.9837C81.1086 43.2922 80.9915 43.542 80.793 43.7331C80.5945 43.9242 80.348 44.0197 80.0536 44.0197ZM80.0871 43.6951C80.2744 43.6951 80.435 43.6272 80.5688 43.4914C80.7026 43.3555 80.7807 43.1817 80.803 42.9699L80.9837 41.4848C80.9881 41.4572 80.9903 41.4204 80.9903 41.3743C80.9903 41.1855 80.9402 41.0347 80.8398 40.9219C80.7394 40.8091 80.6067 40.7527 80.4417 40.7527C80.2589 40.7527 80.1016 40.8206 79.97 40.9564C79.8384 41.0923 79.7592 41.2684 79.7325 41.4848L79.5585 42.9699C79.554 42.9975 79.5518 43.0389 79.5518 43.0942C79.5518 43.2738 79.5997 43.4188 79.6957 43.5293C79.7916 43.6399 79.9221 43.6951 80.0871 43.6951ZM84.6034 40.428C84.8443 40.428 85.0338 40.5063 85.1721 40.6629C85.3104 40.8194 85.3795 41.0267 85.3795 41.2845C85.3795 41.3214 85.3751 41.3812 85.3661 41.4641L85.1855 42.9837C85.1498 43.2922 85.0383 43.542 84.851 43.7331C84.6636 43.9242 84.4384 44.0197 84.1752 44.0197C84.0458 44.0197 83.9276 43.9921 83.8206 43.9369C83.7135 43.8816 83.6265 43.801 83.5596 43.6951C83.5463 43.6721 83.5351 43.6744 83.5262 43.702L83.3455 45.2492C83.3366 45.2953 83.3121 45.3183 83.2719 45.3183H83.0578C83.0132 45.3183 82.9954 45.2953 83.0043 45.2492L83.5596 40.5524C83.5686 40.5063 83.5931 40.4833 83.6332 40.4833H83.8473C83.8919 40.4833 83.9098 40.5063 83.9008 40.5524L83.8808 40.7457C83.8808 40.755 83.8842 40.7607 83.8908 40.763C83.8975 40.7653 83.9053 40.7619 83.9142 40.7527C84.0035 40.6467 84.1072 40.5662 84.2254 40.5109C84.3436 40.4557 84.4696 40.428 84.6034 40.428ZM85.0249 41.4779C85.0294 41.4503 85.0316 41.4088 85.0316 41.3536C85.0316 41.174 84.9814 41.029 84.8811 40.9184C84.7807 40.8079 84.648 40.7527 84.483 40.7527C84.3045 40.7527 84.1518 40.8194 84.0246 40.953C83.8975 41.0865 83.8206 41.2615 83.7938 41.4779L83.6199 42.9699C83.6153 42.9975 83.6131 43.0412 83.6131 43.1011C83.6131 43.2807 83.66 43.4246 83.7537 43.5328C83.8473 43.641 83.9744 43.6951 84.135 43.6951C84.3179 43.6951 84.4762 43.6272 84.6101 43.4914C84.7439 43.3555 84.8242 43.1817 84.851 42.9699L85.0249 41.4779ZM87.2797 40.4557C87.3868 40.4557 87.4782 40.4787 87.5541 40.5248C87.5808 40.5477 87.5875 40.5777 87.5741 40.6145L87.4938 40.8494C87.476 40.8908 87.447 40.9023 87.4068 40.8839C87.3444 40.8563 87.2619 40.8447 87.1593 40.8494C86.9853 40.854 86.8337 40.9461 86.7043 41.1257C86.5749 41.3052 86.4947 41.5263 86.4634 41.7887L86.2092 43.8954C86.2003 43.9415 86.1757 43.9645 86.1356 43.9645H85.9215C85.8768 43.9645 85.8591 43.9415 85.868 43.8954L86.2627 40.5524C86.2716 40.5063 86.2962 40.4833 86.3363 40.4833H86.5504C86.5906 40.4833 86.6106 40.5063 86.6106 40.5524L86.5571 40.9806C86.5571 41.0128 86.5682 41.0128 86.5906 40.9806C86.6708 40.8148 86.769 40.6859 86.885 40.5938C87.0009 40.5017 87.1325 40.4557 87.2797 40.4557ZM88.5643 44.0197C88.3012 44.0197 88.0927 43.9403 87.9388 43.7815C87.7849 43.6226 87.7079 43.4119 87.7079 43.1494C87.7079 43.1126 87.7124 43.0573 87.7213 42.9837L87.902 41.4641C87.9376 41.1602 88.0558 40.9115 88.2565 40.7181C88.4573 40.5248 88.7004 40.428 88.9859 40.428C89.2535 40.428 89.4643 40.5075 89.6182 40.6663C89.772 40.8252 89.849 41.0359 89.849 41.2983C89.849 41.3352 89.8445 41.3904 89.8356 41.4641L89.655 42.9837C89.6193 43.2922 89.5022 43.542 89.3037 43.7331C89.1052 43.9242 88.8587 44.0197 88.5643 44.0197ZM88.5978 43.6951C88.7851 43.6951 88.9457 43.6272 89.0795 43.4914C89.2134 43.3555 89.2914 43.1817 89.3137 42.9699L89.4944 41.4848C89.4988 41.4572 89.5011 41.4204 89.5011 41.3743C89.5011 41.1855 89.4509 41.0347 89.3505 40.9219C89.2502 40.8091 89.1174 40.7527 88.9524 40.7527C88.7696 40.7527 88.6123 40.8206 88.4807 40.9564C88.3491 41.0923 88.27 41.2684 88.2432 41.4848L88.0693 42.9699C88.0648 42.9975 88.0625 43.0389 88.0625 43.0942C88.0625 43.2738 88.1105 43.4188 88.2064 43.5293C88.3023 43.6399 88.4328 43.6951 88.5978 43.6951ZM88.8521 40.0205C88.8253 40.0205 88.8086 40.0125 88.8019 39.9963C88.7952 39.9802 88.8008 39.9607 88.8186 39.9376L89.3137 39.1778C89.336 39.1456 89.3628 39.1295 89.394 39.1295H89.568C89.5948 39.1295 89.6115 39.1376 89.6182 39.1536C89.6248 39.1698 89.6215 39.1894 89.6082 39.2124L89.0661 39.9721C89.0439 40.0044 89.0171 40.0205 88.9859 40.0205H88.8521ZM90.0631 43.9645C90.0408 43.9645 90.0263 43.9564 90.0196 43.9403C90.0129 43.9242 90.014 43.9047 90.0229 43.8816L91.0265 42.2446C91.0355 42.2308 91.0355 42.217 91.0265 42.2032L90.4177 40.5662L90.411 40.5454C90.411 40.504 90.4333 40.4833 90.4779 40.4833H90.7188C90.7634 40.4833 90.7879 40.4994 90.7923 40.5316L91.2541 41.8716C91.2585 41.8808 91.2652 41.8854 91.2741 41.8854C91.283 41.8854 91.2897 41.8808 91.2942 41.8716L92.077 40.5316C92.0948 40.4994 92.1238 40.4833 92.164 40.4833H92.4049C92.4272 40.4833 92.4417 40.4913 92.4483 40.5075C92.455 40.5236 92.4517 40.5431 92.4383 40.5662L91.4481 42.2032C91.4347 42.217 91.4325 42.2308 91.4414 42.2446L92.0435 43.8816L92.0503 43.9092C92.0503 43.9461 92.0302 43.9645 91.99 43.9645H91.7492C91.7045 43.9645 91.68 43.9484 91.6756 43.9161L91.2139 42.5761C91.2094 42.567 91.2027 42.5624 91.1938 42.5624C91.1849 42.5624 91.1782 42.567 91.1738 42.5761L90.391 43.9161C90.3731 43.9484 90.3463 43.9645 90.3106 43.9645H90.0631ZM93.3483 39.7857C93.2635 39.7857 93.1944 39.758 93.1408 39.7028C93.0873 39.6475 93.0606 39.5738 93.0606 39.4818C93.0606 39.3712 93.0963 39.2791 93.1676 39.2054C93.239 39.1318 93.326 39.095 93.4286 39.095C93.5133 39.095 93.5825 39.1214 93.636 39.1744C93.6895 39.2273 93.7163 39.2976 93.7163 39.3851C93.7163 39.5002 93.6806 39.5957 93.6092 39.6717C93.5378 39.7477 93.4509 39.7857 93.3483 39.7857ZM92.7461 43.9645C92.7015 43.9645 92.6836 43.9415 92.6926 43.8954L93.0873 40.5524C93.0963 40.5063 93.1208 40.4833 93.161 40.4833H93.375C93.4196 40.4833 93.4375 40.5063 93.4286 40.5524L93.0338 43.8954C93.0249 43.9415 93.0003 43.9645 92.9602 43.9645H92.7461ZM96.9077 40.4349C97.1219 40.4349 97.288 40.5144 97.4062 40.6733C97.5244 40.8321 97.5835 41.0497 97.5835 41.326C97.5835 41.3766 97.5791 41.4572 97.5702 41.5677L97.2892 43.8954C97.2892 43.9138 97.2825 43.93 97.2691 43.9438C97.2557 43.9576 97.2401 43.9645 97.2222 43.9645H97.0014C96.9836 43.9645 96.9691 43.9576 96.9579 43.9438C96.9468 43.93 96.9435 43.9138 96.9479 43.8954L97.2222 41.6023C97.2312 41.5194 97.2356 41.4572 97.2356 41.4157C97.2356 41.2085 97.1932 41.0474 97.1085 40.9323C97.0237 40.8171 96.9077 40.7596 96.7606 40.7596C96.5777 40.7596 96.4249 40.8333 96.3022 40.9806C96.1796 41.128 96.1027 41.3306 96.0714 41.5884L95.7971 43.8954C95.7971 43.9138 95.7904 43.93 95.777 43.9438C95.7637 43.9576 95.7458 43.9645 95.7235 43.9645H95.5094C95.4916 43.9645 95.4771 43.9576 95.4659 43.9438C95.4547 43.93 95.4514 43.9138 95.4559 43.8954L95.7302 41.6023C95.7391 41.5194 95.7436 41.4595 95.7436 41.4227C95.7436 41.2154 95.7012 41.0531 95.6165 40.9357C95.5317 40.8183 95.4157 40.7596 95.2685 40.7596C95.0857 40.7596 94.9317 40.8333 94.8069 40.9806C94.682 41.128 94.6039 41.3306 94.5727 41.5884L94.2984 43.8954C94.2984 43.9138 94.2917 43.93 94.2783 43.9438C94.2649 43.9576 94.2471 43.9645 94.2248 43.9645H94.0173C93.9727 43.9645 93.9549 43.9415 93.9638 43.8954L94.3585 40.5524C94.3675 40.5063 94.392 40.4833 94.4322 40.4833H94.6396C94.6797 40.4833 94.6998 40.5063 94.6998 40.5524L94.6663 40.8079C94.6663 40.8218 94.6697 40.8298 94.6764 40.8321C94.6831 40.8344 94.6909 40.8287 94.6998 40.8148C94.7935 40.6905 94.9028 40.5961 95.0276 40.5316C95.1525 40.4672 95.2819 40.4349 95.4157 40.4349C95.5763 40.4349 95.7113 40.481 95.8205 40.5731C95.9298 40.6652 96.009 40.7964 96.058 40.9668C96.058 40.9898 96.0692 40.9852 96.0915 40.953C96.1851 40.7826 96.3045 40.6537 96.4494 40.5662C96.5944 40.4787 96.7472 40.4349 96.9077 40.4349Z" fill="#00354D"/>
<path d="M98.9953 44.0195C98.7321 44.0195 98.5236 43.9401 98.3697 43.7812C98.2159 43.6224 98.1389 43.4117 98.1389 43.1492C98.1389 43.1124 98.1434 43.0571 98.1523 42.9835L98.333 41.4639C98.3686 41.16 98.4868 40.9113 98.6875 40.7179C98.8883 40.5245 99.1314 40.4278 99.4169 40.4278C99.6845 40.4278 99.8952 40.5072 100.049 40.6661C100.203 40.825 100.28 41.0356 100.28 41.2981C100.28 41.3349 100.275 41.3902 100.267 41.4639L100.086 42.9835C100.05 43.292 99.9331 43.5418 99.7347 43.7329C99.5362 43.924 99.2897 44.0195 98.9953 44.0195ZM99.0288 43.6949C99.2161 43.6949 99.3767 43.627 99.5105 43.4911C99.6443 43.3553 99.7224 43.1814 99.7447 42.9696L99.9254 41.4846C99.9298 41.457 99.932 41.4202 99.932 41.3741C99.932 41.1853 99.8818 41.0345 99.7815 40.9217C99.6812 40.8089 99.5484 40.7525 99.3834 40.7525C99.2005 40.7525 99.0433 40.8203 98.9117 40.9562C98.7801 41.092 98.7009 41.2682 98.6742 41.4846L98.5002 42.9696C98.4957 42.9973 98.4935 43.0387 98.4935 43.094C98.4935 43.2735 98.5415 43.4186 98.6374 43.5291C98.7332 43.6396 98.8637 43.6949 99.0288 43.6949ZM103.545 40.4278C103.786 40.4278 103.976 40.5061 104.114 40.6626C104.252 40.8192 104.321 41.0264 104.321 41.2843C104.321 41.3211 104.317 41.381 104.308 41.4639L104.127 42.9835C104.091 43.292 103.98 43.5418 103.793 43.7329C103.605 43.924 103.38 44.0195 103.117 44.0195C102.988 44.0195 102.869 43.9919 102.762 43.9366C102.655 43.8814 102.568 43.8008 102.501 43.6949C102.488 43.6719 102.477 43.6742 102.468 43.7018L102.287 45.249C102.278 45.2951 102.254 45.318 102.214 45.318H101.999C101.955 45.318 101.937 45.2951 101.946 45.249L102.501 40.5522C102.51 40.5061 102.535 40.4831 102.575 40.4831H102.789C102.834 40.4831 102.851 40.5061 102.843 40.5522L102.822 40.7455C102.822 40.7548 102.826 40.7605 102.833 40.7628C102.839 40.7651 102.847 40.7617 102.856 40.7525C102.945 40.6465 103.049 40.5659 103.167 40.5107C103.285 40.4554 103.411 40.4278 103.545 40.4278ZM103.967 41.4777C103.971 41.4501 103.973 41.4086 103.973 41.3534C103.973 41.1738 103.923 41.0287 103.823 40.9182C103.722 40.8077 103.59 40.7525 103.425 40.7525C103.246 40.7525 103.093 40.8192 102.966 40.9528C102.839 41.0863 102.762 41.2613 102.735 41.4777L102.562 42.9696C102.557 42.9973 102.555 43.041 102.555 43.1009C102.555 43.2804 102.602 43.4244 102.695 43.5326C102.789 43.6408 102.916 43.6949 103.077 43.6949C103.26 43.6949 103.418 43.627 103.552 43.4911C103.686 43.3553 103.766 43.1814 103.793 42.9696L103.967 41.4777ZM105.679 44.0195C105.416 44.0195 105.208 43.9401 105.054 43.7812C104.9 43.6224 104.823 43.4117 104.823 43.1492C104.823 43.1124 104.827 43.0571 104.836 42.9835L105.017 41.4639C105.053 41.16 105.171 40.9113 105.372 40.7179C105.572 40.5245 105.815 40.4278 106.101 40.4278C106.369 40.4278 106.579 40.5072 106.733 40.6661C106.887 40.825 106.964 41.0356 106.964 41.2981C106.964 41.3349 106.96 41.3902 106.951 41.4639L106.77 42.9835C106.734 43.292 106.617 43.5418 106.419 43.7329C106.22 43.924 105.974 44.0195 105.679 44.0195ZM105.713 43.6949C105.9 43.6949 106.061 43.627 106.195 43.4911C106.328 43.3553 106.406 43.1814 106.429 42.9696L106.609 41.4846C106.614 41.457 106.616 41.4202 106.616 41.3741C106.616 41.1853 106.566 41.0345 106.466 40.9217C106.365 40.8089 106.233 40.7525 106.068 40.7525C105.885 40.7525 105.727 40.8203 105.596 40.9562C105.464 41.092 105.385 41.2682 105.358 41.4846L105.184 42.9696C105.18 42.9973 105.178 43.0387 105.178 43.094C105.178 43.2735 105.226 43.4186 105.321 43.5291C105.417 43.6396 105.548 43.6949 105.713 43.6949ZM108.924 40.4347C109.152 40.4347 109.327 40.5084 109.45 40.6558C109.572 40.8031 109.634 41.0103 109.634 41.2774C109.634 41.3234 109.629 41.4017 109.62 41.5122L109.339 43.8952C109.33 43.9412 109.306 43.9643 109.266 43.9643H109.052C109.007 43.9643 108.989 43.9412 108.998 43.8952L109.272 41.5468C109.281 41.4639 109.286 41.404 109.286 41.3672C109.286 41.1738 109.242 41.0241 109.155 40.9182C109.068 40.8123 108.942 40.7593 108.777 40.7593C108.59 40.7593 108.433 40.833 108.306 40.9804C108.178 41.1277 108.099 41.3303 108.068 41.5882L107.794 43.8952C107.785 43.9412 107.76 43.9643 107.72 43.9643H107.506C107.461 43.9643 107.444 43.9412 107.453 43.8952L107.847 40.5522C107.856 40.5061 107.881 40.4831 107.921 40.4831H108.135C108.175 40.4831 108.195 40.5061 108.195 40.5522L108.162 40.8146C108.157 40.8284 108.16 40.8353 108.168 40.8353C108.177 40.8353 108.186 40.8307 108.195 40.8215C108.374 40.5636 108.617 40.4347 108.924 40.4347ZM111.608 40.7041C111.599 40.7502 111.574 40.7732 111.534 40.7732H111.012C110.994 40.7732 110.985 40.7824 110.985 40.8008L110.718 43.0249C110.709 43.117 110.704 43.1768 110.704 43.2045C110.704 43.3656 110.737 43.4784 110.801 43.5429C110.866 43.6074 110.967 43.6396 111.106 43.6396H111.173C111.217 43.6396 111.235 43.6627 111.226 43.7087L111.206 43.8952C111.197 43.9412 111.173 43.9643 111.132 43.9643H111.005C110.791 43.9643 110.63 43.9194 110.52 43.8296C110.411 43.7398 110.356 43.5752 110.356 43.3357C110.356 43.2989 110.361 43.2252 110.37 43.1147L110.644 40.8008C110.649 40.7962 110.649 40.7904 110.644 40.7835C110.64 40.7766 110.633 40.7732 110.624 40.7732H110.356C110.312 40.7732 110.294 40.7502 110.303 40.7041L110.316 40.5522C110.325 40.5061 110.35 40.4831 110.39 40.4831H110.657C110.675 40.4831 110.684 40.4739 110.684 40.4554L110.778 39.6818C110.787 39.6358 110.811 39.6128 110.851 39.6128H111.059C111.099 39.6128 111.119 39.6358 111.119 39.6818L111.025 40.4554C111.025 40.4739 111.032 40.4831 111.045 40.4831H111.567C111.612 40.4831 111.63 40.5061 111.621 40.5522L111.608 40.7041ZM112.732 44.0195C112.468 44.0195 112.26 43.9401 112.106 43.7812C111.952 43.6224 111.875 43.4117 111.875 43.1492C111.875 43.1124 111.88 43.0571 111.889 42.9835L112.069 41.4639C112.105 41.16 112.223 40.9113 112.424 40.7179C112.625 40.5245 112.868 40.4278 113.153 40.4278C113.421 40.4278 113.631 40.5072 113.785 40.6661C113.939 40.825 114.016 41.0356 114.016 41.2981C114.016 41.3349 114.012 41.3902 114.003 41.4639L113.822 42.9835C113.786 43.292 113.669 43.5418 113.471 43.7329C113.272 43.924 113.026 44.0195 112.732 44.0195ZM112.765 43.6949C112.952 43.6949 113.113 43.627 113.247 43.4911C113.381 43.3553 113.459 43.1814 113.481 42.9696L113.662 41.4846C113.666 41.457 113.668 41.4202 113.668 41.3741C113.668 41.1853 113.618 41.0345 113.518 40.9217C113.417 40.8089 113.285 40.7525 113.12 40.7525C112.937 40.7525 112.78 40.8203 112.648 40.9562C112.516 41.092 112.437 41.2682 112.41 41.4846L112.236 42.9696C112.232 42.9973 112.23 43.0387 112.23 43.094C112.23 43.2735 112.278 43.4186 112.374 43.5291C112.469 43.6396 112.6 43.6949 112.765 43.6949ZM117.85 39.1983C117.854 39.1799 117.863 39.1638 117.877 39.15C117.89 39.1362 117.906 39.1292 117.924 39.1292H118.138C118.16 39.1292 118.177 39.1362 118.188 39.15C118.199 39.1638 118.202 39.1799 118.198 39.1983L117.636 43.8952C117.636 43.9136 117.629 43.9297 117.616 43.9435C117.602 43.9574 117.585 43.9643 117.562 43.9643H117.348C117.33 43.9643 117.316 43.9574 117.305 43.9435C117.294 43.9297 117.29 43.9136 117.295 43.8952L117.315 43.7018C117.319 43.6926 117.318 43.6868 117.311 43.6845C117.305 43.6822 117.297 43.6857 117.288 43.6949C117.199 43.8008 117.094 43.8814 116.974 43.9366C116.853 43.9919 116.728 44.0195 116.599 44.0195C116.358 44.0195 116.168 43.9401 116.03 43.7812C115.892 43.6224 115.823 43.414 115.823 43.1561C115.823 43.0825 115.825 43.0272 115.829 42.9904L116.01 41.4639C116.046 41.1554 116.157 40.9056 116.345 40.7144C116.532 40.5234 116.759 40.4278 117.027 40.4278C117.156 40.4278 117.274 40.4554 117.378 40.5107C117.483 40.5659 117.569 40.6465 117.636 40.7525C117.64 40.7617 117.647 40.7651 117.656 40.7628C117.665 40.7605 117.669 40.7548 117.669 40.7455L117.85 39.1983ZM116.713 43.6949C116.891 43.6949 117.045 43.6281 117.174 43.4946C117.304 43.3611 117.379 43.1861 117.402 42.9696L117.582 41.4846C117.587 41.457 117.589 41.4132 117.589 41.3534C117.589 41.1738 117.542 41.0287 117.449 40.9182C117.355 40.8077 117.228 40.7525 117.067 40.7525C116.88 40.7525 116.719 40.8203 116.585 40.9562C116.452 41.092 116.371 41.2682 116.345 41.4846L116.171 42.9696C116.166 42.9973 116.164 43.0387 116.164 43.094C116.164 43.2735 116.214 43.4186 116.314 43.5291C116.415 43.6396 116.548 43.6949 116.713 43.6949ZM120.546 42.2858C120.537 42.3319 120.513 42.3549 120.473 42.3549H118.981C118.967 42.3549 118.956 42.3641 118.947 42.3825L118.88 42.9696C118.876 42.9973 118.874 43.0387 118.874 43.094C118.874 43.2735 118.922 43.4186 119.018 43.5291C119.113 43.6396 119.244 43.6949 119.409 43.6949C119.561 43.6949 119.697 43.6465 119.817 43.5498C119.938 43.4531 120.025 43.3265 120.078 43.1699C120.1 43.1285 120.127 43.1078 120.158 43.1078L120.359 43.1216C120.377 43.1216 120.391 43.1262 120.403 43.1354C120.414 43.1446 120.417 43.1585 120.413 43.1768C120.413 43.1907 120.41 43.1999 120.406 43.2045C120.335 43.4578 120.207 43.6569 120.025 43.8019C119.842 43.947 119.625 44.0195 119.376 44.0195C119.112 44.0195 118.904 43.9412 118.75 43.7847C118.596 43.6281 118.519 43.4186 118.519 43.1561C118.519 43.1193 118.524 43.064 118.532 42.9904L118.713 41.4639C118.749 41.16 118.867 40.9113 119.068 40.7179C119.268 40.5245 119.512 40.4278 119.797 40.4278C120.06 40.4278 120.269 40.5072 120.423 40.6661C120.577 40.825 120.653 41.0356 120.653 41.2981C120.653 41.3349 120.649 41.3902 120.64 41.4639L120.546 42.2858ZM119.764 40.7525C119.581 40.7525 119.423 40.8203 119.292 40.9562C119.16 41.092 119.081 41.2682 119.054 41.4846L118.994 42.0095C118.994 42.0188 118.996 42.0257 119.001 42.0303C119.005 42.0349 119.01 42.0372 119.014 42.0372H120.205C120.223 42.0372 120.232 42.028 120.232 42.0095L120.299 41.4846C120.303 41.457 120.306 41.4179 120.306 41.3672C120.306 41.1784 120.256 41.0287 120.158 40.9182C120.06 40.8077 119.929 40.7525 119.764 40.7525ZM123.878 40.4278C124.119 40.4278 124.309 40.5061 124.447 40.6626C124.585 40.8192 124.655 41.0264 124.655 41.2843C124.655 41.3211 124.65 41.381 124.641 41.4639L124.461 42.9835C124.425 43.292 124.313 43.5418 124.126 43.7329C123.939 43.924 123.713 44.0195 123.45 44.0195C123.321 44.0195 123.203 43.9919 123.096 43.9366C122.989 43.8814 122.902 43.8008 122.835 43.6949C122.821 43.6719 122.81 43.6742 122.801 43.7018L122.621 45.249C122.612 45.2951 122.587 45.318 122.547 45.318H122.333C122.288 45.318 122.27 45.2951 122.279 45.249L122.835 40.5522C122.844 40.5061 122.868 40.4831 122.908 40.4831H123.122C123.167 40.4831 123.185 40.5061 123.176 40.5522L123.156 40.7455C123.156 40.7548 123.159 40.7605 123.166 40.7628C123.173 40.7651 123.18 40.7617 123.189 40.7525C123.279 40.6465 123.382 40.5659 123.5 40.5107C123.619 40.4554 123.745 40.4278 123.878 40.4278ZM124.3 41.4777C124.304 41.4501 124.307 41.4086 124.307 41.3534C124.307 41.1738 124.256 41.0287 124.156 40.9182C124.056 40.8077 123.923 40.7525 123.758 40.7525C123.58 40.7525 123.427 40.8192 123.3 40.9528C123.173 41.0863 123.096 41.2613 123.069 41.4777L122.895 42.9696C122.89 42.9973 122.888 43.041 122.888 43.1009C122.888 43.2804 122.935 43.4244 123.029 43.5326C123.122 43.6408 123.25 43.6949 123.41 43.6949C123.593 43.6949 123.751 43.627 123.885 43.4911C124.019 43.3553 124.099 43.1814 124.126 42.9696L124.3 41.4777ZM127.03 40.5522C127.039 40.5061 127.063 40.4831 127.103 40.4831H127.318C127.358 40.4831 127.378 40.5061 127.378 40.5522L126.976 43.8952C126.976 43.9136 126.97 43.9297 126.956 43.9435C126.943 43.9574 126.925 43.9643 126.903 43.9643H126.689C126.671 43.9643 126.656 43.9574 126.645 43.9435C126.634 43.9297 126.631 43.9136 126.635 43.8952L126.668 43.6258C126.668 43.612 126.664 43.6039 126.655 43.6016C126.646 43.5993 126.64 43.6051 126.635 43.6189C126.55 43.7478 126.445 43.8468 126.321 43.9159C126.196 43.985 126.062 44.0195 125.919 44.0195C125.678 44.0195 125.491 43.9435 125.357 43.7916C125.223 43.6396 125.156 43.4347 125.156 43.1768C125.156 43.14 125.161 43.0755 125.17 42.9835L125.35 41.4639C125.386 41.1554 125.494 40.9056 125.675 40.7144C125.856 40.5234 126.08 40.4278 126.347 40.4278C126.49 40.4278 126.615 40.4623 126.722 40.5314C126.829 40.6005 126.912 40.6995 126.97 40.8284C126.974 40.8422 126.98 40.848 126.986 40.8457C126.993 40.8434 126.999 40.8353 127.003 40.8215L127.03 40.5522ZM126.053 43.6949C126.231 43.6949 126.385 43.6281 126.515 43.4946C126.644 43.3611 126.72 43.1861 126.742 42.9696L126.923 41.4846C126.927 41.457 126.929 41.4132 126.929 41.3534C126.929 41.1738 126.883 41.0287 126.789 40.9182C126.695 40.8077 126.568 40.7525 126.408 40.7525C126.22 40.7525 126.061 40.8203 125.929 40.9562C125.798 41.092 125.718 41.2682 125.692 41.4846L125.518 42.9696C125.513 42.9973 125.511 43.0387 125.511 43.094C125.511 43.2735 125.56 43.4186 125.658 43.5291C125.756 43.6396 125.888 43.6949 126.053 43.6949ZM129.258 40.4554C129.365 40.4554 129.456 40.4785 129.532 40.5245C129.559 40.5475 129.566 40.5775 129.552 40.6143L129.472 40.8492C129.454 40.8906 129.425 40.9021 129.385 40.8837C129.323 40.8561 129.24 40.8445 129.137 40.8492C128.963 40.8538 128.812 40.9459 128.682 41.1254C128.553 41.305 128.473 41.526 128.442 41.7885L128.187 43.8952C128.178 43.9412 128.154 43.9643 128.114 43.9643H127.9C127.855 43.9643 127.837 43.9412 127.846 43.8952L128.241 40.5522C128.25 40.5061 128.274 40.4831 128.314 40.4831H128.529C128.569 40.4831 128.589 40.5061 128.589 40.5522L128.535 40.9804C128.535 41.0126 128.546 41.0126 128.569 40.9804C128.649 40.8146 128.747 40.6857 128.863 40.5936C128.979 40.5015 129.111 40.4554 129.258 40.4554ZM131.131 40.7041C131.122 40.7502 131.098 40.7732 131.058 40.7732H130.536C130.518 40.7732 130.509 40.7824 130.509 40.8008L130.241 43.0249C130.232 43.117 130.228 43.1768 130.228 43.2045C130.228 43.3656 130.26 43.4784 130.325 43.5429C130.39 43.6074 130.491 43.6396 130.629 43.6396H130.696C130.741 43.6396 130.759 43.6627 130.75 43.7087L130.73 43.8952C130.721 43.9412 130.696 43.9643 130.656 43.9643H130.529C130.315 43.9643 130.153 43.9194 130.044 43.8296C129.935 43.7398 129.88 43.5752 129.88 43.3357C129.88 43.2989 129.885 43.2252 129.893 43.1147L130.168 40.8008C130.172 40.7962 130.172 40.7904 130.168 40.7835C130.163 40.7766 130.157 40.7732 130.148 40.7732H129.88C129.836 40.7732 129.818 40.7502 129.827 40.7041L129.84 40.5522C129.849 40.5061 129.873 40.4831 129.914 40.4831H130.181C130.199 40.4831 130.208 40.4739 130.208 40.4554L130.302 39.6818C130.311 39.6358 130.335 39.6128 130.375 39.6128H130.583C130.623 39.6128 130.643 39.6358 130.643 39.6818L130.549 40.4554C130.549 40.4739 130.556 40.4831 130.569 40.4831H131.091C131.136 40.4831 131.154 40.5061 131.145 40.5522L131.131 40.7041ZM132.101 39.7854C132.017 39.7854 131.948 39.7578 131.894 39.7025C131.84 39.6473 131.814 39.5736 131.814 39.4815C131.814 39.371 131.849 39.2789 131.921 39.2052C131.992 39.1315 132.079 39.0947 132.182 39.0947C132.267 39.0947 132.336 39.1212 132.389 39.1742C132.443 39.2271 132.469 39.2973 132.469 39.3848C132.469 39.4999 132.434 39.5955 132.362 39.6715C132.291 39.7474 132.204 39.7854 132.101 39.7854ZM131.499 43.9643C131.455 43.9643 131.437 43.9412 131.446 43.8952L131.84 40.5522C131.849 40.5061 131.874 40.4831 131.914 40.4831H132.128C132.173 40.4831 132.191 40.5061 132.182 40.5522L131.787 43.8952C131.778 43.9412 131.754 43.9643 131.713 43.9643H131.499ZM134.764 39.1983C134.769 39.1799 134.778 39.1638 134.791 39.15C134.805 39.1362 134.82 39.1292 134.838 39.1292H135.052C135.074 39.1292 135.091 39.1362 135.102 39.15C135.113 39.1638 135.117 39.1799 135.112 39.1983L134.55 43.8952C134.55 43.9136 134.544 43.9297 134.53 43.9435C134.517 43.9574 134.499 43.9643 134.477 43.9643H134.263C134.245 43.9643 134.23 43.9574 134.219 43.9435C134.208 43.9297 134.205 43.9136 134.209 43.8952L134.229 43.7018C134.234 43.6926 134.232 43.6868 134.226 43.6845C134.219 43.6822 134.211 43.6857 134.202 43.6949C134.113 43.8008 134.008 43.8814 133.888 43.9366C133.767 43.9919 133.643 44.0195 133.513 44.0195C133.272 44.0195 133.083 43.9401 132.944 43.7812C132.806 43.6224 132.737 43.414 132.737 43.1561C132.737 43.0825 132.739 43.0272 132.744 42.9904L132.924 41.4639C132.96 41.1554 133.072 40.9056 133.259 40.7144C133.446 40.5234 133.674 40.4278 133.941 40.4278C134.071 40.4278 134.188 40.4554 134.293 40.5107C134.397 40.5659 134.483 40.6465 134.55 40.7525C134.555 40.7617 134.561 40.7651 134.57 40.7628C134.579 40.7605 134.584 40.7548 134.584 40.7455L134.764 39.1983ZM133.627 43.6949C133.805 43.6949 133.959 43.6281 134.089 43.4946C134.218 43.3611 134.294 43.1861 134.316 42.9696L134.497 41.4846C134.501 41.457 134.503 41.4132 134.503 41.3534C134.503 41.1738 134.457 41.0287 134.363 40.9182C134.269 40.8077 134.142 40.7525 133.982 40.7525C133.794 40.7525 133.634 40.8203 133.5 40.9562C133.366 41.092 133.286 41.2682 133.259 41.4846L133.085 42.9696C133.08 42.9973 133.078 43.0387 133.078 43.094C133.078 43.2735 133.128 43.4186 133.229 43.5291C133.329 43.6396 133.462 43.6949 133.627 43.6949ZM137.307 40.5522C137.316 40.5061 137.34 40.4831 137.38 40.4831H137.595C137.635 40.4831 137.655 40.5061 137.655 40.5522L137.253 43.8952C137.253 43.9136 137.247 43.9297 137.233 43.9435C137.22 43.9574 137.202 43.9643 137.18 43.9643H136.966C136.948 43.9643 136.933 43.9574 136.922 43.9435C136.911 43.9297 136.908 43.9136 136.912 43.8952L136.946 43.6258C136.946 43.612 136.941 43.6039 136.932 43.6016C136.923 43.5993 136.917 43.6051 136.912 43.6189C136.827 43.7478 136.723 43.8468 136.598 43.9159C136.473 43.985 136.339 44.0195 136.196 44.0195C135.955 44.0195 135.768 43.9435 135.634 43.7916C135.5 43.6396 135.433 43.4347 135.433 43.1768C135.433 43.14 135.438 43.0755 135.447 42.9835L135.627 41.4639C135.663 41.1554 135.771 40.9056 135.952 40.7144C136.133 40.5234 136.357 40.4278 136.624 40.4278C136.767 40.4278 136.892 40.4623 136.999 40.5314C137.106 40.6005 137.189 40.6995 137.247 40.8284C137.251 40.8422 137.257 40.848 137.263 40.8457C137.27 40.8434 137.276 40.8353 137.28 40.8215L137.307 40.5522ZM136.33 43.6949C136.508 43.6949 136.662 43.6281 136.792 43.4946C136.921 43.3611 136.997 43.1861 137.019 42.9696L137.2 41.4846C137.204 41.457 137.206 41.4132 137.206 41.3534C137.206 41.1738 137.16 41.0287 137.066 40.9182C136.972 40.8077 136.845 40.7525 136.685 40.7525C136.497 40.7525 136.338 40.8203 136.206 40.9562C136.075 41.092 135.995 41.2682 135.969 41.4846L135.795 42.9696C135.79 42.9973 135.788 43.0387 135.788 43.094C135.788 43.2735 135.837 43.4186 135.935 43.5291C136.033 43.6396 136.165 43.6949 136.33 43.6949ZM138.27 43.9366C138.186 43.9366 138.116 43.9102 138.063 43.8572C138.009 43.8043 137.983 43.734 137.983 43.6465C137.983 43.5314 138.018 43.4359 138.09 43.3599C138.161 43.2839 138.25 43.2459 138.357 43.2459C138.442 43.2459 138.51 43.2735 138.561 43.3288C138.613 43.3841 138.638 43.4578 138.638 43.5498C138.638 43.6604 138.603 43.7524 138.531 43.8261C138.46 43.8998 138.373 43.9366 138.27 43.9366Z" fill="#00354D"/>
<path fill-rule="evenodd" clip-rule="evenodd" d="M16.5168 29.3551L15.9634 29.0258L25.3922 23.3154L25.3622 15.8566C24.9129 15.7329 24.597 15.3884 24.5805 14.8332C24.5722 14.557 24.686 14.2854 24.8777 14.0851C25.0711 13.8831 25.344 13.7538 25.6427 13.7571C25.7089 13.7578 25.7743 13.7625 25.8392 13.7744C25.9941 13.8029 26.143 13.8651 26.2682 13.9567C26.3691 14.0305 26.4592 14.121 26.529 14.2241C26.6477 14.3994 26.7135 14.6095 26.7146 14.8228C26.7172 15.362 26.3899 15.7262 25.9416 15.8544L25.9683 22.9665L29.4307 20.8695L29.4018 13.6901C28.9525 13.5663 28.6214 13.1556 28.619 12.6663C28.6175 12.3572 28.7465 12.0798 28.9554 11.884C29.1448 11.7063 29.4003 11.595 29.6803 11.5938C29.8706 11.5929 30.0538 11.6439 30.2133 11.7327C30.3427 11.8048 30.4537 11.9056 30.5395 12.0202C30.6782 12.2054 30.7539 12.4308 30.7531 12.6558C30.7511 13.1952 30.4275 13.5591 29.9793 13.6873L30.0094 21.1945L16.5168 29.3551Z" fill="#FEFEFE"/>
<defs>
<linearGradient id="paint0_linear_27_175" x1="6.53439" y1="14.6021" x2="21.224" y2="27.3017" gradientUnits="userSpaceOnUse">
<stop stop-color="#012437"/>
<stop offset="1" stop-color="#1BABCA"/>
</linearGradient>
<linearGradient id="paint1_linear_27_175" x1="34.3135" y1="30.5285" x2="20.9196" y2="41.3294" gradientUnits="userSpaceOnUse">
<stop stop-color="#056687"/>
<stop offset="0.568627" stop-color="#0F81A3"/>
<stop offset="1" stop-color="#199CC0"/>
</linearGradient>
</defs>
</svg>
